%TF.GenerationSoftware,KiCad,Pcbnew,(6.0.7)*%
%TF.CreationDate,2022-09-05T17:33:02-05:00*%
%TF.ProjectId,tracker,74726163-6b65-4722-9e6b-696361645f70,1.0*%
%TF.SameCoordinates,Original*%
%TF.FileFunction,Soldermask,Top*%
%TF.FilePolarity,Negative*%
%FSLAX46Y46*%
G04 Gerber Fmt 4.6, Leading zero omitted, Abs format (unit mm)*
G04 Created by KiCad (PCBNEW (6.0.7)) date 2022-09-05 17:33:02*
%MOMM*%
%LPD*%
G01*
G04 APERTURE LIST*
G04 Aperture macros list*
%AMRoundRect*
0 Rectangle with rounded corners*
0 $1 Rounding radius*
0 $2 $3 $4 $5 $6 $7 $8 $9 X,Y pos of 4 corners*
0 Add a 4 corners polygon primitive as box body*
4,1,4,$2,$3,$4,$5,$6,$7,$8,$9,$2,$3,0*
0 Add four circle primitives for the rounded corners*
1,1,$1+$1,$2,$3*
1,1,$1+$1,$4,$5*
1,1,$1+$1,$6,$7*
1,1,$1+$1,$8,$9*
0 Add four rect primitives between the rounded corners*
20,1,$1+$1,$2,$3,$4,$5,0*
20,1,$1+$1,$4,$5,$6,$7,0*
20,1,$1+$1,$6,$7,$8,$9,0*
20,1,$1+$1,$8,$9,$2,$3,0*%
G04 Aperture macros list end*
%ADD10R,2.300000X4.500000*%
%ADD11C,1.050000*%
%ADD12C,1.300000*%
%ADD13RoundRect,0.218750X0.256250X-0.218750X0.256250X0.218750X-0.256250X0.218750X-0.256250X-0.218750X0*%
%ADD14RoundRect,0.218750X-0.256250X0.218750X-0.256250X-0.218750X0.256250X-0.218750X0.256250X0.218750X0*%
%ADD15RoundRect,0.243750X-0.243750X-0.456250X0.243750X-0.456250X0.243750X0.456250X-0.243750X0.456250X0*%
%ADD16RoundRect,0.218750X-0.218750X-0.256250X0.218750X-0.256250X0.218750X0.256250X-0.218750X0.256250X0*%
%ADD17RoundRect,0.218750X0.218750X0.256250X-0.218750X0.256250X-0.218750X-0.256250X0.218750X-0.256250X0*%
%ADD18RoundRect,0.243750X0.456250X-0.243750X0.456250X0.243750X-0.456250X0.243750X-0.456250X-0.243750X0*%
%ADD19RoundRect,0.243750X0.243750X0.456250X-0.243750X0.456250X-0.243750X-0.456250X0.243750X-0.456250X0*%
%ADD20RoundRect,0.249999X1.450001X-0.312501X1.450001X0.312501X-1.450001X0.312501X-1.450001X-0.312501X0*%
%ADD21C,2.000000*%
%ADD22C,3.200000*%
%ADD23R,1.700000X1.700000*%
%ADD24O,1.700000X1.700000*%
%ADD25R,0.900000X0.800000*%
%ADD26R,2.625000X2.625000*%
%ADD27C,2.625000*%
%ADD28R,1.350000X1.350000*%
%ADD29O,1.350000X1.350000*%
%ADD30R,0.550000X1.600000*%
%ADD31R,1.600000X0.550000*%
%ADD32C,1.219200*%
%ADD33C,2.500000*%
%ADD34RoundRect,0.000001X0.750000X-0.900000X0.750000X0.900000X-0.750000X0.900000X-0.750000X-0.900000X0*%
%ADD35RoundRect,0.000001X0.900000X-0.750000X0.900000X0.750000X-0.900000X0.750000X-0.900000X-0.750000X0*%
%ADD36R,0.650000X1.060000*%
%ADD37R,1.900000X0.400000*%
G04 APERTURE END LIST*
D10*
%TO.C,BT1*%
X149860000Y-141071000D03*
X149860000Y-124671000D03*
D11*
X149860000Y-129371000D03*
D12*
X149860000Y-136821000D03*
%TD*%
D13*
%TO.C,C1*%
X148844000Y-101066500D03*
X148844000Y-102641500D03*
%TD*%
D14*
%TO.C,C2*%
X148082000Y-115798500D03*
X148082000Y-117373500D03*
%TD*%
%TO.C,C3*%
X146304000Y-117373500D03*
X146304000Y-115798500D03*
%TD*%
D15*
%TO.C,C4*%
X164670500Y-138430000D03*
X166545500Y-138430000D03*
%TD*%
D16*
%TO.C,C5*%
X164820500Y-140462000D03*
X166395500Y-140462000D03*
%TD*%
D13*
%TO.C,C6*%
X146812000Y-102641500D03*
X146812000Y-101066500D03*
%TD*%
D16*
%TO.C,C7*%
X164820500Y-142240000D03*
X166395500Y-142240000D03*
%TD*%
D17*
%TO.C,C8*%
X182346500Y-132334000D03*
X183921500Y-132334000D03*
%TD*%
%TO.C,C9*%
X123418500Y-143256000D03*
X124993500Y-143256000D03*
%TD*%
%TO.C,C10*%
X135864500Y-90170000D03*
X137439500Y-90170000D03*
%TD*%
%TO.C,C11*%
X132867500Y-143256000D03*
X131292500Y-143256000D03*
%TD*%
D18*
%TO.C,C12*%
X137160000Y-120220500D03*
X137160000Y-122095500D03*
%TD*%
D15*
%TO.C,C13*%
X133174500Y-117856000D03*
X135049500Y-117856000D03*
%TD*%
D16*
%TO.C,C14*%
X133324500Y-115824000D03*
X134899500Y-115824000D03*
%TD*%
D18*
%TO.C,D1*%
X153416000Y-100916500D03*
X153416000Y-102791500D03*
%TD*%
D19*
%TO.C,D2*%
X173911500Y-124968000D03*
X172036500Y-124968000D03*
%TD*%
%TO.C,D3*%
X172036500Y-127254000D03*
X173911500Y-127254000D03*
%TD*%
D15*
%TO.C,D4*%
X133174500Y-113030000D03*
X135049500Y-113030000D03*
%TD*%
D20*
%TO.C,F1*%
X136652000Y-96371500D03*
X136652000Y-92096500D03*
%TD*%
D21*
%TO.C,FID1*%
X187198000Y-97028000D03*
%TD*%
%TO.C,FID2*%
X113538000Y-136906000D03*
%TD*%
D22*
%TO.C,H1*%
X115062000Y-141478000D03*
%TD*%
%TO.C,H2*%
X187198000Y-141478000D03*
%TD*%
%TO.C,H3*%
X187198000Y-90932000D03*
%TD*%
%TO.C,H4*%
X115062000Y-90932000D03*
%TD*%
D23*
%TO.C,J2*%
X157226000Y-106934000D03*
D24*
X159766000Y-106934000D03*
X157226000Y-109474000D03*
X159766000Y-109474000D03*
X157226000Y-112014000D03*
X159766000Y-112014000D03*
%TD*%
%TO.C,J4*%
X124714000Y-89408000D03*
D23*
X122174000Y-89408000D03*
%TD*%
D25*
%TO.C,Q1*%
X166640000Y-92268000D03*
X166640000Y-94168000D03*
X168640000Y-93218000D03*
%TD*%
%TO.C,Q2*%
X168640000Y-101854000D03*
X166640000Y-102804000D03*
X166640000Y-100904000D03*
%TD*%
D14*
%TO.C,R1*%
X164846000Y-94005500D03*
X164846000Y-92430500D03*
%TD*%
D13*
%TO.C,R2*%
X170434000Y-94005500D03*
X170434000Y-92430500D03*
%TD*%
D14*
%TO.C,R3*%
X164846000Y-102641500D03*
X164846000Y-101066500D03*
%TD*%
D13*
%TO.C,R4*%
X170434000Y-102641500D03*
X170434000Y-101066500D03*
%TD*%
D16*
%TO.C,R5*%
X138404500Y-109474000D03*
X139979500Y-109474000D03*
%TD*%
D13*
%TO.C,R6*%
X150876000Y-101066500D03*
X150876000Y-102641500D03*
%TD*%
D16*
%TO.C,R7*%
X182346500Y-130556000D03*
X183921500Y-130556000D03*
%TD*%
%TO.C,R8*%
X169697500Y-124968000D03*
X168122500Y-124968000D03*
%TD*%
%TO.C,R9*%
X168122500Y-127254000D03*
X169697500Y-127254000D03*
%TD*%
%TO.C,R10*%
X139979500Y-111252000D03*
X138404500Y-111252000D03*
%TD*%
%TO.C,R11*%
X139979500Y-113030000D03*
X138404500Y-113030000D03*
%TD*%
D13*
%TO.C,R12*%
X120396000Y-124739500D03*
X120396000Y-123164500D03*
%TD*%
%TO.C,R13*%
X122174000Y-123164500D03*
X122174000Y-124739500D03*
%TD*%
D16*
%TO.C,R14*%
X168122500Y-132842000D03*
X169697500Y-132842000D03*
%TD*%
%TO.C,R15*%
X168122500Y-130810000D03*
X169697500Y-130810000D03*
%TD*%
D17*
%TO.C,R16*%
X137693500Y-135890000D03*
X136118500Y-135890000D03*
%TD*%
D16*
%TO.C,R17*%
X133324500Y-110744000D03*
X134899500Y-110744000D03*
%TD*%
%TO.C,R18*%
X169697500Y-97790000D03*
X168122500Y-97790000D03*
%TD*%
D26*
%TO.C,SW1*%
X127688000Y-104422000D03*
D27*
X127688000Y-99822000D03*
%TD*%
D28*
%TO.C,U1*%
X164768000Y-134874000D03*
D29*
X186768000Y-134874000D03*
X164768000Y-132874000D03*
X186768000Y-132874000D03*
X164768000Y-130874000D03*
X186768000Y-130874000D03*
X164768000Y-128874000D03*
X186768000Y-128874000D03*
X164768000Y-126874000D03*
X186768000Y-126874000D03*
X164768000Y-124874000D03*
X186768000Y-124874000D03*
X164768000Y-122874000D03*
X186768000Y-122874000D03*
X164768000Y-120874000D03*
X186768000Y-120874000D03*
X164768000Y-118874000D03*
X186768000Y-118874000D03*
X164768000Y-116874000D03*
X186768000Y-116874000D03*
%TD*%
D30*
%TO.C,U2*%
X144012000Y-113470000D03*
X144812000Y-113470000D03*
X145612000Y-113470000D03*
X146412000Y-113470000D03*
X147212000Y-113470000D03*
X148012000Y-113470000D03*
X148812000Y-113470000D03*
X149612000Y-113470000D03*
D31*
X151062000Y-112020000D03*
X151062000Y-111220000D03*
X151062000Y-110420000D03*
X151062000Y-109620000D03*
X151062000Y-108820000D03*
X151062000Y-108020000D03*
X151062000Y-107220000D03*
X151062000Y-106420000D03*
D30*
X149612000Y-104970000D03*
X148812000Y-104970000D03*
X148012000Y-104970000D03*
X147212000Y-104970000D03*
X146412000Y-104970000D03*
X145612000Y-104970000D03*
X144812000Y-104970000D03*
X144012000Y-104970000D03*
D31*
X142562000Y-106420000D03*
X142562000Y-107220000D03*
X142562000Y-108020000D03*
X142562000Y-108820000D03*
X142562000Y-109620000D03*
X142562000Y-110420000D03*
X142562000Y-111220000D03*
X142562000Y-112020000D03*
%TD*%
D32*
%TO.C,U3*%
X127762000Y-118364000D03*
X127762000Y-115824000D03*
X127762000Y-113284000D03*
%TD*%
D33*
%TO.C,U4*%
X120604000Y-96474000D03*
X159304000Y-96474000D03*
%TD*%
D34*
%TO.C,U5*%
X123200000Y-140712000D03*
X125100000Y-140712000D03*
X127000000Y-140712000D03*
X128900000Y-140712000D03*
X130800000Y-140712000D03*
D35*
X133600000Y-137912000D03*
X133600000Y-136012000D03*
X133600000Y-134112000D03*
X133600000Y-132212000D03*
X133600000Y-130312000D03*
D34*
X130800000Y-127512000D03*
X128900000Y-127512000D03*
X127000000Y-127512000D03*
X125100000Y-127512000D03*
X123200000Y-127512000D03*
D35*
X120400000Y-130312000D03*
X120400000Y-132212000D03*
X120400000Y-134112000D03*
X120400000Y-136012000D03*
X120400000Y-137912000D03*
%TD*%
D36*
%TO.C,U6*%
X133162000Y-122258000D03*
X134112000Y-122258000D03*
X135062000Y-122258000D03*
X135062000Y-120058000D03*
X133162000Y-120058000D03*
%TD*%
D37*
%TO.C,Y1*%
X150876000Y-118294000D03*
X150876000Y-117094000D03*
X150876000Y-115894000D03*
%TD*%
M02*
