%TF.GenerationSoftware,KiCad,Pcbnew,(6.0.7)*%
%TF.CreationDate,2022-09-05T17:33:02-05:00*%
%TF.ProjectId,tracker,74726163-6b65-4722-9e6b-696361645f70,1.0*%
%TF.SameCoordinates,Original*%
%TF.FileFunction,Copper,L2,Inr*%
%TF.FilePolarity,Positive*%
%FSLAX46Y46*%
G04 Gerber Fmt 4.6, Leading zero omitted, Abs format (unit mm)*
G04 Created by KiCad (PCBNEW (6.0.7)) date 2022-09-05 17:33:02*
%MOMM*%
%LPD*%
G01*
G04 APERTURE LIST*
%TA.AperFunction,ComponentPad*%
%ADD10R,1.700000X1.700000*%
%TD*%
%TA.AperFunction,ComponentPad*%
%ADD11O,1.700000X1.700000*%
%TD*%
%TA.AperFunction,ComponentPad*%
%ADD12R,2.625000X2.625000*%
%TD*%
%TA.AperFunction,ComponentPad*%
%ADD13C,2.625000*%
%TD*%
%TA.AperFunction,ComponentPad*%
%ADD14R,1.350000X1.350000*%
%TD*%
%TA.AperFunction,ComponentPad*%
%ADD15O,1.350000X1.350000*%
%TD*%
%TA.AperFunction,ComponentPad*%
%ADD16C,1.219200*%
%TD*%
%TA.AperFunction,ViaPad*%
%ADD17C,0.508000*%
%TD*%
G04 APERTURE END LIST*
D10*
%TO.N,MISO*%
%TO.C,J2*%
X157226000Y-106934000D03*
D11*
%TO.N,SCK*%
X159766000Y-106934000D03*
%TO.N,RESET*%
X157226000Y-109474000D03*
%TO.N,RB_GND*%
X159766000Y-109474000D03*
%TO.N,MOSI*%
X157226000Y-112014000D03*
%TO.N,+3V3*%
X159766000Y-112014000D03*
%TD*%
%TO.N,Net-(J3-Pad1)*%
%TO.C,J4*%
X124714000Y-89408000D03*
D10*
%TO.N,RB_GND*%
X122174000Y-89408000D03*
%TD*%
D12*
%TO.N,Net-(J3-Pad1)*%
%TO.C,SW1*%
X127688000Y-104422000D03*
D13*
%TO.N,Net-(C10-Pad1)*%
X127688000Y-99822000D03*
%TD*%
D14*
%TO.N,+3V3*%
%TO.C,U1*%
X164768000Y-134874000D03*
D15*
%TO.N,N/C*%
X186768000Y-134874000D03*
%TO.N,XBee_to_Uc*%
X164768000Y-132874000D03*
%TO.N,N/C*%
X186768000Y-132874000D03*
%TO.N,XBee_from_Uc*%
X164768000Y-130874000D03*
%TO.N,N/C*%
X186768000Y-130874000D03*
X164768000Y-128874000D03*
%TO.N,Net-(R7-Pad2)*%
X186768000Y-128874000D03*
%TO.N,N/C*%
X164768000Y-126874000D03*
X186768000Y-126874000D03*
%TO.N,Net-(R8-Pad1)*%
X164768000Y-124874000D03*
%TO.N,Net-(R9-Pad1)*%
X186768000Y-124874000D03*
%TO.N,N/C*%
X164768000Y-122874000D03*
X186768000Y-122874000D03*
X164768000Y-120874000D03*
X186768000Y-120874000D03*
X164768000Y-118874000D03*
X186768000Y-118874000D03*
%TO.N,RB_GND*%
X164768000Y-116874000D03*
%TO.N,N/C*%
X186768000Y-116874000D03*
%TD*%
D16*
%TO.N,RB_5V*%
%TO.C,U3*%
X127762000Y-118364000D03*
%TO.N,RB_GND*%
X127762000Y-115824000D03*
%TO.N,Net-(F1-Pad1)*%
X127762000Y-113284000D03*
%TD*%
D17*
%TO.N,RB_GND*%
X146812000Y-99822000D03*
X148844000Y-99822000D03*
X153416000Y-104140000D03*
X132080000Y-113030000D03*
X137160000Y-118872000D03*
X136144000Y-117856000D03*
X136144000Y-115824000D03*
X130810000Y-125476000D03*
X135636000Y-130302000D03*
X118618000Y-130302000D03*
X118618000Y-137668000D03*
X122174000Y-143256000D03*
X130048000Y-143256000D03*
X135636000Y-137922000D03*
X175260000Y-124968000D03*
X167640000Y-142240000D03*
X173228000Y-104394000D03*
X145034000Y-117348000D03*
X152654000Y-117094000D03*
X146304000Y-106680000D03*
X147574000Y-124206000D03*
X145542000Y-111760000D03*
X147066000Y-111760000D03*
X134112000Y-123698000D03*
X134620000Y-90170000D03*
X129032000Y-142748000D03*
X120623118Y-125756882D03*
%TO.N,+3V3*%
X137160000Y-109474000D03*
X132334000Y-110744000D03*
X118618000Y-132080000D03*
X134112000Y-143256000D03*
X126238000Y-143256000D03*
X137668000Y-134620000D03*
X164846000Y-91186000D03*
X166878000Y-97790000D03*
X164846000Y-99822000D03*
X145034000Y-115824000D03*
X149098000Y-115824000D03*
X132080000Y-115824000D03*
X132080000Y-117856000D03*
X147828000Y-102870000D03*
%TO.N,RESET*%
X152400000Y-109474000D03*
X139954000Y-108204000D03*
X183896000Y-110744000D03*
X183896000Y-133858000D03*
%TO.N,RB_5V*%
X171704000Y-101854000D03*
X137160000Y-123444000D03*
X162052000Y-121666000D03*
X162052000Y-104394000D03*
%TO.N,RB_RXI*%
X171704000Y-99314000D03*
%TO.N,RB_NetAv*%
X171450000Y-97790000D03*
X152654000Y-110490000D03*
X152908000Y-99314000D03*
%TO.N,RB_TXO*%
X171704000Y-92710000D03*
%TO.N,MOSI*%
X153670000Y-107188000D03*
X153670000Y-112014000D03*
%TO.N,RB_TXO_3V3*%
X139446000Y-94234000D03*
X137160000Y-111252000D03*
%TO.N,RB_RXI_3V3*%
X163576000Y-102616000D03*
X163576000Y-98806000D03*
X136398000Y-98552000D03*
X136398000Y-113030000D03*
%TO.N,Net-(R12-Pad2)*%
X120396000Y-121920000D03*
X120396000Y-114300000D03*
%TO.N,Net-(R13-Pad2)*%
X122174000Y-121920000D03*
X122174000Y-114858800D03*
%TO.N,Net-(R14-Pad2)*%
X144780000Y-134112000D03*
X144272000Y-115570000D03*
%TO.N,Net-(R15-Pad2)*%
X153466800Y-113030000D03*
X153924000Y-131826000D03*
%TO.N,GPS_PPS*%
X152908000Y-133350000D03*
X152908000Y-111252000D03*
%TD*%
%TA.AperFunction,Conductor*%
%TO.N,+3V3*%
G36*
X120824928Y-88158502D02*
G01*
X120871421Y-88212158D01*
X120881525Y-88282432D01*
X120872067Y-88310801D01*
X120873385Y-88311295D01*
X120822255Y-88447684D01*
X120815500Y-88509866D01*
X120815500Y-90306134D01*
X120822255Y-90368316D01*
X120873385Y-90504705D01*
X120960739Y-90621261D01*
X121077295Y-90708615D01*
X121213684Y-90759745D01*
X121275866Y-90766500D01*
X123072134Y-90766500D01*
X123134316Y-90759745D01*
X123270705Y-90708615D01*
X123387261Y-90621261D01*
X123474615Y-90504705D01*
X123496799Y-90445529D01*
X123518598Y-90387382D01*
X123561240Y-90330618D01*
X123627802Y-90305918D01*
X123697150Y-90321126D01*
X123731817Y-90349114D01*
X123760250Y-90381938D01*
X123932126Y-90524632D01*
X124125000Y-90637338D01*
X124333692Y-90717030D01*
X124338760Y-90718061D01*
X124338763Y-90718062D01*
X124446017Y-90739883D01*
X124552597Y-90761567D01*
X124557772Y-90761757D01*
X124557774Y-90761757D01*
X124770673Y-90769564D01*
X124770677Y-90769564D01*
X124775837Y-90769753D01*
X124780957Y-90769097D01*
X124780959Y-90769097D01*
X124992288Y-90742025D01*
X124992289Y-90742025D01*
X124997416Y-90741368D01*
X125002366Y-90739883D01*
X125206429Y-90678661D01*
X125206434Y-90678659D01*
X125211384Y-90677174D01*
X125411994Y-90578896D01*
X125593860Y-90449173D01*
X125752096Y-90291489D01*
X125803301Y-90220230D01*
X125847093Y-90159286D01*
X133852750Y-90159286D01*
X133869443Y-90329536D01*
X133923440Y-90491856D01*
X133927087Y-90497878D01*
X133927088Y-90497880D01*
X134008406Y-90632154D01*
X134008409Y-90632157D01*
X134012056Y-90638180D01*
X134130889Y-90761234D01*
X134274030Y-90854903D01*
X134280634Y-90857359D01*
X134280636Y-90857360D01*
X134427757Y-90912074D01*
X134427759Y-90912074D01*
X134434367Y-90914532D01*
X134513454Y-90925085D01*
X134596949Y-90936226D01*
X134596953Y-90936226D01*
X134603930Y-90937157D01*
X134610941Y-90936519D01*
X134610945Y-90936519D01*
X134767273Y-90922292D01*
X134767275Y-90922292D01*
X134774292Y-90921653D01*
X134780990Y-90919477D01*
X134780993Y-90919476D01*
X134930289Y-90870966D01*
X134930291Y-90870965D01*
X134936985Y-90868790D01*
X135083924Y-90781197D01*
X135207805Y-90663227D01*
X135221079Y-90643249D01*
X135298570Y-90526614D01*
X135302471Y-90520743D01*
X135363218Y-90360826D01*
X135383558Y-90216102D01*
X135386475Y-90195347D01*
X135386475Y-90195344D01*
X135387026Y-90191425D01*
X135387325Y-90170000D01*
X135368256Y-90000000D01*
X135360065Y-89976476D01*
X135314314Y-89845097D01*
X135314313Y-89845095D01*
X135311999Y-89838450D01*
X135221348Y-89693378D01*
X135208159Y-89680096D01*
X135105772Y-89576992D01*
X135100809Y-89571994D01*
X135035539Y-89530573D01*
X134962316Y-89484104D01*
X134962313Y-89484102D01*
X134956373Y-89480333D01*
X134949563Y-89477908D01*
X134801854Y-89425311D01*
X134801849Y-89425310D01*
X134795219Y-89422949D01*
X134788231Y-89422116D01*
X134788228Y-89422115D01*
X134669854Y-89408000D01*
X134625357Y-89402694D01*
X134618354Y-89403430D01*
X134618353Y-89403430D01*
X134574873Y-89408000D01*
X134455228Y-89420575D01*
X134445071Y-89424033D01*
X134299956Y-89473434D01*
X134299953Y-89473435D01*
X134293289Y-89475704D01*
X134147588Y-89565340D01*
X134142557Y-89570267D01*
X134142554Y-89570269D01*
X134135689Y-89576992D01*
X134025366Y-89685028D01*
X134021547Y-89690953D01*
X134021546Y-89690955D01*
X134010734Y-89707732D01*
X133932698Y-89828820D01*
X133930287Y-89835443D01*
X133930286Y-89835446D01*
X133876600Y-89982947D01*
X133876599Y-89982952D01*
X133874190Y-89989570D01*
X133852750Y-90159286D01*
X125847093Y-90159286D01*
X125879435Y-90114277D01*
X125882453Y-90110077D01*
X125933398Y-90006998D01*
X125979136Y-89914453D01*
X125979137Y-89914451D01*
X125981430Y-89909811D01*
X126013900Y-89802940D01*
X126044865Y-89701023D01*
X126044865Y-89701021D01*
X126046370Y-89696069D01*
X126075529Y-89474590D01*
X126077156Y-89408000D01*
X126058852Y-89185361D01*
X126004431Y-88968702D01*
X125915354Y-88763840D01*
X125794014Y-88576277D01*
X125643670Y-88411051D01*
X125639619Y-88407852D01*
X125639615Y-88407848D01*
X125583311Y-88363382D01*
X125542248Y-88305464D01*
X125539016Y-88234541D01*
X125574642Y-88173130D01*
X125637813Y-88140728D01*
X125661403Y-88138500D01*
X189865500Y-88138500D01*
X189933621Y-88158502D01*
X189980114Y-88212158D01*
X189991500Y-88264500D01*
X189991500Y-144145500D01*
X189971498Y-144213621D01*
X189917842Y-144260114D01*
X189865500Y-144271500D01*
X130077831Y-144271500D01*
X130037478Y-144259651D01*
X130015351Y-144270029D01*
X129996154Y-144271500D01*
X122203831Y-144271500D01*
X122163478Y-144259651D01*
X122141351Y-144270029D01*
X122122154Y-144271500D01*
X112394500Y-144271500D01*
X112326379Y-144251498D01*
X112279886Y-144197842D01*
X112268500Y-144145500D01*
X112268500Y-141610703D01*
X112952743Y-141610703D01*
X112953302Y-141614947D01*
X112953302Y-141614951D01*
X112969810Y-141740340D01*
X112990268Y-141895734D01*
X113066129Y-142173036D01*
X113067813Y-142176984D01*
X113176087Y-142430826D01*
X113178923Y-142437476D01*
X113243565Y-142545485D01*
X113313892Y-142662992D01*
X113326561Y-142684161D01*
X113506313Y-142908528D01*
X113593909Y-142991653D01*
X113693330Y-143086000D01*
X113714851Y-143106423D01*
X113948317Y-143274186D01*
X113952112Y-143276195D01*
X113952113Y-143276196D01*
X113973869Y-143287715D01*
X114202392Y-143408712D01*
X114324530Y-143453408D01*
X114433988Y-143493464D01*
X114472373Y-143507511D01*
X114753264Y-143568755D01*
X114781841Y-143571004D01*
X114976282Y-143586307D01*
X114976291Y-143586307D01*
X114978739Y-143586500D01*
X115134271Y-143586500D01*
X115136407Y-143586354D01*
X115136418Y-143586354D01*
X115344548Y-143572165D01*
X115344554Y-143572164D01*
X115348825Y-143571873D01*
X115353020Y-143571004D01*
X115353022Y-143571004D01*
X115489583Y-143542724D01*
X115630342Y-143513574D01*
X115901343Y-143417607D01*
X116156812Y-143285750D01*
X116160313Y-143283289D01*
X116160317Y-143283287D01*
X116214387Y-143245286D01*
X121406750Y-143245286D01*
X121423443Y-143415536D01*
X121477440Y-143577856D01*
X121481087Y-143583878D01*
X121481088Y-143583880D01*
X121562406Y-143718154D01*
X121562409Y-143718157D01*
X121566056Y-143724180D01*
X121684889Y-143847234D01*
X121828030Y-143940903D01*
X121834634Y-143943359D01*
X121834636Y-143943360D01*
X121981757Y-143998074D01*
X121981759Y-143998074D01*
X121988367Y-144000532D01*
X122134412Y-144020019D01*
X122138819Y-144020607D01*
X122159943Y-144029996D01*
X122168333Y-144024604D01*
X122192411Y-144020019D01*
X122321273Y-144008292D01*
X122321275Y-144008292D01*
X122328292Y-144007653D01*
X122334990Y-144005477D01*
X122334993Y-144005476D01*
X122484289Y-143956966D01*
X122484291Y-143956965D01*
X122490985Y-143954790D01*
X122637924Y-143867197D01*
X122761805Y-143749227D01*
X122775079Y-143729249D01*
X122852570Y-143612614D01*
X122856471Y-143606743D01*
X122917218Y-143446826D01*
X122918198Y-143439854D01*
X122940475Y-143281347D01*
X122940475Y-143281344D01*
X122941026Y-143277425D01*
X122941325Y-143256000D01*
X122922256Y-143086000D01*
X122916635Y-143069856D01*
X122868314Y-142931097D01*
X122868313Y-142931095D01*
X122865999Y-142924450D01*
X122820226Y-142851197D01*
X122779081Y-142785352D01*
X122775348Y-142779378D01*
X122762159Y-142766096D01*
X122733549Y-142737286D01*
X128264750Y-142737286D01*
X128281443Y-142907536D01*
X128335440Y-143069856D01*
X128339087Y-143075878D01*
X128339088Y-143075880D01*
X128420406Y-143210154D01*
X128420409Y-143210157D01*
X128424056Y-143216180D01*
X128542889Y-143339234D01*
X128548785Y-143343092D01*
X128648780Y-143408527D01*
X128686030Y-143432903D01*
X128692634Y-143435359D01*
X128692636Y-143435360D01*
X128839757Y-143490074D01*
X128839759Y-143490074D01*
X128846367Y-143492532D01*
X128925454Y-143503085D01*
X129008949Y-143514226D01*
X129008953Y-143514226D01*
X129015930Y-143515157D01*
X129022941Y-143514519D01*
X129022945Y-143514519D01*
X129179273Y-143500292D01*
X129179275Y-143500292D01*
X129186292Y-143499653D01*
X129192992Y-143497476D01*
X129199895Y-143496059D01*
X129200152Y-143497312D01*
X129263825Y-143495494D01*
X129324622Y-143532158D01*
X129344330Y-143565671D01*
X129346262Y-143564778D01*
X129349217Y-143571173D01*
X129351440Y-143577856D01*
X129355087Y-143583878D01*
X129355088Y-143583880D01*
X129436406Y-143718154D01*
X129436409Y-143718157D01*
X129440056Y-143724180D01*
X129558889Y-143847234D01*
X129702030Y-143940903D01*
X129708634Y-143943359D01*
X129708636Y-143943360D01*
X129855757Y-143998074D01*
X129855759Y-143998074D01*
X129862367Y-144000532D01*
X130008412Y-144020019D01*
X130012819Y-144020607D01*
X130033943Y-144029996D01*
X130042333Y-144024604D01*
X130066411Y-144020019D01*
X130195273Y-144008292D01*
X130195275Y-144008292D01*
X130202292Y-144007653D01*
X130208990Y-144005477D01*
X130208993Y-144005476D01*
X130358289Y-143956966D01*
X130358291Y-143956965D01*
X130364985Y-143954790D01*
X130511924Y-143867197D01*
X130635805Y-143749227D01*
X130649079Y-143729249D01*
X130726570Y-143612614D01*
X130730471Y-143606743D01*
X130791218Y-143446826D01*
X130792198Y-143439854D01*
X130814475Y-143281347D01*
X130814475Y-143281344D01*
X130815026Y-143277425D01*
X130815325Y-143256000D01*
X130796256Y-143086000D01*
X130790635Y-143069856D01*
X130742314Y-142931097D01*
X130742313Y-142931095D01*
X130739999Y-142924450D01*
X130694226Y-142851197D01*
X130653081Y-142785352D01*
X130649348Y-142779378D01*
X130636159Y-142766096D01*
X130569146Y-142698614D01*
X130528809Y-142657994D01*
X130432089Y-142596614D01*
X130390316Y-142570104D01*
X130390313Y-142570102D01*
X130384373Y-142566333D01*
X130371800Y-142561856D01*
X130229854Y-142511311D01*
X130229849Y-142511310D01*
X130223219Y-142508949D01*
X130216231Y-142508116D01*
X130216228Y-142508115D01*
X130100655Y-142494334D01*
X130053357Y-142488694D01*
X130046354Y-142489430D01*
X130046353Y-142489430D01*
X129968293Y-142497634D01*
X129883228Y-142506575D01*
X129876563Y-142508844D01*
X129873993Y-142509409D01*
X129803167Y-142504501D01*
X129746237Y-142462080D01*
X129727946Y-142427783D01*
X129726316Y-142423101D01*
X129726313Y-142423094D01*
X129723999Y-142416450D01*
X129633348Y-142271378D01*
X129620159Y-142258096D01*
X129591549Y-142229286D01*
X166872750Y-142229286D01*
X166889443Y-142399536D01*
X166943440Y-142561856D01*
X166947087Y-142567878D01*
X166947088Y-142567880D01*
X167028406Y-142702154D01*
X167028409Y-142702157D01*
X167032056Y-142708180D01*
X167150889Y-142831234D01*
X167156785Y-142835092D01*
X167278622Y-142914820D01*
X167294030Y-142924903D01*
X167300634Y-142927359D01*
X167300636Y-142927360D01*
X167447757Y-142982074D01*
X167447759Y-142982074D01*
X167454367Y-142984532D01*
X167533454Y-142995085D01*
X167616949Y-143006226D01*
X167616953Y-143006226D01*
X167623930Y-143007157D01*
X167630941Y-143006519D01*
X167630945Y-143006519D01*
X167787273Y-142992292D01*
X167787275Y-142992292D01*
X167794292Y-142991653D01*
X167800990Y-142989477D01*
X167800993Y-142989476D01*
X167950289Y-142940966D01*
X167950291Y-142940965D01*
X167956985Y-142938790D01*
X167998200Y-142914221D01*
X168097872Y-142854805D01*
X168097874Y-142854804D01*
X168103924Y-142851197D01*
X168227805Y-142733227D01*
X168241079Y-142713249D01*
X168280296Y-142654221D01*
X168322471Y-142590743D01*
X168371832Y-142460799D01*
X168380718Y-142437408D01*
X168380719Y-142437406D01*
X168383218Y-142430826D01*
X168384304Y-142423101D01*
X168406475Y-142265347D01*
X168406475Y-142265344D01*
X168407026Y-142261425D01*
X168407325Y-142240000D01*
X168388256Y-142070000D01*
X168385507Y-142062104D01*
X168334314Y-141915097D01*
X168334313Y-141915095D01*
X168331999Y-141908450D01*
X168241348Y-141763378D01*
X168228159Y-141750096D01*
X168125772Y-141646992D01*
X168120809Y-141641994D01*
X168071502Y-141610703D01*
X185088743Y-141610703D01*
X185089302Y-141614947D01*
X185089302Y-141614951D01*
X185105810Y-141740340D01*
X185126268Y-141895734D01*
X185202129Y-142173036D01*
X185203813Y-142176984D01*
X185312087Y-142430826D01*
X185314923Y-142437476D01*
X185379565Y-142545485D01*
X185449892Y-142662992D01*
X185462561Y-142684161D01*
X185642313Y-142908528D01*
X185729909Y-142991653D01*
X185829330Y-143086000D01*
X185850851Y-143106423D01*
X186084317Y-143274186D01*
X186088112Y-143276195D01*
X186088113Y-143276196D01*
X186109869Y-143287715D01*
X186338392Y-143408712D01*
X186460530Y-143453408D01*
X186569988Y-143493464D01*
X186608373Y-143507511D01*
X186889264Y-143568755D01*
X186917841Y-143571004D01*
X187112282Y-143586307D01*
X187112291Y-143586307D01*
X187114739Y-143586500D01*
X187270271Y-143586500D01*
X187272407Y-143586354D01*
X187272418Y-143586354D01*
X187480548Y-143572165D01*
X187480554Y-143572164D01*
X187484825Y-143571873D01*
X187489020Y-143571004D01*
X187489022Y-143571004D01*
X187625583Y-143542724D01*
X187766342Y-143513574D01*
X188037343Y-143417607D01*
X188292812Y-143285750D01*
X188296313Y-143283289D01*
X188296317Y-143283287D01*
X188410418Y-143203095D01*
X188528023Y-143120441D01*
X188649931Y-143007157D01*
X188735479Y-142927661D01*
X188735481Y-142927658D01*
X188738622Y-142924740D01*
X188920713Y-142702268D01*
X189070927Y-142457142D01*
X189158580Y-142257464D01*
X189184757Y-142197830D01*
X189186483Y-142193898D01*
X189265244Y-141917406D01*
X189305751Y-141632784D01*
X189305845Y-141614951D01*
X189307235Y-141349583D01*
X189307235Y-141349576D01*
X189307257Y-141345297D01*
X189269732Y-141060266D01*
X189193871Y-140782964D01*
X189081077Y-140518524D01*
X188933439Y-140271839D01*
X188753687Y-140047472D01*
X188545149Y-139849577D01*
X188311683Y-139681814D01*
X188289843Y-139670250D01*
X188266654Y-139657972D01*
X188057608Y-139547288D01*
X187787627Y-139448489D01*
X187506736Y-139387245D01*
X187475685Y-139384801D01*
X187283718Y-139369693D01*
X187283709Y-139369693D01*
X187281261Y-139369500D01*
X187125729Y-139369500D01*
X187123593Y-139369646D01*
X187123582Y-139369646D01*
X186915452Y-139383835D01*
X186915446Y-139383836D01*
X186911175Y-139384127D01*
X186906980Y-139384996D01*
X186906978Y-139384996D01*
X186770416Y-139413277D01*
X186629658Y-139442426D01*
X186358657Y-139538393D01*
X186103188Y-139670250D01*
X186099687Y-139672711D01*
X186099683Y-139672713D01*
X186089594Y-139679804D01*
X185867977Y-139835559D01*
X185657378Y-140031260D01*
X185475287Y-140253732D01*
X185325073Y-140498858D01*
X185209517Y-140762102D01*
X185130756Y-141038594D01*
X185090249Y-141323216D01*
X185090227Y-141327505D01*
X185090226Y-141327512D01*
X185089064Y-141549395D01*
X185088743Y-141610703D01*
X168071502Y-141610703D01*
X168055539Y-141600573D01*
X167982316Y-141554104D01*
X167982313Y-141554102D01*
X167976373Y-141550333D01*
X167969740Y-141547971D01*
X167821854Y-141495311D01*
X167821849Y-141495310D01*
X167815219Y-141492949D01*
X167808231Y-141492116D01*
X167808228Y-141492115D01*
X167692655Y-141478334D01*
X167645357Y-141472694D01*
X167638354Y-141473430D01*
X167638353Y-141473430D01*
X167593958Y-141478096D01*
X167475228Y-141490575D01*
X167465071Y-141494033D01*
X167319956Y-141543434D01*
X167319953Y-141543435D01*
X167313289Y-141545704D01*
X167167588Y-141635340D01*
X167162557Y-141640267D01*
X167162554Y-141640269D01*
X167155689Y-141646992D01*
X167045366Y-141755028D01*
X167041547Y-141760953D01*
X167041546Y-141760955D01*
X167036135Y-141769352D01*
X166952698Y-141898820D01*
X166950287Y-141905443D01*
X166950286Y-141905446D01*
X166896600Y-142052947D01*
X166896599Y-142052952D01*
X166894190Y-142059570D01*
X166872750Y-142229286D01*
X129591549Y-142229286D01*
X129539611Y-142176984D01*
X129512809Y-142149994D01*
X129397785Y-142076998D01*
X129374316Y-142062104D01*
X129374313Y-142062102D01*
X129368373Y-142058333D01*
X129361740Y-142055971D01*
X129213854Y-142003311D01*
X129213849Y-142003310D01*
X129207219Y-142000949D01*
X129200231Y-142000116D01*
X129200228Y-142000115D01*
X129084655Y-141986334D01*
X129037357Y-141980694D01*
X129030354Y-141981430D01*
X129030353Y-141981430D01*
X128985958Y-141986096D01*
X128867228Y-141998575D01*
X128857071Y-142002033D01*
X128711956Y-142051434D01*
X128711953Y-142051435D01*
X128705289Y-142053704D01*
X128559588Y-142143340D01*
X128554557Y-142148267D01*
X128554554Y-142148269D01*
X128503944Y-142197830D01*
X128437366Y-142263028D01*
X128433547Y-142268953D01*
X128433546Y-142268955D01*
X128428135Y-142277352D01*
X128344698Y-142406820D01*
X128342287Y-142413443D01*
X128342286Y-142413446D01*
X128288600Y-142560947D01*
X128288599Y-142560952D01*
X128286190Y-142567570D01*
X128264750Y-142737286D01*
X122733549Y-142737286D01*
X122695146Y-142698614D01*
X122654809Y-142657994D01*
X122558089Y-142596614D01*
X122516316Y-142570104D01*
X122516313Y-142570102D01*
X122510373Y-142566333D01*
X122497800Y-142561856D01*
X122355854Y-142511311D01*
X122355849Y-142511310D01*
X122349219Y-142508949D01*
X122342231Y-142508116D01*
X122342228Y-142508115D01*
X122226655Y-142494334D01*
X122179357Y-142488694D01*
X122172354Y-142489430D01*
X122172353Y-142489430D01*
X122127958Y-142494096D01*
X122009228Y-142506575D01*
X122000903Y-142509409D01*
X121853956Y-142559434D01*
X121853953Y-142559435D01*
X121847289Y-142561704D01*
X121701588Y-142651340D01*
X121696557Y-142656267D01*
X121696554Y-142656269D01*
X121643545Y-142708180D01*
X121579366Y-142771028D01*
X121575547Y-142776953D01*
X121575546Y-142776955D01*
X121570135Y-142785352D01*
X121486698Y-142914820D01*
X121484287Y-142921443D01*
X121484286Y-142921446D01*
X121430600Y-143068947D01*
X121430599Y-143068952D01*
X121428190Y-143075570D01*
X121406750Y-143245286D01*
X116214387Y-143245286D01*
X116274418Y-143203095D01*
X116392023Y-143120441D01*
X116513931Y-143007157D01*
X116599479Y-142927661D01*
X116599481Y-142927658D01*
X116602622Y-142924740D01*
X116784713Y-142702268D01*
X116934927Y-142457142D01*
X117022580Y-142257464D01*
X117048757Y-142197830D01*
X117050483Y-142193898D01*
X117129244Y-141917406D01*
X117169751Y-141632784D01*
X117169845Y-141614951D01*
X117171235Y-141349583D01*
X117171235Y-141349576D01*
X117171257Y-141345297D01*
X117133732Y-141060266D01*
X117057871Y-140782964D01*
X116945077Y-140518524D01*
X116797439Y-140271839D01*
X116617687Y-140047472D01*
X116409149Y-139849577D01*
X116175683Y-139681814D01*
X116153843Y-139670250D01*
X116130654Y-139657972D01*
X115921608Y-139547288D01*
X115651627Y-139448489D01*
X115370736Y-139387245D01*
X115339685Y-139384801D01*
X115147718Y-139369693D01*
X115147709Y-139369693D01*
X115145261Y-139369500D01*
X114989729Y-139369500D01*
X114987593Y-139369646D01*
X114987582Y-139369646D01*
X114779452Y-139383835D01*
X114779446Y-139383836D01*
X114775175Y-139384127D01*
X114770980Y-139384996D01*
X114770978Y-139384996D01*
X114634416Y-139413277D01*
X114493658Y-139442426D01*
X114222657Y-139538393D01*
X113967188Y-139670250D01*
X113963687Y-139672711D01*
X113963683Y-139672713D01*
X113953594Y-139679804D01*
X113731977Y-139835559D01*
X113521378Y-140031260D01*
X113339287Y-140253732D01*
X113189073Y-140498858D01*
X113073517Y-140762102D01*
X112994756Y-141038594D01*
X112954249Y-141323216D01*
X112954227Y-141327505D01*
X112954226Y-141327512D01*
X112953064Y-141549395D01*
X112952743Y-141610703D01*
X112268500Y-141610703D01*
X112268500Y-137657286D01*
X117850750Y-137657286D01*
X117867443Y-137827536D01*
X117921440Y-137989856D01*
X117925087Y-137995878D01*
X117925088Y-137995880D01*
X118006406Y-138130154D01*
X118006409Y-138130157D01*
X118010056Y-138136180D01*
X118128889Y-138259234D01*
X118272030Y-138352903D01*
X118278634Y-138355359D01*
X118278636Y-138355360D01*
X118425757Y-138410074D01*
X118425759Y-138410074D01*
X118432367Y-138412532D01*
X118511454Y-138423085D01*
X118594949Y-138434226D01*
X118594953Y-138434226D01*
X118601930Y-138435157D01*
X118608941Y-138434519D01*
X118608945Y-138434519D01*
X118765273Y-138420292D01*
X118765275Y-138420292D01*
X118772292Y-138419653D01*
X118778990Y-138417477D01*
X118778993Y-138417476D01*
X118928289Y-138368966D01*
X118928291Y-138368965D01*
X118934985Y-138366790D01*
X119081924Y-138279197D01*
X119205805Y-138161227D01*
X119219079Y-138141249D01*
X119296570Y-138024614D01*
X119300471Y-138018743D01*
X119341290Y-137911286D01*
X134868750Y-137911286D01*
X134885443Y-138081536D01*
X134939440Y-138243856D01*
X134943087Y-138249878D01*
X134943088Y-138249880D01*
X135024406Y-138384154D01*
X135024409Y-138384157D01*
X135028056Y-138390180D01*
X135146889Y-138513234D01*
X135290030Y-138606903D01*
X135296634Y-138609359D01*
X135296636Y-138609360D01*
X135443757Y-138664074D01*
X135443759Y-138664074D01*
X135450367Y-138666532D01*
X135529454Y-138677085D01*
X135612949Y-138688226D01*
X135612953Y-138688226D01*
X135619930Y-138689157D01*
X135626941Y-138688519D01*
X135626945Y-138688519D01*
X135783273Y-138674292D01*
X135783275Y-138674292D01*
X135790292Y-138673653D01*
X135796990Y-138671477D01*
X135796993Y-138671476D01*
X135946289Y-138622966D01*
X135946291Y-138622965D01*
X135952985Y-138620790D01*
X136099924Y-138533197D01*
X136223805Y-138415227D01*
X136237079Y-138395249D01*
X136314570Y-138278614D01*
X136318471Y-138272743D01*
X136379218Y-138112826D01*
X136395654Y-137995880D01*
X136402475Y-137947347D01*
X136402475Y-137947344D01*
X136403026Y-137943425D01*
X136403325Y-137922000D01*
X136384256Y-137752000D01*
X136362466Y-137689425D01*
X136330314Y-137597097D01*
X136330313Y-137597095D01*
X136327999Y-137590450D01*
X136263713Y-137487570D01*
X136241081Y-137451352D01*
X136237348Y-137445378D01*
X136224159Y-137432096D01*
X136178024Y-137385638D01*
X136116809Y-137323994D01*
X136051539Y-137282573D01*
X135978316Y-137236104D01*
X135978313Y-137236102D01*
X135972373Y-137232333D01*
X135965740Y-137229971D01*
X135817854Y-137177311D01*
X135817849Y-137177310D01*
X135811219Y-137174949D01*
X135804231Y-137174116D01*
X135804228Y-137174115D01*
X135688655Y-137160334D01*
X135641357Y-137154694D01*
X135634354Y-137155430D01*
X135634353Y-137155430D01*
X135589958Y-137160096D01*
X135471228Y-137172575D01*
X135461071Y-137176033D01*
X135315956Y-137225434D01*
X135315953Y-137225435D01*
X135309289Y-137227704D01*
X135163588Y-137317340D01*
X135158557Y-137322267D01*
X135158554Y-137322269D01*
X135136529Y-137343838D01*
X135041366Y-137437028D01*
X135037547Y-137442953D01*
X135037546Y-137442955D01*
X135032135Y-137451352D01*
X134948698Y-137580820D01*
X134946287Y-137587443D01*
X134946286Y-137587446D01*
X134892600Y-137734947D01*
X134892599Y-137734952D01*
X134890190Y-137741570D01*
X134868750Y-137911286D01*
X119341290Y-137911286D01*
X119361218Y-137858826D01*
X119367297Y-137815570D01*
X119384475Y-137693347D01*
X119384475Y-137693344D01*
X119385026Y-137689425D01*
X119385325Y-137668000D01*
X119366256Y-137498000D01*
X119347932Y-137445378D01*
X119312314Y-137343097D01*
X119312313Y-137343095D01*
X119309999Y-137336450D01*
X119219348Y-137191378D01*
X119206159Y-137178096D01*
X119103772Y-137074992D01*
X119098809Y-137069994D01*
X119033539Y-137028573D01*
X118960316Y-136982104D01*
X118960313Y-136982102D01*
X118954373Y-136978333D01*
X118947740Y-136975971D01*
X118799854Y-136923311D01*
X118799849Y-136923310D01*
X118793219Y-136920949D01*
X118786231Y-136920116D01*
X118786228Y-136920115D01*
X118720554Y-136912284D01*
X148700124Y-136912284D01*
X148701103Y-136917981D01*
X148701103Y-136917982D01*
X148725446Y-137059649D01*
X148736181Y-137122126D01*
X148809875Y-137321884D01*
X148875445Y-137432096D01*
X148904509Y-137480947D01*
X148918739Y-137504866D01*
X149059125Y-137664946D01*
X149226333Y-137796762D01*
X149231444Y-137799451D01*
X149231447Y-137799453D01*
X149284824Y-137827536D01*
X149414762Y-137895900D01*
X149420283Y-137897614D01*
X149420287Y-137897616D01*
X149555060Y-137939464D01*
X149618102Y-137959039D01*
X149790982Y-137979500D01*
X149914013Y-137979500D01*
X149999645Y-137971632D01*
X150066270Y-137965510D01*
X150066273Y-137965509D01*
X150072024Y-137964981D01*
X150093093Y-137959039D01*
X150271389Y-137908754D01*
X150271391Y-137908753D01*
X150276948Y-137907186D01*
X150282123Y-137904634D01*
X150282128Y-137904632D01*
X150462727Y-137815570D01*
X150467908Y-137813015D01*
X150638509Y-137685622D01*
X150783037Y-137529271D01*
X150896653Y-137349201D01*
X150975551Y-137151441D01*
X150980305Y-137127544D01*
X151015962Y-136948282D01*
X151015962Y-136948280D01*
X151017089Y-136942615D01*
X151017412Y-136917982D01*
X151019800Y-136735498D01*
X151019876Y-136729716D01*
X151014664Y-136699385D01*
X150984797Y-136525564D01*
X150984796Y-136525561D01*
X150983819Y-136519874D01*
X150910125Y-136320116D01*
X150801261Y-136137134D01*
X150660875Y-135977054D01*
X150493667Y-135845238D01*
X150488556Y-135842549D01*
X150488553Y-135842547D01*
X150383078Y-135787054D01*
X150305238Y-135746100D01*
X150299717Y-135744386D01*
X150299713Y-135744384D01*
X150107421Y-135684676D01*
X150107422Y-135684676D01*
X150101898Y-135682961D01*
X149929018Y-135662500D01*
X149805987Y-135662500D01*
X149720355Y-135670368D01*
X149653730Y-135676490D01*
X149653727Y-135676491D01*
X149647976Y-135677019D01*
X149642417Y-135678587D01*
X149642416Y-135678587D01*
X149448611Y-135733246D01*
X149448609Y-135733247D01*
X149443052Y-135734814D01*
X149437877Y-135737366D01*
X149437872Y-135737368D01*
X149305496Y-135802649D01*
X149252092Y-135828985D01*
X149081491Y-135956378D01*
X148936963Y-136112729D01*
X148823347Y-136292799D01*
X148744449Y-136490559D01*
X148743323Y-136496219D01*
X148743322Y-136496223D01*
X148738618Y-136519874D01*
X148702911Y-136699385D01*
X148702835Y-136705160D01*
X148702835Y-136705164D01*
X148702514Y-136729716D01*
X148700124Y-136912284D01*
X118720554Y-136912284D01*
X118670655Y-136906334D01*
X118623357Y-136900694D01*
X118616354Y-136901430D01*
X118616353Y-136901430D01*
X118571958Y-136906096D01*
X118453228Y-136918575D01*
X118443071Y-136922033D01*
X118297956Y-136971434D01*
X118297953Y-136971435D01*
X118291289Y-136973704D01*
X118145588Y-137063340D01*
X118140557Y-137068267D01*
X118140554Y-137068269D01*
X118133689Y-137074992D01*
X118023366Y-137183028D01*
X118019547Y-137188953D01*
X118019546Y-137188955D01*
X118014135Y-137197352D01*
X117930698Y-137326820D01*
X117928287Y-137333443D01*
X117928286Y-137333446D01*
X117874600Y-137480947D01*
X117874599Y-137480952D01*
X117872190Y-137487570D01*
X117850750Y-137657286D01*
X112268500Y-137657286D01*
X112268500Y-135593669D01*
X163585001Y-135593669D01*
X163585371Y-135600490D01*
X163590895Y-135651352D01*
X163594521Y-135666604D01*
X163639676Y-135787054D01*
X163648214Y-135802649D01*
X163724715Y-135904724D01*
X163737276Y-135917285D01*
X163839351Y-135993786D01*
X163854946Y-136002324D01*
X163975394Y-136047478D01*
X163990649Y-136051105D01*
X164041514Y-136056631D01*
X164048328Y-136057000D01*
X164495885Y-136057000D01*
X164511124Y-136052525D01*
X164512329Y-136051135D01*
X164514000Y-136043452D01*
X164514000Y-136038884D01*
X165022000Y-136038884D01*
X165026475Y-136054123D01*
X165027865Y-136055328D01*
X165035548Y-136056999D01*
X165487669Y-136056999D01*
X165494490Y-136056629D01*
X165545352Y-136051105D01*
X165560604Y-136047479D01*
X165681054Y-136002324D01*
X165696649Y-135993786D01*
X165798724Y-135917285D01*
X165811285Y-135904724D01*
X165887786Y-135802649D01*
X165896324Y-135787054D01*
X165941478Y-135666606D01*
X165945105Y-135651351D01*
X165950631Y-135600486D01*
X165951000Y-135593672D01*
X165951000Y-135146115D01*
X165946525Y-135130876D01*
X165945135Y-135129671D01*
X165937452Y-135128000D01*
X165040115Y-135128000D01*
X165024876Y-135132475D01*
X165023671Y-135133865D01*
X165022000Y-135141548D01*
X165022000Y-136038884D01*
X164514000Y-136038884D01*
X164514000Y-135146115D01*
X164509525Y-135130876D01*
X164508135Y-135129671D01*
X164500452Y-135128000D01*
X163603116Y-135128000D01*
X163587877Y-135132475D01*
X163586672Y-135133865D01*
X163585001Y-135141548D01*
X163585001Y-135593669D01*
X112268500Y-135593669D01*
X112268500Y-134101286D01*
X144012750Y-134101286D01*
X144029443Y-134271536D01*
X144083440Y-134433856D01*
X144087087Y-134439878D01*
X144087088Y-134439880D01*
X144168406Y-134574154D01*
X144168409Y-134574157D01*
X144172056Y-134580180D01*
X144290889Y-134703234D01*
X144434030Y-134796903D01*
X144440634Y-134799359D01*
X144440636Y-134799360D01*
X144587757Y-134854074D01*
X144587759Y-134854074D01*
X144594367Y-134856532D01*
X144673454Y-134867085D01*
X144756949Y-134878226D01*
X144756953Y-134878226D01*
X144763930Y-134879157D01*
X144770941Y-134878519D01*
X144770945Y-134878519D01*
X144927273Y-134864292D01*
X144927275Y-134864292D01*
X144934292Y-134863653D01*
X144940990Y-134861477D01*
X144940993Y-134861476D01*
X144998203Y-134842887D01*
X185579837Y-134842887D01*
X185594063Y-135059933D01*
X185595484Y-135065529D01*
X185595485Y-135065534D01*
X185646184Y-135265158D01*
X185647605Y-135270753D01*
X185738668Y-135468285D01*
X185742001Y-135473001D01*
X185832099Y-135600486D01*
X185864204Y-135645914D01*
X186020009Y-135797692D01*
X186200863Y-135918536D01*
X186206171Y-135920817D01*
X186206172Y-135920817D01*
X186395409Y-136002119D01*
X186395412Y-136002120D01*
X186400712Y-136004397D01*
X186406342Y-136005671D01*
X186591104Y-136047479D01*
X186612860Y-136052402D01*
X186618631Y-136052629D01*
X186618633Y-136052629D01*
X186687336Y-136055328D01*
X186830205Y-136060941D01*
X187045466Y-136029730D01*
X187050930Y-136027875D01*
X187050935Y-136027874D01*
X187245963Y-135961671D01*
X187245968Y-135961669D01*
X187251435Y-135959813D01*
X187441213Y-135853532D01*
X187608446Y-135714446D01*
X187747532Y-135547213D01*
X187853813Y-135357435D01*
X187855669Y-135351968D01*
X187855671Y-135351963D01*
X187921874Y-135156935D01*
X187921875Y-135156930D01*
X187923730Y-135151466D01*
X187954941Y-134936205D01*
X187956570Y-134874000D01*
X187936667Y-134657400D01*
X187916319Y-134585249D01*
X187884606Y-134472805D01*
X187877626Y-134448055D01*
X187781423Y-134252974D01*
X187702673Y-134147514D01*
X187654733Y-134083315D01*
X187654732Y-134083314D01*
X187651280Y-134078691D01*
X187529078Y-133965729D01*
X187492633Y-133904800D01*
X187494914Y-133833840D01*
X187534038Y-133776330D01*
X187540664Y-133770820D01*
X187608446Y-133714446D01*
X187747532Y-133547213D01*
X187843782Y-133375347D01*
X187850989Y-133362478D01*
X187850990Y-133362476D01*
X187853813Y-133357435D01*
X187855669Y-133351968D01*
X187855671Y-133351963D01*
X187921874Y-133156935D01*
X187921875Y-133156930D01*
X187923730Y-133151466D01*
X187954941Y-132936205D01*
X187956570Y-132874000D01*
X187936667Y-132657400D01*
X187921977Y-132605311D01*
X187879195Y-132453619D01*
X187877626Y-132448055D01*
X187781423Y-132252974D01*
X187697938Y-132141173D01*
X187654733Y-132083315D01*
X187654732Y-132083314D01*
X187651280Y-132078691D01*
X187529078Y-131965729D01*
X187492633Y-131904800D01*
X187494914Y-131833840D01*
X187534038Y-131776330D01*
X187604008Y-131718137D01*
X187608446Y-131714446D01*
X187747532Y-131547213D01*
X187853813Y-131357435D01*
X187855669Y-131351968D01*
X187855671Y-131351963D01*
X187921874Y-131156935D01*
X187921875Y-131156930D01*
X187923730Y-131151466D01*
X187954941Y-130936205D01*
X187956570Y-130874000D01*
X187936667Y-130657400D01*
X187877626Y-130448055D01*
X187781423Y-130252974D01*
X187768741Y-130235990D01*
X187654733Y-130083315D01*
X187654732Y-130083314D01*
X187651280Y-130078691D01*
X187529078Y-129965729D01*
X187492633Y-129904800D01*
X187494914Y-129833840D01*
X187534038Y-129776330D01*
X187544598Y-129767548D01*
X187608446Y-129714446D01*
X187747532Y-129547213D01*
X187846838Y-129369890D01*
X187850989Y-129362478D01*
X187850990Y-129362476D01*
X187853813Y-129357435D01*
X187855669Y-129351968D01*
X187855671Y-129351963D01*
X187921874Y-129156935D01*
X187921875Y-129156930D01*
X187923730Y-129151466D01*
X187954941Y-128936205D01*
X187956570Y-128874000D01*
X187936667Y-128657400D01*
X187933001Y-128644399D01*
X187879195Y-128453619D01*
X187877626Y-128448055D01*
X187781423Y-128252974D01*
X187651280Y-128078691D01*
X187529078Y-127965729D01*
X187492633Y-127904800D01*
X187494914Y-127833840D01*
X187534038Y-127776330D01*
X187604008Y-127718137D01*
X187608446Y-127714446D01*
X187747532Y-127547213D01*
X187853813Y-127357435D01*
X187855669Y-127351968D01*
X187855671Y-127351963D01*
X187921874Y-127156935D01*
X187921875Y-127156930D01*
X187923730Y-127151466D01*
X187954941Y-126936205D01*
X187956570Y-126874000D01*
X187936667Y-126657400D01*
X187877626Y-126448055D01*
X187781423Y-126252974D01*
X187757894Y-126221464D01*
X187654733Y-126083315D01*
X187654732Y-126083314D01*
X187651280Y-126078691D01*
X187644102Y-126072055D01*
X187529078Y-125965729D01*
X187492633Y-125904800D01*
X187494914Y-125833840D01*
X187534038Y-125776330D01*
X187604008Y-125718137D01*
X187608446Y-125714446D01*
X187747532Y-125547213D01*
X187853813Y-125357435D01*
X187855669Y-125351968D01*
X187855671Y-125351963D01*
X187921874Y-125156935D01*
X187921875Y-125156930D01*
X187923730Y-125151466D01*
X187954941Y-124936205D01*
X187956570Y-124874000D01*
X187936667Y-124657400D01*
X187877626Y-124448055D01*
X187781423Y-124252974D01*
X187765274Y-124231347D01*
X187654733Y-124083315D01*
X187654732Y-124083314D01*
X187651280Y-124078691D01*
X187629768Y-124058805D01*
X187529078Y-123965729D01*
X187492633Y-123904800D01*
X187494914Y-123833840D01*
X187534038Y-123776330D01*
X187554668Y-123759173D01*
X187608446Y-123714446D01*
X187747532Y-123547213D01*
X187845042Y-123373097D01*
X187850989Y-123362478D01*
X187850990Y-123362476D01*
X187853813Y-123357435D01*
X187855669Y-123351968D01*
X187855671Y-123351963D01*
X187921874Y-123156935D01*
X187921875Y-123156930D01*
X187923730Y-123151466D01*
X187954941Y-122936205D01*
X187956570Y-122874000D01*
X187936667Y-122657400D01*
X187921862Y-122604903D01*
X187879195Y-122453619D01*
X187877626Y-122448055D01*
X187781423Y-122252974D01*
X187768131Y-122235173D01*
X187654733Y-122083315D01*
X187654732Y-122083314D01*
X187651280Y-122078691D01*
X187529078Y-121965729D01*
X187492633Y-121904800D01*
X187494914Y-121833840D01*
X187534038Y-121776330D01*
X187557283Y-121756998D01*
X187608446Y-121714446D01*
X187747532Y-121547213D01*
X187853813Y-121357435D01*
X187855669Y-121351968D01*
X187855671Y-121351963D01*
X187921874Y-121156935D01*
X187921875Y-121156930D01*
X187923730Y-121151466D01*
X187954941Y-120936205D01*
X187956570Y-120874000D01*
X187936667Y-120657400D01*
X187877626Y-120448055D01*
X187781423Y-120252974D01*
X187651280Y-120078691D01*
X187529078Y-119965729D01*
X187492633Y-119904800D01*
X187494914Y-119833840D01*
X187534038Y-119776330D01*
X187604008Y-119718137D01*
X187608446Y-119714446D01*
X187747532Y-119547213D01*
X187853813Y-119357435D01*
X187855669Y-119351968D01*
X187855671Y-119351963D01*
X187921874Y-119156935D01*
X187921875Y-119156930D01*
X187923730Y-119151466D01*
X187954941Y-118936205D01*
X187956570Y-118874000D01*
X187936667Y-118657400D01*
X187919936Y-118598074D01*
X187879195Y-118453619D01*
X187877626Y-118448055D01*
X187781423Y-118252974D01*
X187723987Y-118176057D01*
X187654733Y-118083315D01*
X187654732Y-118083314D01*
X187651280Y-118078691D01*
X187529078Y-117965729D01*
X187492633Y-117904800D01*
X187494914Y-117833840D01*
X187534038Y-117776330D01*
X187535584Y-117775045D01*
X187608446Y-117714446D01*
X187747532Y-117547213D01*
X187853813Y-117357435D01*
X187855669Y-117351968D01*
X187855671Y-117351963D01*
X187921874Y-117156935D01*
X187921875Y-117156930D01*
X187923730Y-117151466D01*
X187954941Y-116936205D01*
X187956570Y-116874000D01*
X187936667Y-116657400D01*
X187934985Y-116651434D01*
X187891146Y-116495994D01*
X187877626Y-116448055D01*
X187781423Y-116252974D01*
X187709133Y-116156165D01*
X187654733Y-116083315D01*
X187654732Y-116083314D01*
X187651280Y-116078691D01*
X187612939Y-116043249D01*
X187495796Y-115934963D01*
X187495793Y-115934961D01*
X187491556Y-115931044D01*
X187307599Y-115814976D01*
X187105572Y-115734376D01*
X186892239Y-115691941D01*
X186886464Y-115691865D01*
X186886460Y-115691865D01*
X186777419Y-115690438D01*
X186674746Y-115689094D01*
X186669049Y-115690073D01*
X186669048Y-115690073D01*
X186466065Y-115724952D01*
X186466062Y-115724953D01*
X186460375Y-115725930D01*
X186256307Y-115801214D01*
X186175403Y-115849347D01*
X186103953Y-115891856D01*
X186069376Y-115912427D01*
X185905842Y-116055842D01*
X185902270Y-116060373D01*
X185807020Y-116181197D01*
X185771181Y-116226658D01*
X185768493Y-116231767D01*
X185747870Y-116270966D01*
X185669905Y-116419154D01*
X185663803Y-116438805D01*
X185613456Y-116600949D01*
X185605403Y-116626882D01*
X185579837Y-116842887D01*
X185594063Y-117059933D01*
X185595484Y-117065529D01*
X185595485Y-117065534D01*
X185640975Y-117244647D01*
X185647605Y-117270753D01*
X185650022Y-117275996D01*
X185736250Y-117463040D01*
X185738668Y-117468285D01*
X185742001Y-117473001D01*
X185837921Y-117608724D01*
X185864204Y-117645914D01*
X186000722Y-117778903D01*
X186007741Y-117785741D01*
X186042579Y-117847602D01*
X186038442Y-117918478D01*
X186002899Y-117970726D01*
X185905842Y-118055842D01*
X185902270Y-118060373D01*
X185804905Y-118183880D01*
X185771181Y-118226658D01*
X185669905Y-118419154D01*
X185668192Y-118424671D01*
X185613296Y-118601464D01*
X185605403Y-118626882D01*
X185579837Y-118842887D01*
X185594063Y-119059933D01*
X185595484Y-119065529D01*
X185595485Y-119065534D01*
X185639758Y-119239856D01*
X185647605Y-119270753D01*
X185650022Y-119275996D01*
X185676833Y-119334154D01*
X185738668Y-119468285D01*
X185749207Y-119483197D01*
X185859429Y-119639157D01*
X185864204Y-119645914D01*
X185868346Y-119649949D01*
X186007741Y-119785741D01*
X186042579Y-119847602D01*
X186038442Y-119918478D01*
X186002899Y-119970726D01*
X185905842Y-120055842D01*
X185771181Y-120226658D01*
X185669905Y-120419154D01*
X185605403Y-120626882D01*
X185579837Y-120842887D01*
X185594063Y-121059933D01*
X185595484Y-121065529D01*
X185595485Y-121065534D01*
X185638297Y-121234104D01*
X185647605Y-121270753D01*
X185738668Y-121468285D01*
X185742001Y-121473001D01*
X185816787Y-121578820D01*
X185864204Y-121645914D01*
X185868346Y-121649949D01*
X186007741Y-121785741D01*
X186042579Y-121847602D01*
X186038442Y-121918478D01*
X186002899Y-121970726D01*
X185905842Y-122055842D01*
X185902270Y-122060373D01*
X185824340Y-122159227D01*
X185771181Y-122226658D01*
X185669905Y-122419154D01*
X185668192Y-122424671D01*
X185607916Y-122618790D01*
X185605403Y-122626882D01*
X185579837Y-122842887D01*
X185594063Y-123059933D01*
X185595484Y-123065529D01*
X185595485Y-123065534D01*
X185634450Y-123218955D01*
X185647605Y-123270753D01*
X185650022Y-123275996D01*
X185729299Y-123447962D01*
X185738668Y-123468285D01*
X185742001Y-123473001D01*
X185838979Y-123610221D01*
X185864204Y-123645914D01*
X185949883Y-123729378D01*
X186007741Y-123785741D01*
X186042579Y-123847602D01*
X186038442Y-123918478D01*
X186002899Y-123970726D01*
X185905842Y-124055842D01*
X185902270Y-124060373D01*
X185775682Y-124220949D01*
X185771181Y-124226658D01*
X185768493Y-124231767D01*
X185736229Y-124293092D01*
X185669905Y-124419154D01*
X185661111Y-124447476D01*
X185607263Y-124620893D01*
X185605403Y-124626882D01*
X185579837Y-124842887D01*
X185594063Y-125059933D01*
X185595484Y-125065529D01*
X185595485Y-125065534D01*
X185646184Y-125265158D01*
X185647605Y-125270753D01*
X185650022Y-125275996D01*
X185721089Y-125430154D01*
X185738668Y-125468285D01*
X185742001Y-125473001D01*
X185856870Y-125635536D01*
X185864204Y-125645914D01*
X185868346Y-125649949D01*
X186007741Y-125785741D01*
X186042579Y-125847602D01*
X186038442Y-125918478D01*
X186002899Y-125970726D01*
X185905842Y-126055842D01*
X185902270Y-126060373D01*
X185775276Y-126221464D01*
X185771181Y-126226658D01*
X185768493Y-126231767D01*
X185761932Y-126244238D01*
X185669905Y-126419154D01*
X185668192Y-126424671D01*
X185645126Y-126498956D01*
X185605403Y-126626882D01*
X185579837Y-126842887D01*
X185594063Y-127059933D01*
X185595484Y-127065529D01*
X185595485Y-127065534D01*
X185646184Y-127265158D01*
X185647605Y-127270753D01*
X185738668Y-127468285D01*
X185864204Y-127645914D01*
X185868346Y-127649949D01*
X186007741Y-127785741D01*
X186042579Y-127847602D01*
X186038442Y-127918478D01*
X186002899Y-127970726D01*
X185905842Y-128055842D01*
X185771181Y-128226658D01*
X185669905Y-128419154D01*
X185668192Y-128424671D01*
X185641339Y-128511152D01*
X185605403Y-128626882D01*
X185579837Y-128842887D01*
X185594063Y-129059933D01*
X185595484Y-129065529D01*
X185595485Y-129065534D01*
X185622142Y-129170494D01*
X185647605Y-129270753D01*
X185650022Y-129275996D01*
X185699987Y-129384378D01*
X185738668Y-129468285D01*
X185742001Y-129473001D01*
X185835596Y-129605434D01*
X185864204Y-129645914D01*
X185868346Y-129649949D01*
X186007741Y-129785741D01*
X186042579Y-129847602D01*
X186038442Y-129918478D01*
X186002899Y-129970726D01*
X185905842Y-130055842D01*
X185902270Y-130060373D01*
X185845804Y-130132000D01*
X185771181Y-130226658D01*
X185669905Y-130419154D01*
X185668192Y-130424671D01*
X185608418Y-130617173D01*
X185605403Y-130626882D01*
X185579837Y-130842887D01*
X185594063Y-131059933D01*
X185595484Y-131065529D01*
X185595485Y-131065534D01*
X185635787Y-131224221D01*
X185647605Y-131270753D01*
X185738668Y-131468285D01*
X185864204Y-131645914D01*
X185868346Y-131649949D01*
X186007741Y-131785741D01*
X186042579Y-131847602D01*
X186038442Y-131918478D01*
X186002899Y-131970726D01*
X185905842Y-132055842D01*
X185902270Y-132060373D01*
X185805903Y-132182614D01*
X185771181Y-132226658D01*
X185669905Y-132419154D01*
X185663182Y-132440805D01*
X185612867Y-132602845D01*
X185605403Y-132626882D01*
X185579837Y-132842887D01*
X185594063Y-133059933D01*
X185595484Y-133065529D01*
X185595485Y-133065534D01*
X185646142Y-133264992D01*
X185647605Y-133270753D01*
X185650022Y-133275996D01*
X185717484Y-133422333D01*
X185738668Y-133468285D01*
X185742001Y-133473001D01*
X185850857Y-133627028D01*
X185864204Y-133645914D01*
X185868346Y-133649949D01*
X186007741Y-133785741D01*
X186042579Y-133847602D01*
X186038442Y-133918478D01*
X186002899Y-133970726D01*
X185905842Y-134055842D01*
X185902270Y-134060373D01*
X185780676Y-134214614D01*
X185771181Y-134226658D01*
X185669905Y-134419154D01*
X185668192Y-134424671D01*
X185608059Y-134618329D01*
X185605403Y-134626882D01*
X185579837Y-134842887D01*
X144998203Y-134842887D01*
X145090289Y-134812966D01*
X145090291Y-134812965D01*
X145096985Y-134810790D01*
X145243924Y-134723197D01*
X145367805Y-134605227D01*
X145381079Y-134585249D01*
X145458570Y-134468614D01*
X145462471Y-134462743D01*
X145523218Y-134302826D01*
X145539654Y-134185880D01*
X145546475Y-134137347D01*
X145546475Y-134137344D01*
X145547026Y-134133425D01*
X145547325Y-134112000D01*
X145528256Y-133942000D01*
X145506466Y-133879425D01*
X145474314Y-133787097D01*
X145474313Y-133787095D01*
X145471999Y-133780450D01*
X145407713Y-133677570D01*
X145385081Y-133641352D01*
X145381348Y-133635378D01*
X145368159Y-133622096D01*
X145265772Y-133518992D01*
X145260809Y-133513994D01*
X145195539Y-133472573D01*
X145122316Y-133426104D01*
X145122313Y-133426102D01*
X145116373Y-133422333D01*
X145109740Y-133419971D01*
X144961854Y-133367311D01*
X144961849Y-133367310D01*
X144955219Y-133364949D01*
X144948231Y-133364116D01*
X144948228Y-133364115D01*
X144829854Y-133350000D01*
X144785357Y-133344694D01*
X144778354Y-133345430D01*
X144778353Y-133345430D01*
X144734873Y-133350000D01*
X144615228Y-133362575D01*
X144605071Y-133366033D01*
X144459956Y-133415434D01*
X144459953Y-133415435D01*
X144453289Y-133417704D01*
X144307588Y-133507340D01*
X144302557Y-133512267D01*
X144302554Y-133512269D01*
X144243573Y-133570028D01*
X144185366Y-133627028D01*
X144181547Y-133632953D01*
X144181546Y-133632955D01*
X144156476Y-133671856D01*
X144092698Y-133770820D01*
X144090287Y-133777443D01*
X144090286Y-133777446D01*
X144036600Y-133924947D01*
X144036599Y-133924952D01*
X144034190Y-133931570D01*
X144012750Y-134101286D01*
X112268500Y-134101286D01*
X112268500Y-133339286D01*
X152140750Y-133339286D01*
X152157443Y-133509536D01*
X152211440Y-133671856D01*
X152215087Y-133677878D01*
X152215088Y-133677880D01*
X152296406Y-133812154D01*
X152296409Y-133812157D01*
X152300056Y-133818180D01*
X152418889Y-133941234D01*
X152430754Y-133948998D01*
X152554125Y-134029730D01*
X152562030Y-134034903D01*
X152568634Y-134037359D01*
X152568636Y-134037360D01*
X152715757Y-134092074D01*
X152715759Y-134092074D01*
X152722367Y-134094532D01*
X152801454Y-134105085D01*
X152884949Y-134116226D01*
X152884953Y-134116226D01*
X152891930Y-134117157D01*
X152898941Y-134116519D01*
X152898945Y-134116519D01*
X153055273Y-134102292D01*
X153055275Y-134102292D01*
X153062292Y-134101653D01*
X153068990Y-134099477D01*
X153068993Y-134099476D01*
X153218289Y-134050966D01*
X153218291Y-134050965D01*
X153224985Y-134048790D01*
X153299455Y-134004397D01*
X153365872Y-133964805D01*
X153365874Y-133964804D01*
X153371924Y-133961197D01*
X153495805Y-133843227D01*
X153504116Y-133830719D01*
X153578914Y-133718137D01*
X153590471Y-133700743D01*
X153651218Y-133540826D01*
X153652304Y-133533097D01*
X153674475Y-133375347D01*
X153674475Y-133375344D01*
X153675026Y-133371425D01*
X153675325Y-133350000D01*
X153656256Y-133180000D01*
X153653507Y-133172104D01*
X153602314Y-133025097D01*
X153602313Y-133025095D01*
X153599999Y-133018450D01*
X153509348Y-132873378D01*
X153496159Y-132860096D01*
X153479070Y-132842887D01*
X163579837Y-132842887D01*
X163594063Y-133059933D01*
X163595484Y-133065529D01*
X163595485Y-133065534D01*
X163646142Y-133264992D01*
X163647605Y-133270753D01*
X163650022Y-133275996D01*
X163717484Y-133422333D01*
X163738668Y-133468285D01*
X163834919Y-133604477D01*
X163857899Y-133671649D01*
X163840915Y-133740584D01*
X163807586Y-133778022D01*
X163737272Y-133830719D01*
X163724715Y-133843276D01*
X163648214Y-133945351D01*
X163639676Y-133960946D01*
X163594522Y-134081394D01*
X163590895Y-134096649D01*
X163585369Y-134147514D01*
X163585000Y-134154328D01*
X163585000Y-134601885D01*
X163589475Y-134617124D01*
X163590865Y-134618329D01*
X163598548Y-134620000D01*
X165932884Y-134620000D01*
X165948123Y-134615525D01*
X165949328Y-134614135D01*
X165950999Y-134606452D01*
X165950999Y-134154331D01*
X165950629Y-134147510D01*
X165945105Y-134096648D01*
X165941479Y-134081396D01*
X165896324Y-133960946D01*
X165887786Y-133945351D01*
X165814290Y-133847286D01*
X183128750Y-133847286D01*
X183145443Y-134017536D01*
X183199440Y-134179856D01*
X183203087Y-134185878D01*
X183203088Y-134185880D01*
X183284406Y-134320154D01*
X183284409Y-134320157D01*
X183288056Y-134326180D01*
X183406889Y-134449234D01*
X183550030Y-134542903D01*
X183556634Y-134545359D01*
X183556636Y-134545360D01*
X183703757Y-134600074D01*
X183703759Y-134600074D01*
X183710367Y-134602532D01*
X183789454Y-134613085D01*
X183872949Y-134624226D01*
X183872953Y-134624226D01*
X183879930Y-134625157D01*
X183886941Y-134624519D01*
X183886945Y-134624519D01*
X184043273Y-134610292D01*
X184043275Y-134610292D01*
X184050292Y-134609653D01*
X184056990Y-134607477D01*
X184056993Y-134607476D01*
X184206289Y-134558966D01*
X184206291Y-134558965D01*
X184212985Y-134556790D01*
X184359924Y-134469197D01*
X184483805Y-134351227D01*
X184497079Y-134331249D01*
X184566568Y-134226658D01*
X184578471Y-134208743D01*
X184639218Y-134048826D01*
X184640198Y-134041854D01*
X184662475Y-133883347D01*
X184662475Y-133883344D01*
X184663026Y-133879425D01*
X184663325Y-133858000D01*
X184644256Y-133688000D01*
X184638635Y-133671856D01*
X184590314Y-133533097D01*
X184590313Y-133533095D01*
X184587999Y-133526450D01*
X184551654Y-133468285D01*
X184501081Y-133387352D01*
X184497348Y-133381378D01*
X184484159Y-133368096D01*
X184438024Y-133321638D01*
X184376809Y-133259994D01*
X184261785Y-133186998D01*
X184238316Y-133172104D01*
X184238313Y-133172102D01*
X184232373Y-133168333D01*
X184225740Y-133165971D01*
X184077854Y-133113311D01*
X184077849Y-133113310D01*
X184071219Y-133110949D01*
X184064231Y-133110116D01*
X184064228Y-133110115D01*
X183948655Y-133096334D01*
X183901357Y-133090694D01*
X183894354Y-133091430D01*
X183894353Y-133091430D01*
X183849958Y-133096096D01*
X183731228Y-133108575D01*
X183721071Y-133112033D01*
X183575956Y-133161434D01*
X183575953Y-133161435D01*
X183569289Y-133163704D01*
X183423588Y-133253340D01*
X183418557Y-133258267D01*
X183418554Y-133258269D01*
X183405806Y-133270753D01*
X183301366Y-133373028D01*
X183297547Y-133378953D01*
X183297546Y-133378955D01*
X183292135Y-133387352D01*
X183208698Y-133516820D01*
X183206287Y-133523443D01*
X183206286Y-133523446D01*
X183152600Y-133670947D01*
X183152599Y-133670952D01*
X183150190Y-133677570D01*
X183128750Y-133847286D01*
X165814290Y-133847286D01*
X165811285Y-133843276D01*
X165798724Y-133830715D01*
X165728002Y-133777712D01*
X165685487Y-133720853D01*
X165680461Y-133650035D01*
X165706693Y-133596317D01*
X165743834Y-133551659D01*
X165747532Y-133547213D01*
X165843782Y-133375347D01*
X165850989Y-133362478D01*
X165850990Y-133362476D01*
X165853813Y-133357435D01*
X165855669Y-133351968D01*
X165855671Y-133351963D01*
X165921874Y-133156935D01*
X165921875Y-133156930D01*
X165923730Y-133151466D01*
X165954941Y-132936205D01*
X165956570Y-132874000D01*
X165936667Y-132657400D01*
X165921977Y-132605311D01*
X165879195Y-132453619D01*
X165877626Y-132448055D01*
X165781423Y-132252974D01*
X165697938Y-132141173D01*
X165654733Y-132083315D01*
X165654732Y-132083314D01*
X165651280Y-132078691D01*
X165529078Y-131965729D01*
X165492633Y-131904800D01*
X165494914Y-131833840D01*
X165534038Y-131776330D01*
X165604008Y-131718137D01*
X165608446Y-131714446D01*
X165747532Y-131547213D01*
X165853813Y-131357435D01*
X165855669Y-131351968D01*
X165855671Y-131351963D01*
X165921874Y-131156935D01*
X165921875Y-131156930D01*
X165923730Y-131151466D01*
X165954941Y-130936205D01*
X165956570Y-130874000D01*
X165936667Y-130657400D01*
X165877626Y-130448055D01*
X165781423Y-130252974D01*
X165768741Y-130235990D01*
X165654733Y-130083315D01*
X165654732Y-130083314D01*
X165651280Y-130078691D01*
X165529078Y-129965729D01*
X165492633Y-129904800D01*
X165494914Y-129833840D01*
X165534038Y-129776330D01*
X165544598Y-129767548D01*
X165608446Y-129714446D01*
X165747532Y-129547213D01*
X165846838Y-129369890D01*
X165850989Y-129362478D01*
X165850990Y-129362476D01*
X165853813Y-129357435D01*
X165855669Y-129351968D01*
X165855671Y-129351963D01*
X165921874Y-129156935D01*
X165921875Y-129156930D01*
X165923730Y-129151466D01*
X165954941Y-128936205D01*
X165956570Y-128874000D01*
X165936667Y-128657400D01*
X165933001Y-128644399D01*
X165879195Y-128453619D01*
X165877626Y-128448055D01*
X165781423Y-128252974D01*
X165651280Y-128078691D01*
X165529078Y-127965729D01*
X165492633Y-127904800D01*
X165494914Y-127833840D01*
X165534038Y-127776330D01*
X165604008Y-127718137D01*
X165608446Y-127714446D01*
X165747532Y-127547213D01*
X165853813Y-127357435D01*
X165855669Y-127351968D01*
X165855671Y-127351963D01*
X165921874Y-127156935D01*
X165921875Y-127156930D01*
X165923730Y-127151466D01*
X165954941Y-126936205D01*
X165956570Y-126874000D01*
X165936667Y-126657400D01*
X165877626Y-126448055D01*
X165781423Y-126252974D01*
X165757894Y-126221464D01*
X165654733Y-126083315D01*
X165654732Y-126083314D01*
X165651280Y-126078691D01*
X165644102Y-126072055D01*
X165529078Y-125965729D01*
X165492633Y-125904800D01*
X165494914Y-125833840D01*
X165534038Y-125776330D01*
X165604008Y-125718137D01*
X165608446Y-125714446D01*
X165747532Y-125547213D01*
X165853813Y-125357435D01*
X165855669Y-125351968D01*
X165855671Y-125351963D01*
X165921874Y-125156935D01*
X165921875Y-125156930D01*
X165923730Y-125151466D01*
X165951884Y-124957286D01*
X174492750Y-124957286D01*
X174509443Y-125127536D01*
X174563440Y-125289856D01*
X174567087Y-125295878D01*
X174567088Y-125295880D01*
X174648406Y-125430154D01*
X174648409Y-125430157D01*
X174652056Y-125436180D01*
X174770889Y-125559234D01*
X174776785Y-125563092D01*
X174903350Y-125645914D01*
X174914030Y-125652903D01*
X174920634Y-125655359D01*
X174920636Y-125655360D01*
X175067757Y-125710074D01*
X175067759Y-125710074D01*
X175074367Y-125712532D01*
X175153454Y-125723085D01*
X175236949Y-125734226D01*
X175236953Y-125734226D01*
X175243930Y-125735157D01*
X175250941Y-125734519D01*
X175250945Y-125734519D01*
X175407273Y-125720292D01*
X175407275Y-125720292D01*
X175414292Y-125719653D01*
X175420990Y-125717477D01*
X175420993Y-125717476D01*
X175570289Y-125668966D01*
X175570291Y-125668965D01*
X175576985Y-125666790D01*
X175699293Y-125593880D01*
X175717872Y-125582805D01*
X175717874Y-125582804D01*
X175723924Y-125579197D01*
X175847805Y-125461227D01*
X175861079Y-125441249D01*
X175895138Y-125389985D01*
X175942471Y-125318743D01*
X176003218Y-125158826D01*
X176004198Y-125151854D01*
X176026475Y-124993347D01*
X176026475Y-124993344D01*
X176027026Y-124989425D01*
X176027325Y-124968000D01*
X176008256Y-124798000D01*
X176005507Y-124790104D01*
X175954314Y-124643097D01*
X175954313Y-124643095D01*
X175951999Y-124636450D01*
X175861348Y-124491378D01*
X175848159Y-124478096D01*
X175767418Y-124396790D01*
X175740809Y-124369994D01*
X175650693Y-124312805D01*
X175602316Y-124282104D01*
X175602313Y-124282102D01*
X175596373Y-124278333D01*
X175589740Y-124275971D01*
X175441854Y-124223311D01*
X175441849Y-124223310D01*
X175435219Y-124220949D01*
X175428231Y-124220116D01*
X175428228Y-124220115D01*
X175309854Y-124206000D01*
X175265357Y-124200694D01*
X175258354Y-124201430D01*
X175258353Y-124201430D01*
X175214873Y-124206000D01*
X175095228Y-124218575D01*
X175085071Y-124222033D01*
X174939956Y-124271434D01*
X174939953Y-124271435D01*
X174933289Y-124273704D01*
X174787588Y-124363340D01*
X174782557Y-124368267D01*
X174782554Y-124368269D01*
X174735809Y-124414045D01*
X174665366Y-124483028D01*
X174661547Y-124488953D01*
X174661546Y-124488955D01*
X174656135Y-124497352D01*
X174572698Y-124626820D01*
X174570287Y-124633443D01*
X174570286Y-124633446D01*
X174516600Y-124780947D01*
X174516599Y-124780952D01*
X174514190Y-124787570D01*
X174492750Y-124957286D01*
X165951884Y-124957286D01*
X165954941Y-124936205D01*
X165956570Y-124874000D01*
X165936667Y-124657400D01*
X165877626Y-124448055D01*
X165781423Y-124252974D01*
X165765274Y-124231347D01*
X165654733Y-124083315D01*
X165654732Y-124083314D01*
X165651280Y-124078691D01*
X165629768Y-124058805D01*
X165529078Y-123965729D01*
X165492633Y-123904800D01*
X165494914Y-123833840D01*
X165534038Y-123776330D01*
X165554668Y-123759173D01*
X165608446Y-123714446D01*
X165747532Y-123547213D01*
X165845042Y-123373097D01*
X165850989Y-123362478D01*
X165850990Y-123362476D01*
X165853813Y-123357435D01*
X165855669Y-123351968D01*
X165855671Y-123351963D01*
X165921874Y-123156935D01*
X165921875Y-123156930D01*
X165923730Y-123151466D01*
X165954941Y-122936205D01*
X165956570Y-122874000D01*
X165936667Y-122657400D01*
X165921862Y-122604903D01*
X165879195Y-122453619D01*
X165877626Y-122448055D01*
X165781423Y-122252974D01*
X165768131Y-122235173D01*
X165654733Y-122083315D01*
X165654732Y-122083314D01*
X165651280Y-122078691D01*
X165529078Y-121965729D01*
X165492633Y-121904800D01*
X165494914Y-121833840D01*
X165534038Y-121776330D01*
X165557283Y-121756998D01*
X165608446Y-121714446D01*
X165747532Y-121547213D01*
X165853813Y-121357435D01*
X165855669Y-121351968D01*
X165855671Y-121351963D01*
X165921874Y-121156935D01*
X165921875Y-121156930D01*
X165923730Y-121151466D01*
X165954941Y-120936205D01*
X165956570Y-120874000D01*
X165936667Y-120657400D01*
X165877626Y-120448055D01*
X165781423Y-120252974D01*
X165651280Y-120078691D01*
X165529078Y-119965729D01*
X165492633Y-119904800D01*
X165494914Y-119833840D01*
X165534038Y-119776330D01*
X165604008Y-119718137D01*
X165608446Y-119714446D01*
X165747532Y-119547213D01*
X165853813Y-119357435D01*
X165855669Y-119351968D01*
X165855671Y-119351963D01*
X165921874Y-119156935D01*
X165921875Y-119156930D01*
X165923730Y-119151466D01*
X165954941Y-118936205D01*
X165956570Y-118874000D01*
X165936667Y-118657400D01*
X165919936Y-118598074D01*
X165879195Y-118453619D01*
X165877626Y-118448055D01*
X165781423Y-118252974D01*
X165723987Y-118176057D01*
X165654733Y-118083315D01*
X165654732Y-118083314D01*
X165651280Y-118078691D01*
X165529078Y-117965729D01*
X165492633Y-117904800D01*
X165494914Y-117833840D01*
X165534038Y-117776330D01*
X165535584Y-117775045D01*
X165608446Y-117714446D01*
X165747532Y-117547213D01*
X165853813Y-117357435D01*
X165855669Y-117351968D01*
X165855671Y-117351963D01*
X165921874Y-117156935D01*
X165921875Y-117156930D01*
X165923730Y-117151466D01*
X165954941Y-116936205D01*
X165956570Y-116874000D01*
X165936667Y-116657400D01*
X165934985Y-116651434D01*
X165891146Y-116495994D01*
X165877626Y-116448055D01*
X165781423Y-116252974D01*
X165709133Y-116156165D01*
X165654733Y-116083315D01*
X165654732Y-116083314D01*
X165651280Y-116078691D01*
X165612939Y-116043249D01*
X165495796Y-115934963D01*
X165495793Y-115934961D01*
X165491556Y-115931044D01*
X165307599Y-115814976D01*
X165105572Y-115734376D01*
X164892239Y-115691941D01*
X164886464Y-115691865D01*
X164886460Y-115691865D01*
X164777419Y-115690438D01*
X164674746Y-115689094D01*
X164669049Y-115690073D01*
X164669048Y-115690073D01*
X164466065Y-115724952D01*
X164466062Y-115724953D01*
X164460375Y-115725930D01*
X164256307Y-115801214D01*
X164175403Y-115849347D01*
X164103953Y-115891856D01*
X164069376Y-115912427D01*
X163905842Y-116055842D01*
X163902270Y-116060373D01*
X163807020Y-116181197D01*
X163771181Y-116226658D01*
X163768493Y-116231767D01*
X163747870Y-116270966D01*
X163669905Y-116419154D01*
X163663803Y-116438805D01*
X163613456Y-116600949D01*
X163605403Y-116626882D01*
X163579837Y-116842887D01*
X163594063Y-117059933D01*
X163595484Y-117065529D01*
X163595485Y-117065534D01*
X163640975Y-117244647D01*
X163647605Y-117270753D01*
X163650022Y-117275996D01*
X163736250Y-117463040D01*
X163738668Y-117468285D01*
X163742001Y-117473001D01*
X163837921Y-117608724D01*
X163864204Y-117645914D01*
X164000722Y-117778903D01*
X164007741Y-117785741D01*
X164042579Y-117847602D01*
X164038442Y-117918478D01*
X164002899Y-117970726D01*
X163905842Y-118055842D01*
X163902270Y-118060373D01*
X163804905Y-118183880D01*
X163771181Y-118226658D01*
X163669905Y-118419154D01*
X163668192Y-118424671D01*
X163613296Y-118601464D01*
X163605403Y-118626882D01*
X163579837Y-118842887D01*
X163594063Y-119059933D01*
X163595484Y-119065529D01*
X163595485Y-119065534D01*
X163639758Y-119239856D01*
X163647605Y-119270753D01*
X163650022Y-119275996D01*
X163676833Y-119334154D01*
X163738668Y-119468285D01*
X163749207Y-119483197D01*
X163859429Y-119639157D01*
X163864204Y-119645914D01*
X163868346Y-119649949D01*
X164007741Y-119785741D01*
X164042579Y-119847602D01*
X164038442Y-119918478D01*
X164002899Y-119970726D01*
X163905842Y-120055842D01*
X163771181Y-120226658D01*
X163669905Y-120419154D01*
X163605403Y-120626882D01*
X163579837Y-120842887D01*
X163594063Y-121059933D01*
X163595484Y-121065529D01*
X163595485Y-121065534D01*
X163638297Y-121234104D01*
X163647605Y-121270753D01*
X163738668Y-121468285D01*
X163742001Y-121473001D01*
X163816787Y-121578820D01*
X163864204Y-121645914D01*
X163868346Y-121649949D01*
X164007741Y-121785741D01*
X164042579Y-121847602D01*
X164038442Y-121918478D01*
X164002899Y-121970726D01*
X163905842Y-122055842D01*
X163902270Y-122060373D01*
X163824340Y-122159227D01*
X163771181Y-122226658D01*
X163669905Y-122419154D01*
X163668192Y-122424671D01*
X163607916Y-122618790D01*
X163605403Y-122626882D01*
X163579837Y-122842887D01*
X163594063Y-123059933D01*
X163595484Y-123065529D01*
X163595485Y-123065534D01*
X163634450Y-123218955D01*
X163647605Y-123270753D01*
X163650022Y-123275996D01*
X163729299Y-123447962D01*
X163738668Y-123468285D01*
X163742001Y-123473001D01*
X163838979Y-123610221D01*
X163864204Y-123645914D01*
X163949883Y-123729378D01*
X164007741Y-123785741D01*
X164042579Y-123847602D01*
X164038442Y-123918478D01*
X164002899Y-123970726D01*
X163905842Y-124055842D01*
X163902270Y-124060373D01*
X163775682Y-124220949D01*
X163771181Y-124226658D01*
X163768493Y-124231767D01*
X163736229Y-124293092D01*
X163669905Y-124419154D01*
X163661111Y-124447476D01*
X163607263Y-124620893D01*
X163605403Y-124626882D01*
X163579837Y-124842887D01*
X163594063Y-125059933D01*
X163595484Y-125065529D01*
X163595485Y-125065534D01*
X163646184Y-125265158D01*
X163647605Y-125270753D01*
X163650022Y-125275996D01*
X163721089Y-125430154D01*
X163738668Y-125468285D01*
X163742001Y-125473001D01*
X163856870Y-125635536D01*
X163864204Y-125645914D01*
X163868346Y-125649949D01*
X164007741Y-125785741D01*
X164042579Y-125847602D01*
X164038442Y-125918478D01*
X164002899Y-125970726D01*
X163905842Y-126055842D01*
X163902270Y-126060373D01*
X163775276Y-126221464D01*
X163771181Y-126226658D01*
X163768493Y-126231767D01*
X163761932Y-126244238D01*
X163669905Y-126419154D01*
X163668192Y-126424671D01*
X163645126Y-126498956D01*
X163605403Y-126626882D01*
X163579837Y-126842887D01*
X163594063Y-127059933D01*
X163595484Y-127065529D01*
X163595485Y-127065534D01*
X163646184Y-127265158D01*
X163647605Y-127270753D01*
X163738668Y-127468285D01*
X163864204Y-127645914D01*
X163868346Y-127649949D01*
X164007741Y-127785741D01*
X164042579Y-127847602D01*
X164038442Y-127918478D01*
X164002899Y-127970726D01*
X163905842Y-128055842D01*
X163771181Y-128226658D01*
X163669905Y-128419154D01*
X163668192Y-128424671D01*
X163641339Y-128511152D01*
X163605403Y-128626882D01*
X163579837Y-128842887D01*
X163594063Y-129059933D01*
X163595484Y-129065529D01*
X163595485Y-129065534D01*
X163622142Y-129170494D01*
X163647605Y-129270753D01*
X163650022Y-129275996D01*
X163699987Y-129384378D01*
X163738668Y-129468285D01*
X163742001Y-129473001D01*
X163835596Y-129605434D01*
X163864204Y-129645914D01*
X163868346Y-129649949D01*
X164007741Y-129785741D01*
X164042579Y-129847602D01*
X164038442Y-129918478D01*
X164002899Y-129970726D01*
X163905842Y-130055842D01*
X163902270Y-130060373D01*
X163845804Y-130132000D01*
X163771181Y-130226658D01*
X163669905Y-130419154D01*
X163668192Y-130424671D01*
X163608418Y-130617173D01*
X163605403Y-130626882D01*
X163579837Y-130842887D01*
X163594063Y-131059933D01*
X163595484Y-131065529D01*
X163595485Y-131065534D01*
X163635787Y-131224221D01*
X163647605Y-131270753D01*
X163738668Y-131468285D01*
X163864204Y-131645914D01*
X163868346Y-131649949D01*
X164007741Y-131785741D01*
X164042579Y-131847602D01*
X164038442Y-131918478D01*
X164002899Y-131970726D01*
X163905842Y-132055842D01*
X163902270Y-132060373D01*
X163805903Y-132182614D01*
X163771181Y-132226658D01*
X163669905Y-132419154D01*
X163663182Y-132440805D01*
X163612867Y-132602845D01*
X163605403Y-132626882D01*
X163579837Y-132842887D01*
X153479070Y-132842887D01*
X153393772Y-132756992D01*
X153388809Y-132751994D01*
X153323539Y-132710573D01*
X153250316Y-132664104D01*
X153250313Y-132664102D01*
X153244373Y-132660333D01*
X153236136Y-132657400D01*
X153089854Y-132605311D01*
X153089849Y-132605310D01*
X153083219Y-132602949D01*
X153076231Y-132602116D01*
X153076228Y-132602115D01*
X152960655Y-132588334D01*
X152913357Y-132582694D01*
X152906354Y-132583430D01*
X152906353Y-132583430D01*
X152861958Y-132588096D01*
X152743228Y-132600575D01*
X152733071Y-132604033D01*
X152587956Y-132653434D01*
X152587953Y-132653435D01*
X152581289Y-132655704D01*
X152435588Y-132745340D01*
X152430557Y-132750267D01*
X152430554Y-132750269D01*
X152423689Y-132756992D01*
X152313366Y-132865028D01*
X152309547Y-132870953D01*
X152309546Y-132870955D01*
X152307584Y-132874000D01*
X152220698Y-133008820D01*
X152218287Y-133015443D01*
X152218286Y-133015446D01*
X152164600Y-133162947D01*
X152164599Y-133162952D01*
X152162190Y-133169570D01*
X152140750Y-133339286D01*
X112268500Y-133339286D01*
X112268500Y-131815286D01*
X153156750Y-131815286D01*
X153173443Y-131985536D01*
X153227440Y-132147856D01*
X153231087Y-132153878D01*
X153231088Y-132153880D01*
X153312406Y-132288154D01*
X153312409Y-132288157D01*
X153316056Y-132294180D01*
X153434889Y-132417234D01*
X153578030Y-132510903D01*
X153584634Y-132513359D01*
X153584636Y-132513360D01*
X153731757Y-132568074D01*
X153731759Y-132568074D01*
X153738367Y-132570532D01*
X153817454Y-132581085D01*
X153900949Y-132592226D01*
X153900953Y-132592226D01*
X153907930Y-132593157D01*
X153914941Y-132592519D01*
X153914945Y-132592519D01*
X154071273Y-132578292D01*
X154071275Y-132578292D01*
X154078292Y-132577653D01*
X154084990Y-132575477D01*
X154084993Y-132575476D01*
X154234289Y-132526966D01*
X154234291Y-132526965D01*
X154240985Y-132524790D01*
X154360376Y-132453619D01*
X154381872Y-132440805D01*
X154381874Y-132440804D01*
X154387924Y-132437197D01*
X154511805Y-132319227D01*
X154525079Y-132299249D01*
X154569913Y-132231767D01*
X154606471Y-132176743D01*
X154667218Y-132016826D01*
X154681040Y-131918478D01*
X154690475Y-131851347D01*
X154690475Y-131851344D01*
X154691026Y-131847425D01*
X154691325Y-131826000D01*
X154672256Y-131656000D01*
X154632616Y-131542166D01*
X154618314Y-131501097D01*
X154618313Y-131501095D01*
X154615999Y-131494450D01*
X154525348Y-131349378D01*
X154512159Y-131336096D01*
X154409772Y-131232992D01*
X154404809Y-131227994D01*
X154292837Y-131156935D01*
X154266316Y-131140104D01*
X154266313Y-131140102D01*
X154260373Y-131136333D01*
X154253740Y-131133971D01*
X154105854Y-131081311D01*
X154105849Y-131081310D01*
X154099219Y-131078949D01*
X154092231Y-131078116D01*
X154092228Y-131078115D01*
X153976655Y-131064334D01*
X153929357Y-131058694D01*
X153922354Y-131059430D01*
X153922353Y-131059430D01*
X153877958Y-131064096D01*
X153759228Y-131076575D01*
X153749071Y-131080033D01*
X153603956Y-131129434D01*
X153603953Y-131129435D01*
X153597289Y-131131704D01*
X153451588Y-131221340D01*
X153446557Y-131226267D01*
X153446554Y-131226269D01*
X153439689Y-131232992D01*
X153329366Y-131341028D01*
X153325547Y-131346953D01*
X153325546Y-131346955D01*
X153322319Y-131351963D01*
X153236698Y-131484820D01*
X153234287Y-131491443D01*
X153234286Y-131491446D01*
X153180600Y-131638947D01*
X153180599Y-131638952D01*
X153178190Y-131645570D01*
X153156750Y-131815286D01*
X112268500Y-131815286D01*
X112268500Y-130291286D01*
X117850750Y-130291286D01*
X117867443Y-130461536D01*
X117921440Y-130623856D01*
X117925087Y-130629878D01*
X117925088Y-130629880D01*
X118006406Y-130764154D01*
X118006409Y-130764157D01*
X118010056Y-130770180D01*
X118128889Y-130893234D01*
X118272030Y-130986903D01*
X118278634Y-130989359D01*
X118278636Y-130989360D01*
X118425757Y-131044074D01*
X118425759Y-131044074D01*
X118432367Y-131046532D01*
X118511454Y-131057085D01*
X118594949Y-131068226D01*
X118594953Y-131068226D01*
X118601930Y-131069157D01*
X118608941Y-131068519D01*
X118608945Y-131068519D01*
X118765273Y-131054292D01*
X118765275Y-131054292D01*
X118772292Y-131053653D01*
X118778990Y-131051477D01*
X118778993Y-131051476D01*
X118928289Y-131002966D01*
X118928291Y-131002965D01*
X118934985Y-131000790D01*
X118970369Y-130979697D01*
X119075872Y-130916805D01*
X119075874Y-130916804D01*
X119081924Y-130913197D01*
X119205805Y-130795227D01*
X119219079Y-130775249D01*
X119296570Y-130658614D01*
X119300471Y-130652743D01*
X119361218Y-130492826D01*
X119375624Y-130390324D01*
X119384475Y-130327347D01*
X119384475Y-130327344D01*
X119385026Y-130323425D01*
X119385325Y-130302000D01*
X119384123Y-130291286D01*
X134868750Y-130291286D01*
X134885443Y-130461536D01*
X134939440Y-130623856D01*
X134943087Y-130629878D01*
X134943088Y-130629880D01*
X135024406Y-130764154D01*
X135024409Y-130764157D01*
X135028056Y-130770180D01*
X135146889Y-130893234D01*
X135290030Y-130986903D01*
X135296634Y-130989359D01*
X135296636Y-130989360D01*
X135443757Y-131044074D01*
X135443759Y-131044074D01*
X135450367Y-131046532D01*
X135529454Y-131057085D01*
X135612949Y-131068226D01*
X135612953Y-131068226D01*
X135619930Y-131069157D01*
X135626941Y-131068519D01*
X135626945Y-131068519D01*
X135783273Y-131054292D01*
X135783275Y-131054292D01*
X135790292Y-131053653D01*
X135796990Y-131051477D01*
X135796993Y-131051476D01*
X135946289Y-131002966D01*
X135946291Y-131002965D01*
X135952985Y-131000790D01*
X135988369Y-130979697D01*
X136093872Y-130916805D01*
X136093874Y-130916804D01*
X136099924Y-130913197D01*
X136223805Y-130795227D01*
X136237079Y-130775249D01*
X136314570Y-130658614D01*
X136318471Y-130652743D01*
X136379218Y-130492826D01*
X136393624Y-130390324D01*
X136402475Y-130327347D01*
X136402475Y-130327344D01*
X136403026Y-130323425D01*
X136403325Y-130302000D01*
X136384256Y-130132000D01*
X136377217Y-130111785D01*
X136330314Y-129977097D01*
X136330313Y-129977095D01*
X136327999Y-129970450D01*
X136316297Y-129951722D01*
X136241081Y-129831352D01*
X136237348Y-129825378D01*
X136224159Y-129812096D01*
X136166586Y-129754120D01*
X136116809Y-129703994D01*
X136017851Y-129641194D01*
X135978316Y-129616104D01*
X135978313Y-129616102D01*
X135972373Y-129612333D01*
X135965740Y-129609971D01*
X135817854Y-129557311D01*
X135817849Y-129557310D01*
X135811219Y-129554949D01*
X135804231Y-129554116D01*
X135804228Y-129554115D01*
X135688655Y-129540334D01*
X135641357Y-129534694D01*
X135634354Y-129535430D01*
X135634353Y-129535430D01*
X135589958Y-129540096D01*
X135471228Y-129552575D01*
X135461071Y-129556033D01*
X135315956Y-129605434D01*
X135315953Y-129605435D01*
X135309289Y-129607704D01*
X135163588Y-129697340D01*
X135158557Y-129702267D01*
X135158554Y-129702269D01*
X135105606Y-129754120D01*
X135041366Y-129817028D01*
X135037547Y-129822953D01*
X135037546Y-129822955D01*
X135003977Y-129875044D01*
X134948698Y-129960820D01*
X134946287Y-129967443D01*
X134946286Y-129967446D01*
X134892600Y-130114947D01*
X134892599Y-130114952D01*
X134890190Y-130121570D01*
X134868750Y-130291286D01*
X119384123Y-130291286D01*
X119366256Y-130132000D01*
X119359217Y-130111785D01*
X119312314Y-129977097D01*
X119312313Y-129977095D01*
X119309999Y-129970450D01*
X119298297Y-129951722D01*
X119223081Y-129831352D01*
X119219348Y-129825378D01*
X119206159Y-129812096D01*
X119148586Y-129754120D01*
X119098809Y-129703994D01*
X118999851Y-129641194D01*
X118960316Y-129616104D01*
X118960313Y-129616102D01*
X118954373Y-129612333D01*
X118947740Y-129609971D01*
X118799854Y-129557311D01*
X118799849Y-129557310D01*
X118793219Y-129554949D01*
X118786231Y-129554116D01*
X118786228Y-129554115D01*
X118670655Y-129540334D01*
X118623357Y-129534694D01*
X118616354Y-129535430D01*
X118616353Y-129535430D01*
X118571958Y-129540096D01*
X118453228Y-129552575D01*
X118443071Y-129556033D01*
X118297956Y-129605434D01*
X118297953Y-129605435D01*
X118291289Y-129607704D01*
X118145588Y-129697340D01*
X118140557Y-129702267D01*
X118140554Y-129702269D01*
X118087606Y-129754120D01*
X118023366Y-129817028D01*
X118019547Y-129822953D01*
X118019546Y-129822955D01*
X117985977Y-129875044D01*
X117930698Y-129960820D01*
X117928287Y-129967443D01*
X117928286Y-129967446D01*
X117874600Y-130114947D01*
X117874599Y-130114952D01*
X117872190Y-130121570D01*
X117850750Y-130291286D01*
X112268500Y-130291286D01*
X112268500Y-129363750D01*
X148821524Y-129363750D01*
X148829102Y-129447014D01*
X148838916Y-129554845D01*
X148839894Y-129565596D01*
X148841632Y-129571502D01*
X148841633Y-129571506D01*
X148879516Y-129700221D01*
X148897119Y-129760029D01*
X148899972Y-129765486D01*
X148899973Y-129765489D01*
X148931282Y-129825378D01*
X148991019Y-129939645D01*
X148994879Y-129944445D01*
X148994879Y-129944446D01*
X149000729Y-129951722D01*
X149118019Y-130097601D01*
X149273281Y-130227881D01*
X149278673Y-130230845D01*
X149278677Y-130230848D01*
X149439870Y-130319464D01*
X149450891Y-130325523D01*
X149644084Y-130386807D01*
X149650201Y-130387493D01*
X149650205Y-130387494D01*
X149724348Y-130395810D01*
X149801817Y-130404500D01*
X149911004Y-130404500D01*
X150061713Y-130389723D01*
X150255742Y-130331142D01*
X150434698Y-130235990D01*
X150451700Y-130222124D01*
X150586987Y-130111785D01*
X150591763Y-130107890D01*
X150612093Y-130083315D01*
X150717027Y-129956472D01*
X150717029Y-129956469D01*
X150720956Y-129951722D01*
X150817356Y-129773435D01*
X150855581Y-129649949D01*
X150875468Y-129585707D01*
X150875469Y-129585704D01*
X150877290Y-129579820D01*
X150898476Y-129378250D01*
X150888693Y-129270753D01*
X150880665Y-129182543D01*
X150880664Y-129182540D01*
X150880106Y-129176404D01*
X150872767Y-129151466D01*
X150824620Y-128987880D01*
X150822881Y-128981971D01*
X150818951Y-128974452D01*
X150731835Y-128807815D01*
X150728981Y-128802355D01*
X150723630Y-128795699D01*
X150612434Y-128657400D01*
X150601981Y-128644399D01*
X150446719Y-128514119D01*
X150441327Y-128511155D01*
X150441323Y-128511152D01*
X150274506Y-128419444D01*
X150269109Y-128416477D01*
X150075916Y-128355193D01*
X150069799Y-128354507D01*
X150069795Y-128354506D01*
X149995652Y-128346190D01*
X149918183Y-128337500D01*
X149808996Y-128337500D01*
X149658287Y-128352277D01*
X149464258Y-128410858D01*
X149285302Y-128506010D01*
X149128237Y-128634110D01*
X149124310Y-128638857D01*
X149124308Y-128638859D01*
X149002973Y-128785528D01*
X149002971Y-128785531D01*
X148999044Y-128790278D01*
X148902644Y-128968565D01*
X148898494Y-128981971D01*
X148846027Y-129151466D01*
X148842710Y-129162180D01*
X148842066Y-129168305D01*
X148842066Y-129168306D01*
X148831298Y-129270753D01*
X148821524Y-129363750D01*
X112268500Y-129363750D01*
X112268500Y-125746168D01*
X119855868Y-125746168D01*
X119872561Y-125916418D01*
X119926558Y-126078738D01*
X119930205Y-126084760D01*
X119930206Y-126084762D01*
X120011524Y-126219036D01*
X120011527Y-126219039D01*
X120015174Y-126225062D01*
X120134007Y-126348116D01*
X120277148Y-126441785D01*
X120283752Y-126444241D01*
X120283754Y-126444242D01*
X120430875Y-126498956D01*
X120430877Y-126498956D01*
X120437485Y-126501414D01*
X120516572Y-126511967D01*
X120600067Y-126523108D01*
X120600071Y-126523108D01*
X120607048Y-126524039D01*
X120614059Y-126523401D01*
X120614063Y-126523401D01*
X120770391Y-126509174D01*
X120770393Y-126509174D01*
X120777410Y-126508535D01*
X120784108Y-126506359D01*
X120784111Y-126506358D01*
X120933407Y-126457848D01*
X120933409Y-126457847D01*
X120940103Y-126455672D01*
X121087042Y-126368079D01*
X121210923Y-126250109D01*
X121216161Y-126242226D01*
X121301688Y-126113496D01*
X121305589Y-126107625D01*
X121358162Y-125969227D01*
X121363836Y-125954290D01*
X121363837Y-125954288D01*
X121366336Y-125947708D01*
X121370734Y-125916418D01*
X121389593Y-125782229D01*
X121389593Y-125782226D01*
X121390144Y-125778307D01*
X121390443Y-125756882D01*
X121371374Y-125586882D01*
X121367007Y-125574339D01*
X121329031Y-125465286D01*
X130042750Y-125465286D01*
X130059443Y-125635536D01*
X130113440Y-125797856D01*
X130117087Y-125803878D01*
X130117088Y-125803880D01*
X130198406Y-125938154D01*
X130198409Y-125938157D01*
X130202056Y-125944180D01*
X130320889Y-126067234D01*
X130464030Y-126160903D01*
X130470634Y-126163359D01*
X130470636Y-126163360D01*
X130617757Y-126218074D01*
X130617759Y-126218074D01*
X130624367Y-126220532D01*
X130696307Y-126230131D01*
X130786949Y-126242226D01*
X130786953Y-126242226D01*
X130793930Y-126243157D01*
X130800941Y-126242519D01*
X130800945Y-126242519D01*
X130957273Y-126228292D01*
X130957275Y-126228292D01*
X130964292Y-126227653D01*
X130970990Y-126225477D01*
X130970993Y-126225476D01*
X131120289Y-126176966D01*
X131120291Y-126176965D01*
X131126985Y-126174790D01*
X131239656Y-126107625D01*
X131267872Y-126090805D01*
X131267874Y-126090804D01*
X131273924Y-126087197D01*
X131397805Y-125969227D01*
X131411079Y-125949249D01*
X131478612Y-125847602D01*
X131492471Y-125826743D01*
X131553218Y-125666826D01*
X131554198Y-125659854D01*
X131576475Y-125501347D01*
X131576475Y-125501344D01*
X131577026Y-125497425D01*
X131577325Y-125476000D01*
X131558256Y-125306000D01*
X131552635Y-125289856D01*
X131504314Y-125151097D01*
X131504313Y-125151095D01*
X131501999Y-125144450D01*
X131411348Y-124999378D01*
X131402443Y-124990410D01*
X131317418Y-124904790D01*
X131290809Y-124877994D01*
X131200693Y-124820805D01*
X131152316Y-124790104D01*
X131152313Y-124790102D01*
X131146373Y-124786333D01*
X131139740Y-124783971D01*
X130991854Y-124731311D01*
X130991849Y-124731310D01*
X130985219Y-124728949D01*
X130978231Y-124728116D01*
X130978228Y-124728115D01*
X130862655Y-124714334D01*
X130815357Y-124708694D01*
X130808354Y-124709430D01*
X130808353Y-124709430D01*
X130763958Y-124714096D01*
X130645228Y-124726575D01*
X130635071Y-124730033D01*
X130489956Y-124779434D01*
X130489953Y-124779435D01*
X130483289Y-124781704D01*
X130337588Y-124871340D01*
X130332557Y-124876267D01*
X130332554Y-124876269D01*
X130275136Y-124932497D01*
X130215366Y-124991028D01*
X130211547Y-124996953D01*
X130211546Y-124996955D01*
X130203315Y-125009727D01*
X130122698Y-125134820D01*
X130120287Y-125141443D01*
X130120286Y-125141446D01*
X130066600Y-125288947D01*
X130066599Y-125288952D01*
X130064190Y-125295570D01*
X130042750Y-125465286D01*
X121329031Y-125465286D01*
X121317432Y-125431979D01*
X121317431Y-125431977D01*
X121315117Y-125425332D01*
X121275842Y-125362478D01*
X121228199Y-125286234D01*
X121224466Y-125280260D01*
X121211277Y-125266978D01*
X121165142Y-125220520D01*
X121103927Y-125158876D01*
X121038657Y-125117455D01*
X120965434Y-125070986D01*
X120965431Y-125070984D01*
X120959491Y-125067215D01*
X120952858Y-125064853D01*
X120804972Y-125012193D01*
X120804967Y-125012192D01*
X120798337Y-125009831D01*
X120791349Y-125008998D01*
X120791346Y-125008997D01*
X120660099Y-124993347D01*
X120628475Y-124989576D01*
X120621472Y-124990312D01*
X120621471Y-124990312D01*
X120582777Y-124994379D01*
X120458346Y-125007457D01*
X120448189Y-125010915D01*
X120303074Y-125060316D01*
X120303071Y-125060317D01*
X120296407Y-125062586D01*
X120150706Y-125152222D01*
X120145675Y-125157149D01*
X120145672Y-125157151D01*
X120086691Y-125214910D01*
X120028484Y-125271910D01*
X120024665Y-125277835D01*
X120024664Y-125277837D01*
X120013236Y-125295570D01*
X119935816Y-125415702D01*
X119933405Y-125422325D01*
X119933404Y-125422328D01*
X119879718Y-125569829D01*
X119879717Y-125569834D01*
X119877308Y-125576452D01*
X119855868Y-125746168D01*
X112268500Y-125746168D01*
X112268500Y-123687286D01*
X133344750Y-123687286D01*
X133361443Y-123857536D01*
X133415440Y-124019856D01*
X133419087Y-124025878D01*
X133419088Y-124025880D01*
X133500406Y-124160154D01*
X133500409Y-124160157D01*
X133504056Y-124166180D01*
X133622889Y-124289234D01*
X133628785Y-124293092D01*
X133753941Y-124374992D01*
X133766030Y-124382903D01*
X133772634Y-124385359D01*
X133772636Y-124385360D01*
X133919757Y-124440074D01*
X133919759Y-124440074D01*
X133926367Y-124442532D01*
X134005454Y-124453085D01*
X134088949Y-124464226D01*
X134088953Y-124464226D01*
X134095930Y-124465157D01*
X134102941Y-124464519D01*
X134102945Y-124464519D01*
X134259273Y-124450292D01*
X134259275Y-124450292D01*
X134266292Y-124449653D01*
X134272990Y-124447477D01*
X134272993Y-124447476D01*
X134422289Y-124398966D01*
X134422291Y-124398965D01*
X134428985Y-124396790D01*
X134575924Y-124309197D01*
X134699805Y-124191227D01*
X134713079Y-124171249D01*
X134771501Y-124083315D01*
X134794471Y-124048743D01*
X134855218Y-123888826D01*
X134857155Y-123875044D01*
X134878475Y-123723347D01*
X134878475Y-123723344D01*
X134879026Y-123719425D01*
X134879325Y-123698000D01*
X134860256Y-123528000D01*
X134857507Y-123520104D01*
X134827274Y-123433286D01*
X136392750Y-123433286D01*
X136409443Y-123603536D01*
X136463440Y-123765856D01*
X136467087Y-123771878D01*
X136467088Y-123771880D01*
X136548406Y-123906154D01*
X136548409Y-123906157D01*
X136552056Y-123912180D01*
X136670889Y-124035234D01*
X136814030Y-124128903D01*
X136820634Y-124131359D01*
X136820636Y-124131360D01*
X136967757Y-124186074D01*
X136967759Y-124186074D01*
X136974367Y-124188532D01*
X137053454Y-124199085D01*
X137136949Y-124210226D01*
X137136953Y-124210226D01*
X137143930Y-124211157D01*
X137150941Y-124210519D01*
X137150945Y-124210519D01*
X137307273Y-124196292D01*
X137307275Y-124196292D01*
X137314292Y-124195653D01*
X137315422Y-124195286D01*
X146806750Y-124195286D01*
X146823443Y-124365536D01*
X146877440Y-124527856D01*
X146881087Y-124533878D01*
X146881088Y-124533880D01*
X146962406Y-124668154D01*
X146962409Y-124668157D01*
X146966056Y-124674180D01*
X147084889Y-124797234D01*
X147090785Y-124801092D01*
X147215941Y-124882992D01*
X147228030Y-124890903D01*
X147234634Y-124893359D01*
X147234636Y-124893360D01*
X147381757Y-124948074D01*
X147381759Y-124948074D01*
X147388367Y-124950532D01*
X147467454Y-124961085D01*
X147550949Y-124972226D01*
X147550953Y-124972226D01*
X147557930Y-124973157D01*
X147564941Y-124972519D01*
X147564945Y-124972519D01*
X147721273Y-124958292D01*
X147721275Y-124958292D01*
X147728292Y-124957653D01*
X147734990Y-124955477D01*
X147734993Y-124955476D01*
X147884289Y-124906966D01*
X147884291Y-124906965D01*
X147890985Y-124904790D01*
X148037924Y-124817197D01*
X148161805Y-124699227D01*
X148175079Y-124679249D01*
X148252570Y-124562614D01*
X148256471Y-124556743D01*
X148306641Y-124424671D01*
X148314718Y-124403408D01*
X148314719Y-124403406D01*
X148317218Y-124396826D01*
X148318198Y-124389854D01*
X148340475Y-124231347D01*
X148340475Y-124231344D01*
X148341026Y-124227425D01*
X148341325Y-124206000D01*
X148322256Y-124036000D01*
X148316635Y-124019856D01*
X148268314Y-123881097D01*
X148268313Y-123881095D01*
X148265999Y-123874450D01*
X148210568Y-123785741D01*
X148179081Y-123735352D01*
X148175348Y-123729378D01*
X148162159Y-123716096D01*
X148059772Y-123612992D01*
X148054809Y-123607994D01*
X147989539Y-123566573D01*
X147916316Y-123520104D01*
X147916313Y-123520102D01*
X147910373Y-123516333D01*
X147903740Y-123513971D01*
X147755854Y-123461311D01*
X147755849Y-123461310D01*
X147749219Y-123458949D01*
X147742231Y-123458116D01*
X147742228Y-123458115D01*
X147623854Y-123444000D01*
X147579357Y-123438694D01*
X147572354Y-123439430D01*
X147572353Y-123439430D01*
X147528873Y-123444000D01*
X147409228Y-123456575D01*
X147399071Y-123460033D01*
X147253956Y-123509434D01*
X147253953Y-123509435D01*
X147247289Y-123511704D01*
X147101588Y-123601340D01*
X147096557Y-123606267D01*
X147096554Y-123606269D01*
X147056070Y-123645914D01*
X146979366Y-123721028D01*
X146975547Y-123726953D01*
X146975546Y-123726955D01*
X146970135Y-123735352D01*
X146886698Y-123864820D01*
X146884287Y-123871443D01*
X146884286Y-123871446D01*
X146830600Y-124018947D01*
X146830599Y-124018952D01*
X146828190Y-124025570D01*
X146806750Y-124195286D01*
X137315422Y-124195286D01*
X137320990Y-124193477D01*
X137320993Y-124193476D01*
X137470289Y-124144966D01*
X137470291Y-124144965D01*
X137476985Y-124142790D01*
X137512369Y-124121697D01*
X137617872Y-124058805D01*
X137617874Y-124058804D01*
X137623924Y-124055197D01*
X137747805Y-123937227D01*
X137761079Y-123917249D01*
X137838570Y-123800614D01*
X137842471Y-123794743D01*
X137885947Y-123680292D01*
X137900718Y-123641408D01*
X137900719Y-123641406D01*
X137903218Y-123634826D01*
X137906989Y-123607994D01*
X137926475Y-123469347D01*
X137926475Y-123469344D01*
X137927026Y-123465425D01*
X137927325Y-123444000D01*
X137908256Y-123274000D01*
X137889932Y-123221378D01*
X137854314Y-123119097D01*
X137854313Y-123119095D01*
X137851999Y-123112450D01*
X137761348Y-122967378D01*
X137748159Y-122954096D01*
X137645772Y-122850992D01*
X137640809Y-122845994D01*
X137575539Y-122804573D01*
X137502316Y-122758104D01*
X137502313Y-122758102D01*
X137496373Y-122754333D01*
X137489740Y-122751971D01*
X137341854Y-122699311D01*
X137341849Y-122699310D01*
X137335219Y-122696949D01*
X137328231Y-122696116D01*
X137328228Y-122696115D01*
X137212655Y-122682334D01*
X137165357Y-122676694D01*
X137158354Y-122677430D01*
X137158353Y-122677430D01*
X137113958Y-122682096D01*
X136995228Y-122694575D01*
X136985071Y-122698033D01*
X136839956Y-122747434D01*
X136839953Y-122747435D01*
X136833289Y-122749704D01*
X136687588Y-122839340D01*
X136682557Y-122844267D01*
X136682554Y-122844269D01*
X136623573Y-122902028D01*
X136565366Y-122959028D01*
X136561547Y-122964953D01*
X136561546Y-122964955D01*
X136556135Y-122973352D01*
X136472698Y-123102820D01*
X136470287Y-123109443D01*
X136470286Y-123109446D01*
X136416600Y-123256947D01*
X136416599Y-123256952D01*
X136414190Y-123263570D01*
X136392750Y-123433286D01*
X134827274Y-123433286D01*
X134806314Y-123373097D01*
X134806313Y-123373095D01*
X134803999Y-123366450D01*
X134739713Y-123263570D01*
X134717081Y-123227352D01*
X134713348Y-123221378D01*
X134700159Y-123208096D01*
X134597772Y-123104992D01*
X134592809Y-123099994D01*
X134520593Y-123054165D01*
X134454316Y-123012104D01*
X134454313Y-123012102D01*
X134448373Y-123008333D01*
X134441740Y-123005971D01*
X134293854Y-122953311D01*
X134293849Y-122953310D01*
X134287219Y-122950949D01*
X134280231Y-122950116D01*
X134280228Y-122950115D01*
X134163573Y-122936205D01*
X134117357Y-122930694D01*
X134110354Y-122931430D01*
X134110353Y-122931430D01*
X134065958Y-122936096D01*
X133947228Y-122948575D01*
X133937071Y-122952033D01*
X133791956Y-123001434D01*
X133791953Y-123001435D01*
X133785289Y-123003704D01*
X133639588Y-123093340D01*
X133634557Y-123098267D01*
X133634554Y-123098269D01*
X133586066Y-123145752D01*
X133517366Y-123213028D01*
X133513547Y-123218953D01*
X133513546Y-123218955D01*
X133508135Y-123227352D01*
X133424698Y-123356820D01*
X133422287Y-123363443D01*
X133422286Y-123363446D01*
X133368600Y-123510947D01*
X133368599Y-123510952D01*
X133366190Y-123517570D01*
X133344750Y-123687286D01*
X112268500Y-123687286D01*
X112268500Y-121909286D01*
X119628750Y-121909286D01*
X119645443Y-122079536D01*
X119699440Y-122241856D01*
X119703087Y-122247878D01*
X119703088Y-122247880D01*
X119784406Y-122382154D01*
X119784409Y-122382157D01*
X119788056Y-122388180D01*
X119906889Y-122511234D01*
X120050030Y-122604903D01*
X120056634Y-122607359D01*
X120056636Y-122607360D01*
X120203757Y-122662074D01*
X120203759Y-122662074D01*
X120210367Y-122664532D01*
X120289454Y-122675085D01*
X120372949Y-122686226D01*
X120372953Y-122686226D01*
X120379930Y-122687157D01*
X120386941Y-122686519D01*
X120386945Y-122686519D01*
X120543273Y-122672292D01*
X120543275Y-122672292D01*
X120550292Y-122671653D01*
X120556990Y-122669477D01*
X120556993Y-122669476D01*
X120706289Y-122620966D01*
X120706291Y-122620965D01*
X120712985Y-122618790D01*
X120859924Y-122531197D01*
X120983805Y-122413227D01*
X120997079Y-122393249D01*
X121074570Y-122276614D01*
X121078471Y-122270743D01*
X121139218Y-122110826D01*
X121143085Y-122083315D01*
X121150301Y-122031964D01*
X121161386Y-121953093D01*
X121175743Y-121921390D01*
X121175146Y-121920059D01*
X121395039Y-121920059D01*
X121411559Y-121958334D01*
X121414454Y-121987856D01*
X121423443Y-122079536D01*
X121477440Y-122241856D01*
X121481087Y-122247878D01*
X121481088Y-122247880D01*
X121562406Y-122382154D01*
X121562409Y-122382157D01*
X121566056Y-122388180D01*
X121684889Y-122511234D01*
X121828030Y-122604903D01*
X121834634Y-122607359D01*
X121834636Y-122607360D01*
X121981757Y-122662074D01*
X121981759Y-122662074D01*
X121988367Y-122664532D01*
X122067454Y-122675085D01*
X122150949Y-122686226D01*
X122150953Y-122686226D01*
X122157930Y-122687157D01*
X122164941Y-122686519D01*
X122164945Y-122686519D01*
X122321273Y-122672292D01*
X122321275Y-122672292D01*
X122328292Y-122671653D01*
X122334990Y-122669477D01*
X122334993Y-122669476D01*
X122484289Y-122620966D01*
X122484291Y-122620965D01*
X122490985Y-122618790D01*
X122637924Y-122531197D01*
X122761805Y-122413227D01*
X122775079Y-122393249D01*
X122852570Y-122276614D01*
X122856471Y-122270743D01*
X122917218Y-122110826D01*
X122920676Y-122086221D01*
X122940475Y-121945347D01*
X122940475Y-121945344D01*
X122941026Y-121941425D01*
X122941325Y-121920000D01*
X122922256Y-121750000D01*
X122911161Y-121718137D01*
X122889274Y-121655286D01*
X161284750Y-121655286D01*
X161301443Y-121825536D01*
X161355440Y-121987856D01*
X161359087Y-121993878D01*
X161359088Y-121993880D01*
X161440406Y-122128154D01*
X161440409Y-122128157D01*
X161444056Y-122134180D01*
X161562889Y-122257234D01*
X161706030Y-122350903D01*
X161712634Y-122353359D01*
X161712636Y-122353360D01*
X161859757Y-122408074D01*
X161859759Y-122408074D01*
X161866367Y-122410532D01*
X161930985Y-122419154D01*
X162028949Y-122432226D01*
X162028953Y-122432226D01*
X162035930Y-122433157D01*
X162042941Y-122432519D01*
X162042945Y-122432519D01*
X162199273Y-122418292D01*
X162199275Y-122418292D01*
X162206292Y-122417653D01*
X162212990Y-122415477D01*
X162212993Y-122415476D01*
X162362289Y-122366966D01*
X162362291Y-122366965D01*
X162368985Y-122364790D01*
X162515924Y-122277197D01*
X162639805Y-122159227D01*
X162653079Y-122139249D01*
X162730570Y-122022614D01*
X162734471Y-122016743D01*
X162788298Y-121875044D01*
X162792718Y-121863408D01*
X162792719Y-121863406D01*
X162795218Y-121856826D01*
X162796198Y-121849854D01*
X162818475Y-121691347D01*
X162818475Y-121691344D01*
X162819026Y-121687425D01*
X162819325Y-121666000D01*
X162800256Y-121496000D01*
X162788779Y-121463040D01*
X162746314Y-121341097D01*
X162746313Y-121341095D01*
X162743999Y-121334450D01*
X162653348Y-121189378D01*
X162640159Y-121176096D01*
X162537772Y-121072992D01*
X162532809Y-121067994D01*
X162467539Y-121026573D01*
X162394316Y-120980104D01*
X162394313Y-120980102D01*
X162388373Y-120976333D01*
X162381740Y-120973971D01*
X162233854Y-120921311D01*
X162233849Y-120921310D01*
X162227219Y-120918949D01*
X162220231Y-120918116D01*
X162220228Y-120918115D01*
X162104655Y-120904334D01*
X162057357Y-120898694D01*
X162050354Y-120899430D01*
X162050353Y-120899430D01*
X162005958Y-120904096D01*
X161887228Y-120916575D01*
X161877071Y-120920033D01*
X161731956Y-120969434D01*
X161731953Y-120969435D01*
X161725289Y-120971704D01*
X161579588Y-121061340D01*
X161574557Y-121066267D01*
X161574554Y-121066269D01*
X161567689Y-121072992D01*
X161457366Y-121181028D01*
X161453547Y-121186953D01*
X161453546Y-121186955D01*
X161448135Y-121195352D01*
X161364698Y-121324820D01*
X161362287Y-121331443D01*
X161362286Y-121331446D01*
X161308600Y-121478947D01*
X161308599Y-121478952D01*
X161306190Y-121485570D01*
X161284750Y-121655286D01*
X122889274Y-121655286D01*
X122868314Y-121595097D01*
X122868313Y-121595095D01*
X122865999Y-121588450D01*
X122843010Y-121551659D01*
X122779081Y-121449352D01*
X122775348Y-121443378D01*
X122762159Y-121430096D01*
X122659772Y-121326992D01*
X122654809Y-121321994D01*
X122582327Y-121275996D01*
X122516316Y-121234104D01*
X122516313Y-121234102D01*
X122510373Y-121230333D01*
X122503740Y-121227971D01*
X122355854Y-121175311D01*
X122355849Y-121175310D01*
X122349219Y-121172949D01*
X122342231Y-121172116D01*
X122342228Y-121172115D01*
X122226655Y-121158334D01*
X122179357Y-121152694D01*
X122172354Y-121153430D01*
X122172353Y-121153430D01*
X122139006Y-121156935D01*
X122009228Y-121170575D01*
X121999071Y-121174033D01*
X121853956Y-121223434D01*
X121853953Y-121223435D01*
X121847289Y-121225704D01*
X121701588Y-121315340D01*
X121696557Y-121320267D01*
X121696554Y-121320269D01*
X121658602Y-121357435D01*
X121579366Y-121435028D01*
X121575547Y-121440953D01*
X121575546Y-121440955D01*
X121570135Y-121449352D01*
X121486698Y-121578820D01*
X121484287Y-121585443D01*
X121484286Y-121585446D01*
X121430600Y-121732947D01*
X121430599Y-121732952D01*
X121428190Y-121739570D01*
X121423546Y-121776330D01*
X121409609Y-121886652D01*
X121395039Y-121920059D01*
X121175146Y-121920059D01*
X121159388Y-121884905D01*
X121158157Y-121873923D01*
X121148265Y-121785741D01*
X121145041Y-121756997D01*
X121145041Y-121756996D01*
X121144256Y-121750000D01*
X121133161Y-121718137D01*
X121090314Y-121595097D01*
X121090313Y-121595095D01*
X121087999Y-121588450D01*
X121065010Y-121551659D01*
X121001081Y-121449352D01*
X120997348Y-121443378D01*
X120984159Y-121430096D01*
X120881772Y-121326992D01*
X120876809Y-121321994D01*
X120804327Y-121275996D01*
X120738316Y-121234104D01*
X120738313Y-121234102D01*
X120732373Y-121230333D01*
X120725740Y-121227971D01*
X120577854Y-121175311D01*
X120577849Y-121175310D01*
X120571219Y-121172949D01*
X120564231Y-121172116D01*
X120564228Y-121172115D01*
X120448655Y-121158334D01*
X120401357Y-121152694D01*
X120394354Y-121153430D01*
X120394353Y-121153430D01*
X120361006Y-121156935D01*
X120231228Y-121170575D01*
X120221071Y-121174033D01*
X120075956Y-121223434D01*
X120075953Y-121223435D01*
X120069289Y-121225704D01*
X119923588Y-121315340D01*
X119918557Y-121320267D01*
X119918554Y-121320269D01*
X119880602Y-121357435D01*
X119801366Y-121435028D01*
X119797547Y-121440953D01*
X119797546Y-121440955D01*
X119792135Y-121449352D01*
X119708698Y-121578820D01*
X119706287Y-121585443D01*
X119706286Y-121585446D01*
X119652600Y-121732947D01*
X119652599Y-121732952D01*
X119650190Y-121739570D01*
X119628750Y-121909286D01*
X112268500Y-121909286D01*
X112268500Y-118334606D01*
X126639495Y-118334606D01*
X126652935Y-118539659D01*
X126703517Y-118738828D01*
X126789549Y-118925445D01*
X126908148Y-119093259D01*
X126912282Y-119097286D01*
X127017598Y-119199880D01*
X127055342Y-119236649D01*
X127060138Y-119239854D01*
X127060141Y-119239856D01*
X127138523Y-119292229D01*
X127226203Y-119350815D01*
X127231506Y-119353093D01*
X127231509Y-119353095D01*
X127321293Y-119391669D01*
X127415008Y-119431932D01*
X127524435Y-119456693D01*
X127575664Y-119468285D01*
X127615433Y-119477284D01*
X127621202Y-119477511D01*
X127621205Y-119477511D01*
X127698697Y-119480555D01*
X127820768Y-119485351D01*
X127922450Y-119470608D01*
X128018419Y-119456693D01*
X128018424Y-119456692D01*
X128024133Y-119455864D01*
X128029597Y-119454009D01*
X128029602Y-119454008D01*
X128213249Y-119391669D01*
X128213254Y-119391667D01*
X128218721Y-119389811D01*
X128253943Y-119370086D01*
X128307343Y-119340180D01*
X128398012Y-119289403D01*
X128556003Y-119158003D01*
X128687403Y-119000012D01*
X128755899Y-118877704D01*
X128784987Y-118825764D01*
X128784988Y-118825762D01*
X128787811Y-118820721D01*
X128789667Y-118815254D01*
X128789669Y-118815249D01*
X128852008Y-118631602D01*
X128852009Y-118631597D01*
X128853864Y-118626133D01*
X128857933Y-118598074D01*
X128879244Y-118451092D01*
X128883351Y-118422768D01*
X128884890Y-118364000D01*
X128866087Y-118159370D01*
X128857956Y-118130538D01*
X128811878Y-117967157D01*
X128811876Y-117967152D01*
X128810308Y-117961592D01*
X128752952Y-117845286D01*
X135376750Y-117845286D01*
X135393443Y-118015536D01*
X135447440Y-118177856D01*
X135451087Y-118183878D01*
X135451088Y-118183880D01*
X135532406Y-118318154D01*
X135532409Y-118318157D01*
X135536056Y-118324180D01*
X135654889Y-118447234D01*
X135726459Y-118494068D01*
X135787315Y-118533891D01*
X135798030Y-118540903D01*
X135804634Y-118543359D01*
X135804636Y-118543360D01*
X135951757Y-118598074D01*
X135951759Y-118598074D01*
X135958367Y-118600532D01*
X136030899Y-118610210D01*
X136120949Y-118622226D01*
X136120953Y-118622226D01*
X136127930Y-118623157D01*
X136134941Y-118622519D01*
X136134945Y-118622519D01*
X136270195Y-118610210D01*
X136339849Y-118623955D01*
X136391013Y-118673176D01*
X136407444Y-118742246D01*
X136406624Y-118751463D01*
X136392750Y-118861286D01*
X136409443Y-119031536D01*
X136463440Y-119193856D01*
X136467087Y-119199878D01*
X136467088Y-119199880D01*
X136548406Y-119334154D01*
X136548409Y-119334157D01*
X136552056Y-119340180D01*
X136670889Y-119463234D01*
X136704687Y-119485351D01*
X136791510Y-119542166D01*
X136814030Y-119556903D01*
X136820634Y-119559359D01*
X136820636Y-119559360D01*
X136967757Y-119614074D01*
X136967759Y-119614074D01*
X136974367Y-119616532D01*
X137053454Y-119627085D01*
X137136949Y-119638226D01*
X137136953Y-119638226D01*
X137143930Y-119639157D01*
X137150941Y-119638519D01*
X137150945Y-119638519D01*
X137307273Y-119624292D01*
X137307275Y-119624292D01*
X137314292Y-119623653D01*
X137320990Y-119621477D01*
X137320993Y-119621476D01*
X137470289Y-119572966D01*
X137470291Y-119572965D01*
X137476985Y-119570790D01*
X137623924Y-119483197D01*
X137747805Y-119365227D01*
X137755866Y-119353095D01*
X137810573Y-119270753D01*
X137842471Y-119222743D01*
X137903218Y-119062826D01*
X137912046Y-119000012D01*
X137926475Y-118897347D01*
X137926475Y-118897344D01*
X137927026Y-118893425D01*
X137927173Y-118882878D01*
X137927270Y-118875962D01*
X137927270Y-118875957D01*
X137927325Y-118872000D01*
X137908256Y-118702000D01*
X137890788Y-118651836D01*
X137854314Y-118547097D01*
X137854313Y-118547095D01*
X137851999Y-118540450D01*
X137847901Y-118533891D01*
X137765081Y-118401352D01*
X137761348Y-118395378D01*
X137730189Y-118364000D01*
X137645772Y-118278992D01*
X137640809Y-118273994D01*
X137559074Y-118222124D01*
X137502316Y-118186104D01*
X137502313Y-118186102D01*
X137496373Y-118182333D01*
X137448053Y-118165127D01*
X137341854Y-118127311D01*
X137341849Y-118127310D01*
X137335219Y-118124949D01*
X137328231Y-118124116D01*
X137328228Y-118124115D01*
X137212655Y-118110334D01*
X137165357Y-118104694D01*
X137035182Y-118118376D01*
X136965344Y-118105604D01*
X136913498Y-118057102D01*
X136896103Y-117988269D01*
X136897238Y-117975530D01*
X136898616Y-117965729D01*
X136911026Y-117877425D01*
X136911325Y-117856000D01*
X136892256Y-117686000D01*
X136886635Y-117669856D01*
X136838314Y-117531097D01*
X136838313Y-117531095D01*
X136835999Y-117524450D01*
X136745348Y-117379378D01*
X136732159Y-117366096D01*
X136703549Y-117337286D01*
X144266750Y-117337286D01*
X144283443Y-117507536D01*
X144337440Y-117669856D01*
X144341087Y-117675878D01*
X144341088Y-117675880D01*
X144422406Y-117810154D01*
X144422409Y-117810157D01*
X144426056Y-117816180D01*
X144544889Y-117939234D01*
X144550785Y-117943092D01*
X144650780Y-118008527D01*
X144688030Y-118032903D01*
X144694634Y-118035359D01*
X144694636Y-118035360D01*
X144841757Y-118090074D01*
X144841759Y-118090074D01*
X144848367Y-118092532D01*
X144927454Y-118103085D01*
X145010949Y-118114226D01*
X145010953Y-118114226D01*
X145017930Y-118115157D01*
X145024941Y-118114519D01*
X145024945Y-118114519D01*
X145181273Y-118100292D01*
X145181275Y-118100292D01*
X145188292Y-118099653D01*
X145194990Y-118097477D01*
X145194993Y-118097476D01*
X145344289Y-118048966D01*
X145344291Y-118048965D01*
X145350985Y-118046790D01*
X145470525Y-117975530D01*
X145491872Y-117962805D01*
X145491874Y-117962804D01*
X145497924Y-117959197D01*
X145621805Y-117841227D01*
X145635079Y-117821249D01*
X145683814Y-117747896D01*
X145716471Y-117698743D01*
X145777218Y-117538826D01*
X145778304Y-117531097D01*
X145800475Y-117373347D01*
X145800475Y-117373344D01*
X145801026Y-117369425D01*
X145801325Y-117348000D01*
X145782256Y-117178000D01*
X145779507Y-117170104D01*
X145749274Y-117083286D01*
X151886750Y-117083286D01*
X151903443Y-117253536D01*
X151957440Y-117415856D01*
X151961087Y-117421878D01*
X151961088Y-117421880D01*
X152042406Y-117556154D01*
X152042409Y-117556157D01*
X152046056Y-117562180D01*
X152164889Y-117685234D01*
X152176754Y-117692998D01*
X152298496Y-117772664D01*
X152308030Y-117778903D01*
X152314634Y-117781359D01*
X152314636Y-117781360D01*
X152461757Y-117836074D01*
X152461759Y-117836074D01*
X152468367Y-117838532D01*
X152547454Y-117849085D01*
X152630949Y-117860226D01*
X152630953Y-117860226D01*
X152637930Y-117861157D01*
X152644941Y-117860519D01*
X152644945Y-117860519D01*
X152801273Y-117846292D01*
X152801275Y-117846292D01*
X152808292Y-117845653D01*
X152814990Y-117843477D01*
X152814993Y-117843476D01*
X152964289Y-117794966D01*
X152964291Y-117794965D01*
X152970985Y-117792790D01*
X153102409Y-117714446D01*
X153111872Y-117708805D01*
X153111874Y-117708804D01*
X153117924Y-117705197D01*
X153241805Y-117587227D01*
X153255079Y-117567249D01*
X153320830Y-117468285D01*
X153336471Y-117444743D01*
X153397218Y-117284826D01*
X153400989Y-117257994D01*
X153420475Y-117119347D01*
X153420475Y-117119344D01*
X153421026Y-117115425D01*
X153421325Y-117094000D01*
X153402256Y-116924000D01*
X153399712Y-116916693D01*
X153348314Y-116769097D01*
X153348313Y-116769095D01*
X153345999Y-116762450D01*
X153255348Y-116617378D01*
X153242159Y-116604096D01*
X153161418Y-116522790D01*
X153134809Y-116495994D01*
X153059269Y-116448055D01*
X152996316Y-116408104D01*
X152996313Y-116408102D01*
X152990373Y-116404333D01*
X152983740Y-116401971D01*
X152835854Y-116349311D01*
X152835849Y-116349310D01*
X152829219Y-116346949D01*
X152822231Y-116346116D01*
X152822228Y-116346115D01*
X152706655Y-116332334D01*
X152659357Y-116326694D01*
X152652354Y-116327430D01*
X152652353Y-116327430D01*
X152607958Y-116332096D01*
X152489228Y-116344575D01*
X152479071Y-116348033D01*
X152333956Y-116397434D01*
X152333953Y-116397435D01*
X152327289Y-116399704D01*
X152181588Y-116489340D01*
X152176557Y-116494267D01*
X152176554Y-116494269D01*
X152121131Y-116548544D01*
X152059366Y-116609028D01*
X152055547Y-116614953D01*
X152055546Y-116614955D01*
X152032037Y-116651434D01*
X151966698Y-116752820D01*
X151964287Y-116759443D01*
X151964286Y-116759446D01*
X151910600Y-116906947D01*
X151910599Y-116906952D01*
X151908190Y-116913570D01*
X151886750Y-117083286D01*
X145749274Y-117083286D01*
X145728314Y-117023097D01*
X145728313Y-117023095D01*
X145725999Y-117016450D01*
X145681572Y-116945351D01*
X145639081Y-116877352D01*
X145635348Y-116871378D01*
X145622159Y-116858096D01*
X145519772Y-116754992D01*
X145514809Y-116749994D01*
X145449539Y-116708573D01*
X145376316Y-116662104D01*
X145376313Y-116662102D01*
X145370373Y-116658333D01*
X145363740Y-116655971D01*
X145215854Y-116603311D01*
X145215849Y-116603310D01*
X145209219Y-116600949D01*
X145202231Y-116600116D01*
X145202228Y-116600115D01*
X145086655Y-116586334D01*
X145039357Y-116580694D01*
X145032354Y-116581430D01*
X145032353Y-116581430D01*
X144987958Y-116586096D01*
X144869228Y-116598575D01*
X144859071Y-116602033D01*
X144713956Y-116651434D01*
X144713953Y-116651435D01*
X144707289Y-116653704D01*
X144561588Y-116743340D01*
X144556557Y-116748267D01*
X144556554Y-116748269D01*
X144497573Y-116806028D01*
X144439366Y-116863028D01*
X144435547Y-116868953D01*
X144435546Y-116868955D01*
X144419917Y-116893207D01*
X144346698Y-117006820D01*
X144344287Y-117013443D01*
X144344286Y-117013446D01*
X144290600Y-117160947D01*
X144290599Y-117160952D01*
X144288190Y-117167570D01*
X144266750Y-117337286D01*
X136703549Y-117337286D01*
X136629772Y-117262992D01*
X136624809Y-117257994D01*
X136509785Y-117184998D01*
X136486316Y-117170104D01*
X136486313Y-117170102D01*
X136480373Y-117166333D01*
X136473740Y-117163971D01*
X136325854Y-117111311D01*
X136325849Y-117111310D01*
X136319219Y-117108949D01*
X136312231Y-117108116D01*
X136312228Y-117108115D01*
X136193854Y-117094000D01*
X136149357Y-117088694D01*
X136142354Y-117089430D01*
X136142353Y-117089430D01*
X136098873Y-117094000D01*
X135979228Y-117106575D01*
X135969071Y-117110033D01*
X135823956Y-117159434D01*
X135823953Y-117159435D01*
X135817289Y-117161704D01*
X135671588Y-117251340D01*
X135666557Y-117256267D01*
X135666554Y-117256269D01*
X135607573Y-117314028D01*
X135549366Y-117371028D01*
X135545547Y-117376953D01*
X135545546Y-117376955D01*
X135540135Y-117385352D01*
X135456698Y-117514820D01*
X135454287Y-117521443D01*
X135454286Y-117521446D01*
X135400600Y-117668947D01*
X135400599Y-117668952D01*
X135398190Y-117675570D01*
X135376750Y-117845286D01*
X128752952Y-117845286D01*
X128719421Y-117777292D01*
X128596470Y-117612640D01*
X128497817Y-117521446D01*
X128449812Y-117477070D01*
X128449809Y-117477068D01*
X128445572Y-117473151D01*
X128354764Y-117415856D01*
X128276665Y-117366579D01*
X128276660Y-117366577D01*
X128271781Y-117363498D01*
X128080918Y-117287351D01*
X127879374Y-117247261D01*
X127873599Y-117247185D01*
X127873595Y-117247185D01*
X127772796Y-117245866D01*
X127673899Y-117244571D01*
X127471375Y-117279372D01*
X127465958Y-117281370D01*
X127465952Y-117281372D01*
X127333349Y-117330292D01*
X127278583Y-117350496D01*
X127234110Y-117376955D01*
X127106950Y-117452607D01*
X127106947Y-117452609D01*
X127101982Y-117455563D01*
X126947484Y-117591054D01*
X126943909Y-117595589D01*
X126943908Y-117595590D01*
X126847300Y-117718137D01*
X126820265Y-117752430D01*
X126724585Y-117934289D01*
X126663648Y-118130538D01*
X126639495Y-118334606D01*
X112268500Y-118334606D01*
X112268500Y-115794606D01*
X126639495Y-115794606D01*
X126652935Y-115999659D01*
X126703517Y-116198828D01*
X126789549Y-116385445D01*
X126908148Y-116553259D01*
X126968836Y-116612379D01*
X127019881Y-116662104D01*
X127055342Y-116696649D01*
X127060138Y-116699854D01*
X127060141Y-116699856D01*
X127149324Y-116759446D01*
X127226203Y-116810815D01*
X127231506Y-116813093D01*
X127231509Y-116813095D01*
X127367167Y-116871378D01*
X127415008Y-116891932D01*
X127524435Y-116916693D01*
X127594278Y-116932497D01*
X127615433Y-116937284D01*
X127621202Y-116937511D01*
X127621205Y-116937511D01*
X127698697Y-116940555D01*
X127820768Y-116945351D01*
X127922450Y-116930608D01*
X128018419Y-116916693D01*
X128018424Y-116916692D01*
X128024133Y-116915864D01*
X128029597Y-116914009D01*
X128029602Y-116914008D01*
X128213249Y-116851669D01*
X128213254Y-116851667D01*
X128218721Y-116849811D01*
X128398012Y-116749403D01*
X128556003Y-116618003D01*
X128687403Y-116460012D01*
X128764530Y-116322292D01*
X128784987Y-116285764D01*
X128784988Y-116285762D01*
X128787811Y-116280721D01*
X128789667Y-116275254D01*
X128789669Y-116275249D01*
X128852008Y-116091602D01*
X128852009Y-116091597D01*
X128853864Y-116086133D01*
X128854944Y-116078691D01*
X128876798Y-115927962D01*
X128883351Y-115882768D01*
X128884890Y-115824000D01*
X128883906Y-115813286D01*
X135376750Y-115813286D01*
X135393443Y-115983536D01*
X135447440Y-116145856D01*
X135451087Y-116151878D01*
X135451088Y-116151880D01*
X135532406Y-116286154D01*
X135532409Y-116286157D01*
X135536056Y-116292180D01*
X135654889Y-116415234D01*
X135677972Y-116430339D01*
X135785941Y-116500992D01*
X135798030Y-116508903D01*
X135804634Y-116511359D01*
X135804636Y-116511360D01*
X135951757Y-116566074D01*
X135951759Y-116566074D01*
X135958367Y-116568532D01*
X136037454Y-116579085D01*
X136120949Y-116590226D01*
X136120953Y-116590226D01*
X136127930Y-116591157D01*
X136134941Y-116590519D01*
X136134945Y-116590519D01*
X136291273Y-116576292D01*
X136291275Y-116576292D01*
X136298292Y-116575653D01*
X136304990Y-116573477D01*
X136304993Y-116573476D01*
X136454289Y-116524966D01*
X136454291Y-116524965D01*
X136460985Y-116522790D01*
X136558838Y-116464458D01*
X136601872Y-116438805D01*
X136601874Y-116438804D01*
X136607924Y-116435197D01*
X136731805Y-116317227D01*
X136745079Y-116297249D01*
X136794991Y-116222124D01*
X136826471Y-116174743D01*
X136871062Y-116057356D01*
X136884718Y-116021408D01*
X136884719Y-116021406D01*
X136887218Y-116014826D01*
X136901367Y-115914155D01*
X136910475Y-115849347D01*
X136910475Y-115849344D01*
X136911026Y-115845425D01*
X136911325Y-115824000D01*
X136892256Y-115654000D01*
X136882269Y-115625319D01*
X136859274Y-115559286D01*
X143504750Y-115559286D01*
X143521443Y-115729536D01*
X143575440Y-115891856D01*
X143579087Y-115897878D01*
X143579088Y-115897880D01*
X143660406Y-116032154D01*
X143660409Y-116032157D01*
X143664056Y-116038180D01*
X143782889Y-116161234D01*
X143803533Y-116174743D01*
X143890675Y-116231767D01*
X143926030Y-116254903D01*
X143932634Y-116257359D01*
X143932636Y-116257360D01*
X144079757Y-116312074D01*
X144079759Y-116312074D01*
X144086367Y-116314532D01*
X144165454Y-116325085D01*
X144248949Y-116336226D01*
X144248953Y-116336226D01*
X144255930Y-116337157D01*
X144262941Y-116336519D01*
X144262945Y-116336519D01*
X144419273Y-116322292D01*
X144419275Y-116322292D01*
X144426292Y-116321653D01*
X144432990Y-116319477D01*
X144432993Y-116319476D01*
X144582289Y-116270966D01*
X144582291Y-116270965D01*
X144588985Y-116268790D01*
X144667268Y-116222124D01*
X144729872Y-116184805D01*
X144729874Y-116184804D01*
X144735924Y-116181197D01*
X144859805Y-116063227D01*
X144873079Y-116043249D01*
X144947627Y-115931044D01*
X144954471Y-115920743D01*
X145015218Y-115760826D01*
X145019616Y-115729536D01*
X145038475Y-115595347D01*
X145038475Y-115595344D01*
X145039026Y-115591425D01*
X145039325Y-115570000D01*
X145020256Y-115400000D01*
X145005243Y-115356886D01*
X144966314Y-115245097D01*
X144966313Y-115245095D01*
X144963999Y-115238450D01*
X144873348Y-115093378D01*
X144860159Y-115080096D01*
X144779418Y-114998790D01*
X144752809Y-114971994D01*
X144659229Y-114912607D01*
X144614316Y-114884104D01*
X144614313Y-114884102D01*
X144608373Y-114880333D01*
X144596946Y-114876264D01*
X144453854Y-114825311D01*
X144453849Y-114825310D01*
X144447219Y-114822949D01*
X144440231Y-114822116D01*
X144440228Y-114822115D01*
X144324655Y-114808334D01*
X144277357Y-114802694D01*
X144270354Y-114803430D01*
X144270353Y-114803430D01*
X144225958Y-114808096D01*
X144107228Y-114820575D01*
X144098642Y-114823498D01*
X143951956Y-114873434D01*
X143951953Y-114873435D01*
X143945289Y-114875704D01*
X143799588Y-114965340D01*
X143794557Y-114970267D01*
X143794554Y-114970269D01*
X143752627Y-115011327D01*
X143677366Y-115085028D01*
X143673547Y-115090953D01*
X143673546Y-115090955D01*
X143668135Y-115099352D01*
X143584698Y-115228820D01*
X143582287Y-115235443D01*
X143582286Y-115235446D01*
X143528600Y-115382947D01*
X143528599Y-115382952D01*
X143526190Y-115389570D01*
X143504750Y-115559286D01*
X136859274Y-115559286D01*
X136838314Y-115499097D01*
X136838313Y-115499095D01*
X136835999Y-115492450D01*
X136771713Y-115389570D01*
X136749081Y-115353352D01*
X136745348Y-115347378D01*
X136732159Y-115334096D01*
X136634195Y-115235446D01*
X136624809Y-115225994D01*
X136542836Y-115173973D01*
X136486316Y-115138104D01*
X136486313Y-115138102D01*
X136480373Y-115134333D01*
X136473740Y-115131971D01*
X136325854Y-115079311D01*
X136325849Y-115079310D01*
X136319219Y-115076949D01*
X136312231Y-115076116D01*
X136312228Y-115076115D01*
X136196655Y-115062334D01*
X136149357Y-115056694D01*
X136142354Y-115057430D01*
X136142353Y-115057430D01*
X136097958Y-115062096D01*
X135979228Y-115074575D01*
X135971329Y-115077264D01*
X135823956Y-115127434D01*
X135823953Y-115127435D01*
X135817289Y-115129704D01*
X135671588Y-115219340D01*
X135666557Y-115224267D01*
X135666554Y-115224269D01*
X135607573Y-115282028D01*
X135549366Y-115339028D01*
X135545547Y-115344953D01*
X135545546Y-115344955D01*
X135512288Y-115396562D01*
X135456698Y-115482820D01*
X135454287Y-115489443D01*
X135454286Y-115489446D01*
X135400600Y-115636947D01*
X135400599Y-115636952D01*
X135398190Y-115643570D01*
X135376750Y-115813286D01*
X128883906Y-115813286D01*
X128866087Y-115619370D01*
X128864518Y-115613806D01*
X128811878Y-115427157D01*
X128811876Y-115427152D01*
X128810308Y-115421592D01*
X128719421Y-115237292D01*
X128602038Y-115080096D01*
X128599923Y-115077264D01*
X128599922Y-115077263D01*
X128596470Y-115072640D01*
X128485726Y-114970269D01*
X128449812Y-114937070D01*
X128449809Y-114937068D01*
X128445572Y-114933151D01*
X128360373Y-114879395D01*
X128276665Y-114826579D01*
X128276660Y-114826577D01*
X128271781Y-114823498D01*
X128080918Y-114747351D01*
X127879374Y-114707261D01*
X127873599Y-114707185D01*
X127873595Y-114707185D01*
X127772796Y-114705866D01*
X127673899Y-114704571D01*
X127471375Y-114739372D01*
X127465958Y-114741370D01*
X127465952Y-114741372D01*
X127379546Y-114773249D01*
X127278583Y-114810496D01*
X127251550Y-114826579D01*
X127106950Y-114912607D01*
X127106947Y-114912609D01*
X127101982Y-114915563D01*
X126947484Y-115051054D01*
X126943909Y-115055589D01*
X126943908Y-115055590D01*
X126827735Y-115202955D01*
X126820265Y-115212430D01*
X126724585Y-115394289D01*
X126663648Y-115590538D01*
X126639495Y-115794606D01*
X112268500Y-115794606D01*
X112268500Y-114289286D01*
X119628750Y-114289286D01*
X119645443Y-114459536D01*
X119699440Y-114621856D01*
X119703087Y-114627878D01*
X119703088Y-114627880D01*
X119784406Y-114762154D01*
X119784409Y-114762157D01*
X119788056Y-114768180D01*
X119906889Y-114891234D01*
X119942909Y-114914805D01*
X120037941Y-114976992D01*
X120050030Y-114984903D01*
X120056634Y-114987359D01*
X120056636Y-114987360D01*
X120203757Y-115042074D01*
X120203759Y-115042074D01*
X120210367Y-115044532D01*
X120289454Y-115055085D01*
X120372949Y-115066226D01*
X120372953Y-115066226D01*
X120379930Y-115067157D01*
X120386941Y-115066519D01*
X120386945Y-115066519D01*
X120543273Y-115052292D01*
X120543275Y-115052292D01*
X120550292Y-115051653D01*
X120556990Y-115049477D01*
X120556993Y-115049476D01*
X120706289Y-115000966D01*
X120706291Y-115000965D01*
X120712985Y-114998790D01*
X120859924Y-114911197D01*
X120926197Y-114848086D01*
X121406750Y-114848086D01*
X121423443Y-115018336D01*
X121477440Y-115180656D01*
X121481087Y-115186678D01*
X121481088Y-115186680D01*
X121562406Y-115320954D01*
X121562409Y-115320957D01*
X121566056Y-115326980D01*
X121684889Y-115450034D01*
X121828030Y-115543703D01*
X121834634Y-115546159D01*
X121834636Y-115546160D01*
X121981757Y-115600874D01*
X121981759Y-115600874D01*
X121988367Y-115603332D01*
X122066864Y-115613806D01*
X122150949Y-115625026D01*
X122150953Y-115625026D01*
X122157930Y-115625957D01*
X122164941Y-115625319D01*
X122164945Y-115625319D01*
X122321273Y-115611092D01*
X122321275Y-115611092D01*
X122328292Y-115610453D01*
X122334990Y-115608277D01*
X122334993Y-115608276D01*
X122484289Y-115559766D01*
X122484291Y-115559765D01*
X122490985Y-115557590D01*
X122605298Y-115489446D01*
X122631872Y-115473605D01*
X122631874Y-115473604D01*
X122637924Y-115469997D01*
X122761805Y-115352027D01*
X122773719Y-115334096D01*
X122837265Y-115238450D01*
X122856471Y-115209543D01*
X122903770Y-115085028D01*
X122914718Y-115056208D01*
X122914719Y-115056206D01*
X122917218Y-115049626D01*
X122918198Y-115042654D01*
X122940475Y-114884147D01*
X122940475Y-114884144D01*
X122941026Y-114880225D01*
X122941325Y-114858800D01*
X122922256Y-114688800D01*
X122909004Y-114650743D01*
X122868314Y-114533897D01*
X122868313Y-114533895D01*
X122865999Y-114527250D01*
X122775348Y-114382178D01*
X122762159Y-114368896D01*
X122664760Y-114270815D01*
X122654809Y-114260794D01*
X122568002Y-114205705D01*
X122516316Y-114172904D01*
X122516313Y-114172902D01*
X122510373Y-114169133D01*
X122503740Y-114166771D01*
X122355854Y-114114111D01*
X122355849Y-114114110D01*
X122349219Y-114111749D01*
X122342231Y-114110916D01*
X122342228Y-114110915D01*
X122226655Y-114097134D01*
X122179357Y-114091494D01*
X122172354Y-114092230D01*
X122172353Y-114092230D01*
X122127958Y-114096896D01*
X122009228Y-114109375D01*
X121999071Y-114112833D01*
X121853956Y-114162234D01*
X121853953Y-114162235D01*
X121847289Y-114164504D01*
X121701588Y-114254140D01*
X121696557Y-114259067D01*
X121696554Y-114259069D01*
X121672840Y-114282292D01*
X121579366Y-114373828D01*
X121575547Y-114379753D01*
X121575546Y-114379755D01*
X121564103Y-114397511D01*
X121486698Y-114517620D01*
X121484287Y-114524243D01*
X121484286Y-114524246D01*
X121430600Y-114671747D01*
X121430599Y-114671752D01*
X121428190Y-114678370D01*
X121406750Y-114848086D01*
X120926197Y-114848086D01*
X120983805Y-114793227D01*
X120997079Y-114773249D01*
X121042708Y-114704571D01*
X121078471Y-114650743D01*
X121129040Y-114517620D01*
X121136718Y-114497408D01*
X121136719Y-114497406D01*
X121139218Y-114490826D01*
X121151263Y-114405124D01*
X121162475Y-114325347D01*
X121162475Y-114325344D01*
X121163026Y-114321425D01*
X121163188Y-114309811D01*
X121163270Y-114303962D01*
X121163270Y-114303957D01*
X121163325Y-114300000D01*
X121144256Y-114130000D01*
X121137901Y-114111749D01*
X121090314Y-113975097D01*
X121090313Y-113975095D01*
X121087999Y-113968450D01*
X120997348Y-113823378D01*
X120984159Y-113810096D01*
X120903418Y-113728790D01*
X120876809Y-113701994D01*
X120786693Y-113644805D01*
X120738316Y-113614104D01*
X120738313Y-113614102D01*
X120732373Y-113610333D01*
X120725740Y-113607971D01*
X120577854Y-113555311D01*
X120577849Y-113555310D01*
X120571219Y-113552949D01*
X120564231Y-113552116D01*
X120564228Y-113552115D01*
X120448655Y-113538334D01*
X120401357Y-113532694D01*
X120394354Y-113533430D01*
X120394353Y-113533430D01*
X120349958Y-113538096D01*
X120231228Y-113550575D01*
X120221071Y-113554033D01*
X120075956Y-113603434D01*
X120075953Y-113603435D01*
X120069289Y-113605704D01*
X119923588Y-113695340D01*
X119918557Y-113700267D01*
X119918554Y-113700269D01*
X119882834Y-113735249D01*
X119801366Y-113815028D01*
X119797547Y-113820953D01*
X119797546Y-113820955D01*
X119778724Y-113850161D01*
X119708698Y-113958820D01*
X119706287Y-113965443D01*
X119706286Y-113965446D01*
X119652600Y-114112947D01*
X119652599Y-114112952D01*
X119650190Y-114119570D01*
X119628750Y-114289286D01*
X112268500Y-114289286D01*
X112268500Y-113254606D01*
X126639495Y-113254606D01*
X126652935Y-113459659D01*
X126703517Y-113658828D01*
X126789549Y-113845445D01*
X126908148Y-114013259D01*
X126912282Y-114017286D01*
X127011676Y-114114111D01*
X127055342Y-114156649D01*
X127060138Y-114159854D01*
X127060141Y-114159856D01*
X127138523Y-114212229D01*
X127226203Y-114270815D01*
X127231506Y-114273093D01*
X127231509Y-114273095D01*
X127409701Y-114349652D01*
X127415008Y-114351932D01*
X127615433Y-114397284D01*
X127621202Y-114397511D01*
X127621205Y-114397511D01*
X127698697Y-114400555D01*
X127820768Y-114405351D01*
X127939386Y-114388152D01*
X128018419Y-114376693D01*
X128018424Y-114376692D01*
X128024133Y-114375864D01*
X128029597Y-114374009D01*
X128029602Y-114374008D01*
X128213249Y-114311669D01*
X128213254Y-114311667D01*
X128218721Y-114309811D01*
X128242849Y-114296299D01*
X128312984Y-114257021D01*
X128398012Y-114209403D01*
X128556003Y-114078003D01*
X128687403Y-113920012D01*
X128768876Y-113774532D01*
X128784987Y-113745764D01*
X128784988Y-113745762D01*
X128787811Y-113740721D01*
X128789667Y-113735254D01*
X128789669Y-113735249D01*
X128852008Y-113551602D01*
X128852009Y-113551597D01*
X128853864Y-113546133D01*
X128857186Y-113523227D01*
X128872516Y-113417498D01*
X128883351Y-113342768D01*
X128884890Y-113284000D01*
X128866087Y-113079370D01*
X128864518Y-113073806D01*
X128849142Y-113019286D01*
X131312750Y-113019286D01*
X131329443Y-113189536D01*
X131383440Y-113351856D01*
X131387087Y-113357878D01*
X131387088Y-113357880D01*
X131468406Y-113492154D01*
X131468409Y-113492157D01*
X131472056Y-113498180D01*
X131590889Y-113621234D01*
X131596785Y-113625092D01*
X131721941Y-113706992D01*
X131734030Y-113714903D01*
X131740634Y-113717359D01*
X131740636Y-113717360D01*
X131887757Y-113772074D01*
X131887759Y-113772074D01*
X131894367Y-113774532D01*
X131973454Y-113785085D01*
X132056949Y-113796226D01*
X132056953Y-113796226D01*
X132063930Y-113797157D01*
X132070941Y-113796519D01*
X132070945Y-113796519D01*
X132227273Y-113782292D01*
X132227275Y-113782292D01*
X132234292Y-113781653D01*
X132240990Y-113779477D01*
X132240993Y-113779476D01*
X132390289Y-113730966D01*
X132390291Y-113730965D01*
X132396985Y-113728790D01*
X132459290Y-113691649D01*
X132537872Y-113644805D01*
X132537874Y-113644804D01*
X132543924Y-113641197D01*
X132667805Y-113523227D01*
X132681079Y-113503249D01*
X132758570Y-113386614D01*
X132762471Y-113380743D01*
X132812565Y-113248871D01*
X132820718Y-113227408D01*
X132820719Y-113227406D01*
X132823218Y-113220826D01*
X132836359Y-113127327D01*
X132846475Y-113055347D01*
X132846475Y-113055344D01*
X132847026Y-113051425D01*
X132847325Y-113030000D01*
X132846123Y-113019286D01*
X135630750Y-113019286D01*
X135647443Y-113189536D01*
X135701440Y-113351856D01*
X135705087Y-113357878D01*
X135705088Y-113357880D01*
X135786406Y-113492154D01*
X135786409Y-113492157D01*
X135790056Y-113498180D01*
X135908889Y-113621234D01*
X135914785Y-113625092D01*
X136039941Y-113706992D01*
X136052030Y-113714903D01*
X136058634Y-113717359D01*
X136058636Y-113717360D01*
X136205757Y-113772074D01*
X136205759Y-113772074D01*
X136212367Y-113774532D01*
X136291454Y-113785085D01*
X136374949Y-113796226D01*
X136374953Y-113796226D01*
X136381930Y-113797157D01*
X136388941Y-113796519D01*
X136388945Y-113796519D01*
X136545273Y-113782292D01*
X136545275Y-113782292D01*
X136552292Y-113781653D01*
X136558990Y-113779477D01*
X136558993Y-113779476D01*
X136708289Y-113730966D01*
X136708291Y-113730965D01*
X136714985Y-113728790D01*
X136777290Y-113691649D01*
X136855872Y-113644805D01*
X136855874Y-113644804D01*
X136861924Y-113641197D01*
X136985805Y-113523227D01*
X136999079Y-113503249D01*
X137076570Y-113386614D01*
X137080471Y-113380743D01*
X137130565Y-113248871D01*
X137138718Y-113227408D01*
X137138719Y-113227406D01*
X137141218Y-113220826D01*
X137154359Y-113127327D01*
X137164475Y-113055347D01*
X137164475Y-113055344D01*
X137165026Y-113051425D01*
X137165325Y-113030000D01*
X137146256Y-112860000D01*
X137130478Y-112814689D01*
X137092314Y-112705097D01*
X137092313Y-112705095D01*
X137089999Y-112698450D01*
X137044226Y-112625197D01*
X137003081Y-112559352D01*
X136999348Y-112553378D01*
X136986159Y-112540096D01*
X136905418Y-112458790D01*
X136878809Y-112431994D01*
X136785229Y-112372607D01*
X136740316Y-112344104D01*
X136740313Y-112344102D01*
X136734373Y-112340333D01*
X136721800Y-112335856D01*
X136579854Y-112285311D01*
X136579849Y-112285310D01*
X136573219Y-112282949D01*
X136566231Y-112282116D01*
X136566228Y-112282115D01*
X136447854Y-112268000D01*
X136403357Y-112262694D01*
X136396354Y-112263430D01*
X136396353Y-112263430D01*
X136352873Y-112268000D01*
X136233228Y-112280575D01*
X136224642Y-112283498D01*
X136077956Y-112333434D01*
X136077953Y-112333435D01*
X136071289Y-112335704D01*
X135925588Y-112425340D01*
X135920557Y-112430267D01*
X135920554Y-112430269D01*
X135884827Y-112465256D01*
X135803366Y-112545028D01*
X135799547Y-112550953D01*
X135799546Y-112550955D01*
X135794135Y-112559352D01*
X135710698Y-112688820D01*
X135708287Y-112695443D01*
X135708286Y-112695446D01*
X135654600Y-112842947D01*
X135654599Y-112842952D01*
X135652190Y-112849570D01*
X135630750Y-113019286D01*
X132846123Y-113019286D01*
X132828256Y-112860000D01*
X132812478Y-112814689D01*
X132774314Y-112705097D01*
X132774313Y-112705095D01*
X132771999Y-112698450D01*
X132726226Y-112625197D01*
X132685081Y-112559352D01*
X132681348Y-112553378D01*
X132668159Y-112540096D01*
X132587418Y-112458790D01*
X132560809Y-112431994D01*
X132467229Y-112372607D01*
X132422316Y-112344104D01*
X132422313Y-112344102D01*
X132416373Y-112340333D01*
X132403800Y-112335856D01*
X132261854Y-112285311D01*
X132261849Y-112285310D01*
X132255219Y-112282949D01*
X132248231Y-112282116D01*
X132248228Y-112282115D01*
X132129854Y-112268000D01*
X132085357Y-112262694D01*
X132078354Y-112263430D01*
X132078353Y-112263430D01*
X132034873Y-112268000D01*
X131915228Y-112280575D01*
X131906642Y-112283498D01*
X131759956Y-112333434D01*
X131759953Y-112333435D01*
X131753289Y-112335704D01*
X131607588Y-112425340D01*
X131602557Y-112430267D01*
X131602554Y-112430269D01*
X131566827Y-112465256D01*
X131485366Y-112545028D01*
X131481547Y-112550953D01*
X131481546Y-112550955D01*
X131476135Y-112559352D01*
X131392698Y-112688820D01*
X131390287Y-112695443D01*
X131390286Y-112695446D01*
X131336600Y-112842947D01*
X131336599Y-112842952D01*
X131334190Y-112849570D01*
X131312750Y-113019286D01*
X128849142Y-113019286D01*
X128811878Y-112887157D01*
X128811876Y-112887152D01*
X128810308Y-112881592D01*
X128719421Y-112697292D01*
X128596470Y-112532640D01*
X128485726Y-112430269D01*
X128449812Y-112397070D01*
X128449809Y-112397068D01*
X128445572Y-112393151D01*
X128360373Y-112339395D01*
X128276665Y-112286579D01*
X128276660Y-112286577D01*
X128271781Y-112283498D01*
X128080918Y-112207351D01*
X127879374Y-112167261D01*
X127873599Y-112167185D01*
X127873595Y-112167185D01*
X127772796Y-112165866D01*
X127673899Y-112164571D01*
X127471375Y-112199372D01*
X127465958Y-112201370D01*
X127465952Y-112201372D01*
X127379546Y-112233249D01*
X127278583Y-112270496D01*
X127252587Y-112285962D01*
X127106950Y-112372607D01*
X127106947Y-112372609D01*
X127101982Y-112375563D01*
X126947484Y-112511054D01*
X126943909Y-112515589D01*
X126943908Y-112515590D01*
X126857501Y-112625197D01*
X126820265Y-112672430D01*
X126724585Y-112854289D01*
X126663648Y-113050538D01*
X126639495Y-113254606D01*
X112268500Y-113254606D01*
X112268500Y-111241286D01*
X136392750Y-111241286D01*
X136409443Y-111411536D01*
X136463440Y-111573856D01*
X136467087Y-111579878D01*
X136467088Y-111579880D01*
X136548406Y-111714154D01*
X136548409Y-111714157D01*
X136552056Y-111720180D01*
X136670889Y-111843234D01*
X136676785Y-111847092D01*
X136776780Y-111912527D01*
X136814030Y-111936903D01*
X136820634Y-111939359D01*
X136820636Y-111939360D01*
X136967757Y-111994074D01*
X136967759Y-111994074D01*
X136974367Y-111996532D01*
X137053454Y-112007085D01*
X137136949Y-112018226D01*
X137136953Y-112018226D01*
X137143930Y-112019157D01*
X137150941Y-112018519D01*
X137150945Y-112018519D01*
X137307273Y-112004292D01*
X137307275Y-112004292D01*
X137314292Y-112003653D01*
X137320990Y-112001477D01*
X137320993Y-112001476D01*
X137470289Y-111952966D01*
X137470291Y-111952965D01*
X137476985Y-111950790D01*
X137623924Y-111863197D01*
X137743543Y-111749286D01*
X144774750Y-111749286D01*
X144791443Y-111919536D01*
X144845440Y-112081856D01*
X144849087Y-112087878D01*
X144849088Y-112087880D01*
X144930406Y-112222154D01*
X144930409Y-112222157D01*
X144934056Y-112228180D01*
X145052889Y-112351234D01*
X145088909Y-112374805D01*
X145183941Y-112436992D01*
X145196030Y-112444903D01*
X145202634Y-112447359D01*
X145202636Y-112447360D01*
X145349757Y-112502074D01*
X145349759Y-112502074D01*
X145356367Y-112504532D01*
X145435454Y-112515085D01*
X145518949Y-112526226D01*
X145518953Y-112526226D01*
X145525930Y-112527157D01*
X145532941Y-112526519D01*
X145532945Y-112526519D01*
X145689273Y-112512292D01*
X145689275Y-112512292D01*
X145696292Y-112511653D01*
X145702990Y-112509477D01*
X145702993Y-112509476D01*
X145852289Y-112460966D01*
X145852291Y-112460965D01*
X145858985Y-112458790D01*
X146005924Y-112371197D01*
X146129805Y-112253227D01*
X146199590Y-112148192D01*
X146253946Y-112102523D01*
X146324366Y-112093490D01*
X146388490Y-112123963D01*
X146412313Y-112152649D01*
X146421845Y-112168388D01*
X146458056Y-112228180D01*
X146576889Y-112351234D01*
X146612909Y-112374805D01*
X146707941Y-112436992D01*
X146720030Y-112444903D01*
X146726634Y-112447359D01*
X146726636Y-112447360D01*
X146873757Y-112502074D01*
X146873759Y-112502074D01*
X146880367Y-112504532D01*
X146959454Y-112515085D01*
X147042949Y-112526226D01*
X147042953Y-112526226D01*
X147049930Y-112527157D01*
X147056941Y-112526519D01*
X147056945Y-112526519D01*
X147213273Y-112512292D01*
X147213275Y-112512292D01*
X147220292Y-112511653D01*
X147226990Y-112509477D01*
X147226993Y-112509476D01*
X147376289Y-112460966D01*
X147376291Y-112460965D01*
X147382985Y-112458790D01*
X147529924Y-112371197D01*
X147653805Y-112253227D01*
X147667079Y-112233249D01*
X147723589Y-112148193D01*
X147748471Y-112110743D01*
X147809218Y-111950826D01*
X147810198Y-111943854D01*
X147832475Y-111785347D01*
X147832475Y-111785344D01*
X147833026Y-111781425D01*
X147833325Y-111760000D01*
X147814256Y-111590000D01*
X147810731Y-111579875D01*
X147760314Y-111435097D01*
X147760313Y-111435095D01*
X147757999Y-111428450D01*
X147712226Y-111355197D01*
X147671081Y-111289352D01*
X147667348Y-111283378D01*
X147654159Y-111270096D01*
X147571567Y-111186926D01*
X147546809Y-111161994D01*
X147444574Y-111097114D01*
X147408316Y-111074104D01*
X147408313Y-111074102D01*
X147402373Y-111070333D01*
X147389800Y-111065856D01*
X147247854Y-111015311D01*
X147247849Y-111015310D01*
X147241219Y-111012949D01*
X147234231Y-111012116D01*
X147234228Y-111012115D01*
X147118655Y-110998334D01*
X147071357Y-110992694D01*
X147064354Y-110993430D01*
X147064353Y-110993430D01*
X147019958Y-110998096D01*
X146901228Y-111010575D01*
X146891614Y-111013848D01*
X146745956Y-111063434D01*
X146745953Y-111063435D01*
X146739289Y-111065704D01*
X146593588Y-111155340D01*
X146588557Y-111160267D01*
X146588554Y-111160269D01*
X146561333Y-111186926D01*
X146471366Y-111275028D01*
X146467547Y-111280953D01*
X146467546Y-111280955D01*
X146409730Y-111370668D01*
X146356016Y-111417093D01*
X146285729Y-111427108D01*
X146221186Y-111397532D01*
X146196965Y-111369183D01*
X146147081Y-111289352D01*
X146143348Y-111283378D01*
X146130159Y-111270096D01*
X146047567Y-111186926D01*
X146022809Y-111161994D01*
X145920574Y-111097114D01*
X145884316Y-111074104D01*
X145884313Y-111074102D01*
X145878373Y-111070333D01*
X145865800Y-111065856D01*
X145723854Y-111015311D01*
X145723849Y-111015310D01*
X145717219Y-111012949D01*
X145710231Y-111012116D01*
X145710228Y-111012115D01*
X145594655Y-110998334D01*
X145547357Y-110992694D01*
X145540354Y-110993430D01*
X145540353Y-110993430D01*
X145495958Y-110998096D01*
X145377228Y-111010575D01*
X145367614Y-111013848D01*
X145221956Y-111063434D01*
X145221953Y-111063435D01*
X145215289Y-111065704D01*
X145069588Y-111155340D01*
X145064557Y-111160267D01*
X145064554Y-111160269D01*
X145037333Y-111186926D01*
X144947366Y-111275028D01*
X144943547Y-111280953D01*
X144943546Y-111280955D01*
X144922202Y-111314074D01*
X144854698Y-111418820D01*
X144852287Y-111425443D01*
X144852286Y-111425446D01*
X144798600Y-111572947D01*
X144798599Y-111572952D01*
X144796190Y-111579570D01*
X144774750Y-111749286D01*
X137743543Y-111749286D01*
X137747805Y-111745227D01*
X137761079Y-111725249D01*
X137838570Y-111608614D01*
X137842471Y-111602743D01*
X137903218Y-111442826D01*
X137904304Y-111435097D01*
X137926475Y-111277347D01*
X137926475Y-111277344D01*
X137927026Y-111273425D01*
X137927325Y-111252000D01*
X137908256Y-111082000D01*
X137905507Y-111074104D01*
X137854314Y-110927097D01*
X137854313Y-110927095D01*
X137851999Y-110920450D01*
X137814543Y-110860507D01*
X137765081Y-110781352D01*
X137761348Y-110775378D01*
X137748159Y-110762096D01*
X137645772Y-110658992D01*
X137640809Y-110653994D01*
X137560141Y-110602801D01*
X137502316Y-110566104D01*
X137502313Y-110566102D01*
X137496373Y-110562333D01*
X137489740Y-110559971D01*
X137341854Y-110507311D01*
X137341849Y-110507310D01*
X137335219Y-110504949D01*
X137328231Y-110504116D01*
X137328228Y-110504115D01*
X137209854Y-110490000D01*
X137165357Y-110484694D01*
X137158354Y-110485430D01*
X137158353Y-110485430D01*
X137114873Y-110490000D01*
X136995228Y-110502575D01*
X136985071Y-110506033D01*
X136839956Y-110555434D01*
X136839953Y-110555435D01*
X136833289Y-110557704D01*
X136687588Y-110647340D01*
X136682557Y-110652267D01*
X136682554Y-110652269D01*
X136649014Y-110685114D01*
X136565366Y-110767028D01*
X136561547Y-110772953D01*
X136561546Y-110772955D01*
X136526351Y-110827567D01*
X136472698Y-110910820D01*
X136470287Y-110917443D01*
X136470286Y-110917446D01*
X136416600Y-111064947D01*
X136416599Y-111064952D01*
X136414190Y-111071570D01*
X136392750Y-111241286D01*
X112268500Y-111241286D01*
X112268500Y-109463286D01*
X151632750Y-109463286D01*
X151649443Y-109633536D01*
X151703440Y-109795856D01*
X151707087Y-109801878D01*
X151707088Y-109801880D01*
X151788406Y-109936154D01*
X151788409Y-109936157D01*
X151792056Y-109942180D01*
X151910356Y-110064682D01*
X151910889Y-110065234D01*
X151910792Y-110065328D01*
X151948703Y-110121458D01*
X151950324Y-110192436D01*
X151947054Y-110202793D01*
X151908190Y-110309570D01*
X151886750Y-110479286D01*
X151903443Y-110649536D01*
X151957440Y-110811856D01*
X151961087Y-110817878D01*
X151961088Y-110817880D01*
X152035899Y-110941408D01*
X152046056Y-110958180D01*
X152119488Y-111034220D01*
X152152420Y-111097114D01*
X152153857Y-111137535D01*
X152140750Y-111241286D01*
X152157443Y-111411536D01*
X152211440Y-111573856D01*
X152215087Y-111579878D01*
X152215088Y-111579880D01*
X152296406Y-111714154D01*
X152296409Y-111714157D01*
X152300056Y-111720180D01*
X152418889Y-111843234D01*
X152424785Y-111847092D01*
X152524780Y-111912527D01*
X152562030Y-111936903D01*
X152568634Y-111939359D01*
X152568636Y-111939360D01*
X152715757Y-111994074D01*
X152715759Y-111994074D01*
X152722367Y-111996532D01*
X152805481Y-112007622D01*
X152870357Y-112036458D01*
X152909346Y-112095791D01*
X152914215Y-112120219D01*
X152919443Y-112173536D01*
X152921667Y-112180221D01*
X152971215Y-112329169D01*
X152971217Y-112329173D01*
X152973389Y-112335704D01*
X152973440Y-112335856D01*
X152972609Y-112336133D01*
X152982162Y-112400545D01*
X152952956Y-112465256D01*
X152945524Y-112473191D01*
X152872166Y-112545028D01*
X152868347Y-112550953D01*
X152868346Y-112550955D01*
X152862935Y-112559352D01*
X152779498Y-112688820D01*
X152777087Y-112695443D01*
X152777086Y-112695446D01*
X152723400Y-112842947D01*
X152723399Y-112842952D01*
X152720990Y-112849570D01*
X152699550Y-113019286D01*
X152716243Y-113189536D01*
X152770240Y-113351856D01*
X152773887Y-113357878D01*
X152773888Y-113357880D01*
X152855206Y-113492154D01*
X152855209Y-113492157D01*
X152858856Y-113498180D01*
X152977689Y-113621234D01*
X152983585Y-113625092D01*
X153108741Y-113706992D01*
X153120830Y-113714903D01*
X153127434Y-113717359D01*
X153127436Y-113717360D01*
X153274557Y-113772074D01*
X153274559Y-113772074D01*
X153281167Y-113774532D01*
X153360254Y-113785085D01*
X153443749Y-113796226D01*
X153443753Y-113796226D01*
X153450730Y-113797157D01*
X153457741Y-113796519D01*
X153457745Y-113796519D01*
X153614073Y-113782292D01*
X153614075Y-113782292D01*
X153621092Y-113781653D01*
X153627790Y-113779477D01*
X153627793Y-113779476D01*
X153777089Y-113730966D01*
X153777091Y-113730965D01*
X153783785Y-113728790D01*
X153846090Y-113691649D01*
X153924672Y-113644805D01*
X153924674Y-113644804D01*
X153930724Y-113641197D01*
X154054605Y-113523227D01*
X154067879Y-113503249D01*
X154145370Y-113386614D01*
X154149271Y-113380743D01*
X154199365Y-113248871D01*
X154207518Y-113227408D01*
X154207519Y-113227406D01*
X154210018Y-113220826D01*
X154223159Y-113127327D01*
X154233275Y-113055347D01*
X154233275Y-113055344D01*
X154233826Y-113051425D01*
X154234125Y-113030000D01*
X154215056Y-112860000D01*
X154199278Y-112814689D01*
X154160152Y-112702335D01*
X154156640Y-112631425D01*
X154192252Y-112569652D01*
X154203068Y-112559352D01*
X154257805Y-112507227D01*
X154285691Y-112465256D01*
X154311490Y-112426425D01*
X154352471Y-112364743D01*
X154413218Y-112204826D01*
X154418339Y-112168388D01*
X154436475Y-112039347D01*
X154436475Y-112039344D01*
X154437026Y-112035425D01*
X154437325Y-112014000D01*
X154433589Y-111980695D01*
X155863251Y-111980695D01*
X155863548Y-111985848D01*
X155863548Y-111985851D01*
X155870749Y-112110743D01*
X155876110Y-112203715D01*
X155877247Y-112208761D01*
X155877248Y-112208767D01*
X155893431Y-112280575D01*
X155925222Y-112421639D01*
X156009266Y-112628616D01*
X156125987Y-112819088D01*
X156272250Y-112987938D01*
X156444126Y-113130632D01*
X156637000Y-113243338D01*
X156845692Y-113323030D01*
X156850760Y-113324061D01*
X156850763Y-113324062D01*
X156924481Y-113339060D01*
X157064597Y-113367567D01*
X157069772Y-113367757D01*
X157069774Y-113367757D01*
X157282673Y-113375564D01*
X157282677Y-113375564D01*
X157287837Y-113375753D01*
X157292957Y-113375097D01*
X157292959Y-113375097D01*
X157504288Y-113348025D01*
X157504289Y-113348025D01*
X157509416Y-113347368D01*
X157514366Y-113345883D01*
X157718429Y-113284661D01*
X157718434Y-113284659D01*
X157723384Y-113283174D01*
X157923994Y-113184896D01*
X158105860Y-113055173D01*
X158264096Y-112897489D01*
X158291035Y-112860000D01*
X158394453Y-112716077D01*
X158395640Y-112716930D01*
X158442960Y-112673362D01*
X158512897Y-112661145D01*
X158578338Y-112688678D01*
X158606166Y-112720511D01*
X158663694Y-112814388D01*
X158669777Y-112822699D01*
X158809213Y-112983667D01*
X158816580Y-112990883D01*
X158980434Y-113126916D01*
X158988881Y-113132831D01*
X159172756Y-113240279D01*
X159182042Y-113244729D01*
X159381001Y-113320703D01*
X159390899Y-113323579D01*
X159494250Y-113344606D01*
X159508299Y-113343410D01*
X159512000Y-113333065D01*
X159512000Y-113332517D01*
X160020000Y-113332517D01*
X160024064Y-113346359D01*
X160037478Y-113348393D01*
X160044184Y-113347534D01*
X160054262Y-113345392D01*
X160258255Y-113284191D01*
X160267842Y-113280433D01*
X160459095Y-113186739D01*
X160467945Y-113181464D01*
X160641328Y-113057792D01*
X160649200Y-113051139D01*
X160800052Y-112900812D01*
X160806730Y-112892965D01*
X160931003Y-112720020D01*
X160936313Y-112711183D01*
X161030670Y-112520267D01*
X161034469Y-112510672D01*
X161096377Y-112306910D01*
X161098555Y-112296837D01*
X161099986Y-112285962D01*
X161097775Y-112271778D01*
X161084617Y-112268000D01*
X160038115Y-112268000D01*
X160022876Y-112272475D01*
X160021671Y-112273865D01*
X160020000Y-112281548D01*
X160020000Y-113332517D01*
X159512000Y-113332517D01*
X159512000Y-111886000D01*
X159532002Y-111817879D01*
X159585658Y-111771386D01*
X159638000Y-111760000D01*
X161084344Y-111760000D01*
X161097875Y-111756027D01*
X161099180Y-111746947D01*
X161057214Y-111579875D01*
X161053894Y-111570124D01*
X160968972Y-111374814D01*
X160964105Y-111365739D01*
X160848426Y-111186926D01*
X160842136Y-111178757D01*
X160698806Y-111021240D01*
X160691273Y-111014215D01*
X160524139Y-110882222D01*
X160515556Y-110876520D01*
X160478602Y-110856120D01*
X160428631Y-110805687D01*
X160413859Y-110736245D01*
X160414978Y-110733286D01*
X183128750Y-110733286D01*
X183145443Y-110903536D01*
X183199440Y-111065856D01*
X183203087Y-111071878D01*
X183203088Y-111071880D01*
X183284406Y-111206154D01*
X183284409Y-111206157D01*
X183288056Y-111212180D01*
X183406889Y-111335234D01*
X183478459Y-111382068D01*
X183537941Y-111420992D01*
X183550030Y-111428903D01*
X183556634Y-111431359D01*
X183556636Y-111431360D01*
X183703757Y-111486074D01*
X183703759Y-111486074D01*
X183710367Y-111488532D01*
X183789454Y-111499085D01*
X183872949Y-111510226D01*
X183872953Y-111510226D01*
X183879930Y-111511157D01*
X183886941Y-111510519D01*
X183886945Y-111510519D01*
X184043273Y-111496292D01*
X184043275Y-111496292D01*
X184050292Y-111495653D01*
X184056990Y-111493477D01*
X184056993Y-111493476D01*
X184206289Y-111444966D01*
X184206291Y-111444965D01*
X184212985Y-111442790D01*
X184335360Y-111369840D01*
X184353872Y-111358805D01*
X184353874Y-111358804D01*
X184359924Y-111355197D01*
X184483805Y-111237227D01*
X184497079Y-111217249D01*
X184537680Y-111156138D01*
X184578471Y-111094743D01*
X184618191Y-110990179D01*
X184636718Y-110941408D01*
X184636719Y-110941406D01*
X184639218Y-110934826D01*
X184640304Y-110927097D01*
X184662475Y-110769347D01*
X184662475Y-110769344D01*
X184663026Y-110765425D01*
X184663325Y-110744000D01*
X184644256Y-110574000D01*
X184641507Y-110566104D01*
X184590314Y-110419097D01*
X184590313Y-110419095D01*
X184587999Y-110412450D01*
X184523713Y-110309570D01*
X184501081Y-110273352D01*
X184497348Y-110267378D01*
X184484159Y-110254096D01*
X184407627Y-110177028D01*
X184376809Y-110145994D01*
X184249699Y-110065328D01*
X184238316Y-110058104D01*
X184238313Y-110058102D01*
X184232373Y-110054333D01*
X184225740Y-110051971D01*
X184077854Y-109999311D01*
X184077849Y-109999310D01*
X184071219Y-109996949D01*
X184064231Y-109996116D01*
X184064228Y-109996115D01*
X183948655Y-109982334D01*
X183901357Y-109976694D01*
X183894354Y-109977430D01*
X183894353Y-109977430D01*
X183849958Y-109982096D01*
X183731228Y-109994575D01*
X183721071Y-109998033D01*
X183575956Y-110047434D01*
X183575953Y-110047435D01*
X183569289Y-110049704D01*
X183423588Y-110139340D01*
X183418557Y-110144267D01*
X183418554Y-110144269D01*
X183390810Y-110171438D01*
X183301366Y-110259028D01*
X183297547Y-110264953D01*
X183297546Y-110264955D01*
X183292135Y-110273352D01*
X183208698Y-110402820D01*
X183206287Y-110409443D01*
X183206286Y-110409446D01*
X183152600Y-110556947D01*
X183152599Y-110556952D01*
X183150190Y-110563570D01*
X183128750Y-110733286D01*
X160414978Y-110733286D01*
X160438975Y-110669839D01*
X160466327Y-110643232D01*
X160523009Y-110602801D01*
X160645860Y-110515173D01*
X160804096Y-110357489D01*
X160831035Y-110320000D01*
X160931435Y-110180277D01*
X160934453Y-110176077D01*
X160950174Y-110144269D01*
X161031136Y-109980453D01*
X161031137Y-109980451D01*
X161033430Y-109975811D01*
X161079328Y-109824743D01*
X161096865Y-109767023D01*
X161096865Y-109767021D01*
X161098370Y-109762069D01*
X161127529Y-109540590D01*
X161128633Y-109495425D01*
X161129074Y-109477365D01*
X161129074Y-109477361D01*
X161129156Y-109474000D01*
X161110852Y-109251361D01*
X161056431Y-109034702D01*
X160967354Y-108829840D01*
X160888227Y-108707528D01*
X160848822Y-108646617D01*
X160848820Y-108646614D01*
X160846014Y-108642277D01*
X160695670Y-108477051D01*
X160691619Y-108473852D01*
X160691615Y-108473848D01*
X160524414Y-108341800D01*
X160524410Y-108341798D01*
X160520359Y-108338598D01*
X160479053Y-108315796D01*
X160429084Y-108265364D01*
X160414312Y-108195921D01*
X160439428Y-108129516D01*
X160466780Y-108102909D01*
X160510603Y-108071650D01*
X160645860Y-107975173D01*
X160666881Y-107954226D01*
X160751957Y-107869446D01*
X160804096Y-107817489D01*
X160814648Y-107802805D01*
X160931435Y-107640277D01*
X160934453Y-107636077D01*
X160950174Y-107604269D01*
X161031136Y-107440453D01*
X161031137Y-107440451D01*
X161033430Y-107435811D01*
X161082260Y-107275092D01*
X161096865Y-107227023D01*
X161096865Y-107227021D01*
X161098370Y-107222069D01*
X161127529Y-107000590D01*
X161127611Y-106997240D01*
X161129074Y-106937365D01*
X161129074Y-106937361D01*
X161129156Y-106934000D01*
X161110852Y-106711361D01*
X161056431Y-106494702D01*
X160967354Y-106289840D01*
X160902827Y-106190096D01*
X160848822Y-106106617D01*
X160848820Y-106106614D01*
X160846014Y-106102277D01*
X160695670Y-105937051D01*
X160691619Y-105933852D01*
X160691615Y-105933848D01*
X160524414Y-105801800D01*
X160524410Y-105801798D01*
X160520359Y-105798598D01*
X160324789Y-105690638D01*
X160319920Y-105688914D01*
X160319916Y-105688912D01*
X160119087Y-105617795D01*
X160119083Y-105617794D01*
X160114212Y-105616069D01*
X160109119Y-105615162D01*
X160109116Y-105615161D01*
X159899373Y-105577800D01*
X159899367Y-105577799D01*
X159894284Y-105576894D01*
X159820452Y-105575992D01*
X159676081Y-105574228D01*
X159676079Y-105574228D01*
X159670911Y-105574165D01*
X159450091Y-105607955D01*
X159237756Y-105677357D01*
X159039607Y-105780507D01*
X159035474Y-105783610D01*
X159035471Y-105783612D01*
X158865100Y-105911530D01*
X158860965Y-105914635D01*
X158788627Y-105990333D01*
X158780283Y-105999064D01*
X158718759Y-106034494D01*
X158647846Y-106031037D01*
X158590060Y-105989791D01*
X158571207Y-105956243D01*
X158529767Y-105845703D01*
X158526615Y-105837295D01*
X158439261Y-105720739D01*
X158322705Y-105633385D01*
X158186316Y-105582255D01*
X158124134Y-105575500D01*
X156327866Y-105575500D01*
X156265684Y-105582255D01*
X156129295Y-105633385D01*
X156012739Y-105720739D01*
X155925385Y-105837295D01*
X155874255Y-105973684D01*
X155867500Y-106035866D01*
X155867500Y-107832134D01*
X155874255Y-107894316D01*
X155925385Y-108030705D01*
X156012739Y-108147261D01*
X156129295Y-108234615D01*
X156137704Y-108237767D01*
X156137705Y-108237768D01*
X156246451Y-108278535D01*
X156303216Y-108321176D01*
X156327916Y-108387738D01*
X156312709Y-108457087D01*
X156293316Y-108483568D01*
X156166629Y-108616138D01*
X156040743Y-108800680D01*
X156025003Y-108834590D01*
X155951760Y-108992379D01*
X155946688Y-109003305D01*
X155886989Y-109218570D01*
X155863251Y-109440695D01*
X155863548Y-109445848D01*
X155863548Y-109445851D01*
X155869011Y-109540590D01*
X155876110Y-109663715D01*
X155877247Y-109668761D01*
X155877248Y-109668767D01*
X155897119Y-109756939D01*
X155925222Y-109881639D01*
X155971080Y-109994575D01*
X155999772Y-110065234D01*
X156009266Y-110088616D01*
X156047490Y-110150992D01*
X156123291Y-110274688D01*
X156125987Y-110279088D01*
X156272250Y-110447938D01*
X156444126Y-110590632D01*
X156464951Y-110602801D01*
X156517445Y-110633476D01*
X156566169Y-110685114D01*
X156579240Y-110754897D01*
X156552509Y-110820669D01*
X156512055Y-110854027D01*
X156499607Y-110860507D01*
X156495474Y-110863610D01*
X156495471Y-110863612D01*
X156325100Y-110991530D01*
X156320965Y-110994635D01*
X156317393Y-110998373D01*
X156184403Y-111137539D01*
X156166629Y-111156138D01*
X156040743Y-111340680D01*
X156004750Y-111418221D01*
X155951760Y-111532379D01*
X155946688Y-111543305D01*
X155886989Y-111758570D01*
X155863251Y-111980695D01*
X154433589Y-111980695D01*
X154418256Y-111844000D01*
X154406865Y-111811287D01*
X154364314Y-111689097D01*
X154364313Y-111689095D01*
X154361999Y-111682450D01*
X154297713Y-111579570D01*
X154275081Y-111543352D01*
X154271348Y-111537378D01*
X154229914Y-111495653D01*
X154177418Y-111442790D01*
X154150809Y-111415994D01*
X154060693Y-111358805D01*
X154012316Y-111328104D01*
X154012313Y-111328102D01*
X154006373Y-111324333D01*
X153999740Y-111321971D01*
X153851854Y-111269311D01*
X153851849Y-111269310D01*
X153845219Y-111266949D01*
X153838233Y-111266116D01*
X153838229Y-111266115D01*
X153788390Y-111260172D01*
X153773885Y-111258443D01*
X153708612Y-111230516D01*
X153668799Y-111171732D01*
X153663589Y-111147374D01*
X153657041Y-111088997D01*
X153657041Y-111088996D01*
X153656256Y-111082000D01*
X153653507Y-111074104D01*
X153602314Y-110927097D01*
X153602313Y-110927095D01*
X153599999Y-110920450D01*
X153562543Y-110860507D01*
X153513081Y-110781352D01*
X153509348Y-110775378D01*
X153496159Y-110762096D01*
X153443552Y-110709121D01*
X153409745Y-110646690D01*
X153408184Y-110602801D01*
X153420475Y-110515348D01*
X153420475Y-110515343D01*
X153421026Y-110511425D01*
X153421325Y-110490000D01*
X153402256Y-110320000D01*
X153396321Y-110302955D01*
X153348314Y-110165097D01*
X153348313Y-110165095D01*
X153345999Y-110158450D01*
X153255348Y-110013378D01*
X153239034Y-109996949D01*
X153135692Y-109892883D01*
X153101885Y-109830452D01*
X153107310Y-109759356D01*
X153140717Y-109671412D01*
X153140719Y-109671406D01*
X153143218Y-109664826D01*
X153160212Y-109543908D01*
X153166475Y-109499347D01*
X153166475Y-109499344D01*
X153167026Y-109495425D01*
X153167325Y-109474000D01*
X153148256Y-109304000D01*
X153129926Y-109251361D01*
X153094314Y-109149097D01*
X153094313Y-109149095D01*
X153091999Y-109142450D01*
X153001348Y-108997378D01*
X152989460Y-108985406D01*
X152907418Y-108902790D01*
X152880809Y-108875994D01*
X152790403Y-108818621D01*
X152742316Y-108788104D01*
X152742313Y-108788102D01*
X152736373Y-108784333D01*
X152729740Y-108781971D01*
X152581854Y-108729311D01*
X152581849Y-108729310D01*
X152575219Y-108726949D01*
X152568231Y-108726116D01*
X152568228Y-108726115D01*
X152452655Y-108712334D01*
X152405357Y-108706694D01*
X152398354Y-108707430D01*
X152398353Y-108707430D01*
X152353958Y-108712096D01*
X152235228Y-108724575D01*
X152225071Y-108728033D01*
X152079956Y-108777434D01*
X152079953Y-108777435D01*
X152073289Y-108779704D01*
X151927588Y-108869340D01*
X151922557Y-108874267D01*
X151922554Y-108874269D01*
X151863573Y-108932028D01*
X151805366Y-108989028D01*
X151801547Y-108994953D01*
X151801546Y-108994955D01*
X151799191Y-108998610D01*
X151712698Y-109132820D01*
X151710287Y-109139443D01*
X151710286Y-109139446D01*
X151656600Y-109286947D01*
X151656599Y-109286952D01*
X151654190Y-109293570D01*
X151632750Y-109463286D01*
X112268500Y-109463286D01*
X112268500Y-108193286D01*
X139186750Y-108193286D01*
X139203443Y-108363536D01*
X139257440Y-108525856D01*
X139261087Y-108531878D01*
X139261088Y-108531880D01*
X139342406Y-108666154D01*
X139342409Y-108666157D01*
X139346056Y-108672180D01*
X139464889Y-108795234D01*
X139525031Y-108834590D01*
X139595941Y-108880992D01*
X139608030Y-108888903D01*
X139614634Y-108891359D01*
X139614636Y-108891360D01*
X139761757Y-108946074D01*
X139761759Y-108946074D01*
X139768367Y-108948532D01*
X139847454Y-108959085D01*
X139930949Y-108970226D01*
X139930953Y-108970226D01*
X139937930Y-108971157D01*
X139944941Y-108970519D01*
X139944945Y-108970519D01*
X140101273Y-108956292D01*
X140101275Y-108956292D01*
X140108292Y-108955653D01*
X140114990Y-108953477D01*
X140114993Y-108953476D01*
X140264289Y-108904966D01*
X140264291Y-108904965D01*
X140270985Y-108902790D01*
X140393360Y-108829840D01*
X140411872Y-108818805D01*
X140411874Y-108818804D01*
X140417924Y-108815197D01*
X140541805Y-108697227D01*
X140555079Y-108677249D01*
X140632570Y-108560614D01*
X140636471Y-108554743D01*
X140697218Y-108394826D01*
X140704060Y-108346143D01*
X140720475Y-108229347D01*
X140720475Y-108229344D01*
X140721026Y-108225425D01*
X140721325Y-108204000D01*
X140702256Y-108034000D01*
X140674801Y-107955157D01*
X140648314Y-107879097D01*
X140648313Y-107879095D01*
X140645999Y-107872450D01*
X140622930Y-107835531D01*
X140559081Y-107733352D01*
X140555348Y-107727378D01*
X140542159Y-107714096D01*
X140468853Y-107640277D01*
X140434809Y-107605994D01*
X140338089Y-107544614D01*
X140296316Y-107518104D01*
X140296313Y-107518102D01*
X140290373Y-107514333D01*
X140277800Y-107509856D01*
X140135854Y-107459311D01*
X140135849Y-107459310D01*
X140129219Y-107456949D01*
X140122231Y-107456116D01*
X140122228Y-107456115D01*
X140006655Y-107442334D01*
X139959357Y-107436694D01*
X139952354Y-107437430D01*
X139952353Y-107437430D01*
X139907958Y-107442096D01*
X139789228Y-107454575D01*
X139779071Y-107458033D01*
X139633956Y-107507434D01*
X139633953Y-107507435D01*
X139627289Y-107509704D01*
X139481588Y-107599340D01*
X139476557Y-107604267D01*
X139476554Y-107604269D01*
X139469689Y-107610992D01*
X139359366Y-107719028D01*
X139355547Y-107724953D01*
X139355546Y-107724955D01*
X139350135Y-107733352D01*
X139266698Y-107862820D01*
X139264287Y-107869443D01*
X139264286Y-107869446D01*
X139210600Y-108016947D01*
X139210599Y-108016952D01*
X139208190Y-108023570D01*
X139186750Y-108193286D01*
X112268500Y-108193286D01*
X112268500Y-106669286D01*
X145536750Y-106669286D01*
X145553443Y-106839536D01*
X145607440Y-107001856D01*
X145611087Y-107007878D01*
X145611088Y-107007880D01*
X145692406Y-107142154D01*
X145692409Y-107142157D01*
X145696056Y-107148180D01*
X145814889Y-107271234D01*
X145820785Y-107275092D01*
X145920780Y-107340527D01*
X145958030Y-107364903D01*
X145964634Y-107367359D01*
X145964636Y-107367360D01*
X146111757Y-107422074D01*
X146111759Y-107422074D01*
X146118367Y-107424532D01*
X146197454Y-107435085D01*
X146280949Y-107446226D01*
X146280953Y-107446226D01*
X146287930Y-107447157D01*
X146294941Y-107446519D01*
X146294945Y-107446519D01*
X146451273Y-107432292D01*
X146451275Y-107432292D01*
X146458292Y-107431653D01*
X146464990Y-107429477D01*
X146464993Y-107429476D01*
X146614289Y-107380966D01*
X146614291Y-107380965D01*
X146620985Y-107378790D01*
X146767924Y-107291197D01*
X146887543Y-107177286D01*
X152902750Y-107177286D01*
X152919443Y-107347536D01*
X152973440Y-107509856D01*
X152977087Y-107515878D01*
X152977088Y-107515880D01*
X153058406Y-107650154D01*
X153058409Y-107650157D01*
X153062056Y-107656180D01*
X153180889Y-107779234D01*
X153186785Y-107783092D01*
X153308622Y-107862820D01*
X153324030Y-107872903D01*
X153330634Y-107875359D01*
X153330636Y-107875360D01*
X153477757Y-107930074D01*
X153477759Y-107930074D01*
X153484367Y-107932532D01*
X153563454Y-107943085D01*
X153646949Y-107954226D01*
X153646953Y-107954226D01*
X153653930Y-107955157D01*
X153660941Y-107954519D01*
X153660945Y-107954519D01*
X153817273Y-107940292D01*
X153817275Y-107940292D01*
X153824292Y-107939653D01*
X153830990Y-107937477D01*
X153830993Y-107937476D01*
X153980289Y-107888966D01*
X153980291Y-107888965D01*
X153986985Y-107886790D01*
X154084404Y-107828717D01*
X154127872Y-107802805D01*
X154127874Y-107802804D01*
X154133924Y-107799197D01*
X154257805Y-107681227D01*
X154271079Y-107661249D01*
X154310296Y-107602221D01*
X154352471Y-107538743D01*
X154413218Y-107378826D01*
X154414198Y-107371854D01*
X154436475Y-107213347D01*
X154436475Y-107213344D01*
X154437026Y-107209425D01*
X154437325Y-107188000D01*
X154418256Y-107018000D01*
X154412635Y-107001856D01*
X154364314Y-106863097D01*
X154364313Y-106863095D01*
X154361999Y-106856450D01*
X154271348Y-106711378D01*
X154258159Y-106698096D01*
X154155772Y-106594992D01*
X154150809Y-106589994D01*
X154035785Y-106516998D01*
X154012316Y-106502104D01*
X154012313Y-106502102D01*
X154006373Y-106498333D01*
X153996176Y-106494702D01*
X153851854Y-106443311D01*
X153851849Y-106443310D01*
X153845219Y-106440949D01*
X153838231Y-106440116D01*
X153838228Y-106440115D01*
X153722655Y-106426334D01*
X153675357Y-106420694D01*
X153668354Y-106421430D01*
X153668353Y-106421430D01*
X153623958Y-106426096D01*
X153505228Y-106438575D01*
X153495071Y-106442033D01*
X153349956Y-106491434D01*
X153349953Y-106491435D01*
X153343289Y-106493704D01*
X153197588Y-106583340D01*
X153192557Y-106588267D01*
X153192554Y-106588269D01*
X153185689Y-106594992D01*
X153075366Y-106703028D01*
X153071547Y-106708953D01*
X153071546Y-106708955D01*
X153066135Y-106717352D01*
X152982698Y-106846820D01*
X152980287Y-106853443D01*
X152980286Y-106853446D01*
X152926600Y-107000947D01*
X152926599Y-107000952D01*
X152924190Y-107007570D01*
X152902750Y-107177286D01*
X146887543Y-107177286D01*
X146891805Y-107173227D01*
X146905079Y-107153249D01*
X146982570Y-107036614D01*
X146986471Y-107030743D01*
X147047218Y-106870826D01*
X147048304Y-106863097D01*
X147070475Y-106705347D01*
X147070475Y-106705344D01*
X147071026Y-106701425D01*
X147071325Y-106680000D01*
X147052256Y-106510000D01*
X147049507Y-106502104D01*
X146998314Y-106355097D01*
X146998313Y-106355095D01*
X146995999Y-106348450D01*
X146956659Y-106285492D01*
X146909081Y-106209352D01*
X146905348Y-106203378D01*
X146892159Y-106190096D01*
X146846024Y-106143638D01*
X146784809Y-106081994D01*
X146704513Y-106031037D01*
X146646316Y-105994104D01*
X146646313Y-105994102D01*
X146640373Y-105990333D01*
X146633740Y-105987971D01*
X146485854Y-105935311D01*
X146485849Y-105935310D01*
X146479219Y-105932949D01*
X146472231Y-105932116D01*
X146472228Y-105932115D01*
X146356655Y-105918334D01*
X146309357Y-105912694D01*
X146302354Y-105913430D01*
X146302353Y-105913430D01*
X146257958Y-105918096D01*
X146139228Y-105930575D01*
X146129614Y-105933848D01*
X145983956Y-105983434D01*
X145983953Y-105983435D01*
X145977289Y-105985704D01*
X145831588Y-106075340D01*
X145826557Y-106080267D01*
X145826554Y-106080269D01*
X145767573Y-106138028D01*
X145709366Y-106195028D01*
X145705547Y-106200953D01*
X145705546Y-106200955D01*
X145678688Y-106242631D01*
X145616698Y-106338820D01*
X145614287Y-106345443D01*
X145614286Y-106345446D01*
X145560600Y-106492947D01*
X145560599Y-106492952D01*
X145558190Y-106499570D01*
X145536750Y-106669286D01*
X112268500Y-106669286D01*
X112268500Y-105782634D01*
X125867000Y-105782634D01*
X125873755Y-105844816D01*
X125924885Y-105981205D01*
X126012239Y-106097761D01*
X126128795Y-106185115D01*
X126265184Y-106236245D01*
X126327366Y-106243000D01*
X129048634Y-106243000D01*
X129110816Y-106236245D01*
X129247205Y-106185115D01*
X129363761Y-106097761D01*
X129451115Y-105981205D01*
X129502245Y-105844816D01*
X129509000Y-105782634D01*
X129509000Y-104129286D01*
X152648750Y-104129286D01*
X152665443Y-104299536D01*
X152719440Y-104461856D01*
X152723087Y-104467878D01*
X152723088Y-104467880D01*
X152804406Y-104602154D01*
X152804409Y-104602157D01*
X152808056Y-104608180D01*
X152926889Y-104731234D01*
X153070030Y-104824903D01*
X153076634Y-104827359D01*
X153076636Y-104827360D01*
X153223757Y-104882074D01*
X153223759Y-104882074D01*
X153230367Y-104884532D01*
X153309454Y-104895085D01*
X153392949Y-104906226D01*
X153392953Y-104906226D01*
X153399930Y-104907157D01*
X153406941Y-104906519D01*
X153406945Y-104906519D01*
X153563273Y-104892292D01*
X153563275Y-104892292D01*
X153570292Y-104891653D01*
X153576990Y-104889477D01*
X153576993Y-104889476D01*
X153726289Y-104840966D01*
X153726291Y-104840965D01*
X153732985Y-104838790D01*
X153879924Y-104751197D01*
X154003805Y-104633227D01*
X154017079Y-104613249D01*
X154094570Y-104496614D01*
X154098471Y-104490743D01*
X154139290Y-104383286D01*
X161284750Y-104383286D01*
X161301443Y-104553536D01*
X161355440Y-104715856D01*
X161359087Y-104721878D01*
X161359088Y-104721880D01*
X161440406Y-104856154D01*
X161440409Y-104856157D01*
X161444056Y-104862180D01*
X161562889Y-104985234D01*
X161706030Y-105078903D01*
X161712634Y-105081359D01*
X161712636Y-105081360D01*
X161859757Y-105136074D01*
X161859759Y-105136074D01*
X161866367Y-105138532D01*
X161945454Y-105149085D01*
X162028949Y-105160226D01*
X162028953Y-105160226D01*
X162035930Y-105161157D01*
X162042941Y-105160519D01*
X162042945Y-105160519D01*
X162199273Y-105146292D01*
X162199275Y-105146292D01*
X162206292Y-105145653D01*
X162212990Y-105143477D01*
X162212993Y-105143476D01*
X162362289Y-105094966D01*
X162362291Y-105094965D01*
X162368985Y-105092790D01*
X162515924Y-105005197D01*
X162639805Y-104887227D01*
X162653079Y-104867249D01*
X162730570Y-104750614D01*
X162734471Y-104744743D01*
X162795218Y-104584826D01*
X162811654Y-104467880D01*
X162818475Y-104419347D01*
X162818475Y-104419344D01*
X162819026Y-104415425D01*
X162819325Y-104394000D01*
X162818123Y-104383286D01*
X172460750Y-104383286D01*
X172477443Y-104553536D01*
X172531440Y-104715856D01*
X172535087Y-104721878D01*
X172535088Y-104721880D01*
X172616406Y-104856154D01*
X172616409Y-104856157D01*
X172620056Y-104862180D01*
X172738889Y-104985234D01*
X172882030Y-105078903D01*
X172888634Y-105081359D01*
X172888636Y-105081360D01*
X173035757Y-105136074D01*
X173035759Y-105136074D01*
X173042367Y-105138532D01*
X173121454Y-105149085D01*
X173204949Y-105160226D01*
X173204953Y-105160226D01*
X173211930Y-105161157D01*
X173218941Y-105160519D01*
X173218945Y-105160519D01*
X173375273Y-105146292D01*
X173375275Y-105146292D01*
X173382292Y-105145653D01*
X173388990Y-105143477D01*
X173388993Y-105143476D01*
X173538289Y-105094966D01*
X173538291Y-105094965D01*
X173544985Y-105092790D01*
X173691924Y-105005197D01*
X173815805Y-104887227D01*
X173829079Y-104867249D01*
X173906570Y-104750614D01*
X173910471Y-104744743D01*
X173971218Y-104584826D01*
X173987654Y-104467880D01*
X173994475Y-104419347D01*
X173994475Y-104419344D01*
X173995026Y-104415425D01*
X173995325Y-104394000D01*
X173976256Y-104224000D01*
X173954466Y-104161425D01*
X173922314Y-104069097D01*
X173922313Y-104069095D01*
X173919999Y-104062450D01*
X173855713Y-103959570D01*
X173833081Y-103923352D01*
X173829348Y-103917378D01*
X173816159Y-103904096D01*
X173713772Y-103800992D01*
X173708809Y-103795994D01*
X173643539Y-103754573D01*
X173570316Y-103708104D01*
X173570313Y-103708102D01*
X173564373Y-103704333D01*
X173557740Y-103701971D01*
X173409854Y-103649311D01*
X173409849Y-103649310D01*
X173403219Y-103646949D01*
X173396231Y-103646116D01*
X173396228Y-103646115D01*
X173280655Y-103632334D01*
X173233357Y-103626694D01*
X173226354Y-103627430D01*
X173226353Y-103627430D01*
X173181958Y-103632096D01*
X173063228Y-103644575D01*
X173053071Y-103648033D01*
X172907956Y-103697434D01*
X172907953Y-103697435D01*
X172901289Y-103699704D01*
X172755588Y-103789340D01*
X172750557Y-103794267D01*
X172750554Y-103794269D01*
X172691573Y-103852028D01*
X172633366Y-103909028D01*
X172629547Y-103914953D01*
X172629546Y-103914955D01*
X172624135Y-103923352D01*
X172540698Y-104052820D01*
X172538287Y-104059443D01*
X172538286Y-104059446D01*
X172484600Y-104206947D01*
X172484599Y-104206952D01*
X172482190Y-104213570D01*
X172460750Y-104383286D01*
X162818123Y-104383286D01*
X162800256Y-104224000D01*
X162778466Y-104161425D01*
X162746314Y-104069097D01*
X162746313Y-104069095D01*
X162743999Y-104062450D01*
X162679713Y-103959570D01*
X162657081Y-103923352D01*
X162653348Y-103917378D01*
X162640159Y-103904096D01*
X162537772Y-103800992D01*
X162532809Y-103795994D01*
X162467539Y-103754573D01*
X162394316Y-103708104D01*
X162394313Y-103708102D01*
X162388373Y-103704333D01*
X162381740Y-103701971D01*
X162233854Y-103649311D01*
X162233849Y-103649310D01*
X162227219Y-103646949D01*
X162220231Y-103646116D01*
X162220228Y-103646115D01*
X162104655Y-103632334D01*
X162057357Y-103626694D01*
X162050354Y-103627430D01*
X162050353Y-103627430D01*
X162005958Y-103632096D01*
X161887228Y-103644575D01*
X161877071Y-103648033D01*
X161731956Y-103697434D01*
X161731953Y-103697435D01*
X161725289Y-103699704D01*
X161579588Y-103789340D01*
X161574557Y-103794267D01*
X161574554Y-103794269D01*
X161515573Y-103852028D01*
X161457366Y-103909028D01*
X161453547Y-103914953D01*
X161453546Y-103914955D01*
X161448135Y-103923352D01*
X161364698Y-104052820D01*
X161362287Y-104059443D01*
X161362286Y-104059446D01*
X161308600Y-104206947D01*
X161308599Y-104206952D01*
X161306190Y-104213570D01*
X161284750Y-104383286D01*
X154139290Y-104383286D01*
X154159218Y-104330826D01*
X154175166Y-104217351D01*
X154182475Y-104165347D01*
X154182475Y-104165344D01*
X154183026Y-104161425D01*
X154183325Y-104140000D01*
X154164256Y-103970000D01*
X154145932Y-103917378D01*
X154110314Y-103815097D01*
X154110313Y-103815095D01*
X154107999Y-103808450D01*
X154017348Y-103663378D01*
X154004159Y-103650096D01*
X153901772Y-103546992D01*
X153896809Y-103541994D01*
X153831539Y-103500573D01*
X153758316Y-103454104D01*
X153758313Y-103454102D01*
X153752373Y-103450333D01*
X153745740Y-103447971D01*
X153597854Y-103395311D01*
X153597849Y-103395310D01*
X153591219Y-103392949D01*
X153584231Y-103392116D01*
X153584228Y-103392115D01*
X153468655Y-103378334D01*
X153421357Y-103372694D01*
X153414354Y-103373430D01*
X153414353Y-103373430D01*
X153369958Y-103378096D01*
X153251228Y-103390575D01*
X153241071Y-103394033D01*
X153095956Y-103443434D01*
X153095953Y-103443435D01*
X153089289Y-103445704D01*
X152943588Y-103535340D01*
X152938557Y-103540267D01*
X152938554Y-103540269D01*
X152931689Y-103546992D01*
X152821366Y-103655028D01*
X152817547Y-103660953D01*
X152817546Y-103660955D01*
X152812135Y-103669352D01*
X152728698Y-103798820D01*
X152726287Y-103805443D01*
X152726286Y-103805446D01*
X152672600Y-103952947D01*
X152672599Y-103952952D01*
X152670190Y-103959570D01*
X152648750Y-104129286D01*
X129509000Y-104129286D01*
X129509000Y-103061366D01*
X129502245Y-102999184D01*
X129451115Y-102862795D01*
X129363761Y-102746239D01*
X129247205Y-102658885D01*
X129110816Y-102607755D01*
X129088088Y-102605286D01*
X162808750Y-102605286D01*
X162825443Y-102775536D01*
X162879440Y-102937856D01*
X162883087Y-102943878D01*
X162883088Y-102943880D01*
X162964406Y-103078154D01*
X162964409Y-103078157D01*
X162968056Y-103084180D01*
X163086889Y-103207234D01*
X163230030Y-103300903D01*
X163236634Y-103303359D01*
X163236636Y-103303360D01*
X163383757Y-103358074D01*
X163383759Y-103358074D01*
X163390367Y-103360532D01*
X163469454Y-103371085D01*
X163552949Y-103382226D01*
X163552953Y-103382226D01*
X163559930Y-103383157D01*
X163566941Y-103382519D01*
X163566945Y-103382519D01*
X163723273Y-103368292D01*
X163723275Y-103368292D01*
X163730292Y-103367653D01*
X163736990Y-103365477D01*
X163736993Y-103365476D01*
X163886289Y-103316966D01*
X163886291Y-103316965D01*
X163892985Y-103314790D01*
X164039924Y-103227197D01*
X164163805Y-103109227D01*
X164177079Y-103089249D01*
X164254570Y-102972614D01*
X164258471Y-102966743D01*
X164319218Y-102806826D01*
X164343026Y-102637425D01*
X164343325Y-102616000D01*
X164324256Y-102446000D01*
X164279040Y-102316154D01*
X164270314Y-102291097D01*
X164270313Y-102291095D01*
X164267999Y-102284450D01*
X164177348Y-102139378D01*
X164164159Y-102126096D01*
X164061772Y-102022992D01*
X164056809Y-102017994D01*
X163991539Y-101976573D01*
X163918316Y-101930104D01*
X163918313Y-101930102D01*
X163912373Y-101926333D01*
X163905740Y-101923971D01*
X163757854Y-101871311D01*
X163757849Y-101871310D01*
X163751219Y-101868949D01*
X163744231Y-101868116D01*
X163744228Y-101868115D01*
X163625854Y-101854000D01*
X163581357Y-101848694D01*
X163574354Y-101849430D01*
X163574353Y-101849430D01*
X163530873Y-101854000D01*
X163411228Y-101866575D01*
X163401071Y-101870033D01*
X163255956Y-101919434D01*
X163255953Y-101919435D01*
X163249289Y-101921704D01*
X163103588Y-102011340D01*
X163098557Y-102016267D01*
X163098554Y-102016269D01*
X163039573Y-102074028D01*
X162981366Y-102131028D01*
X162977547Y-102136953D01*
X162977546Y-102136955D01*
X162972135Y-102145352D01*
X162888698Y-102274820D01*
X162886287Y-102281443D01*
X162886286Y-102281446D01*
X162832600Y-102428947D01*
X162832599Y-102428952D01*
X162830190Y-102435570D01*
X162808750Y-102605286D01*
X129088088Y-102605286D01*
X129048634Y-102601000D01*
X126327366Y-102601000D01*
X126265184Y-102607755D01*
X126128795Y-102658885D01*
X126012239Y-102746239D01*
X125924885Y-102862795D01*
X125873755Y-102999184D01*
X125867000Y-103061366D01*
X125867000Y-105782634D01*
X112268500Y-105782634D01*
X112268500Y-101843286D01*
X170936750Y-101843286D01*
X170953443Y-102013536D01*
X171007440Y-102175856D01*
X171011087Y-102181878D01*
X171011088Y-102181880D01*
X171092406Y-102316154D01*
X171092409Y-102316157D01*
X171096056Y-102322180D01*
X171214889Y-102445234D01*
X171358030Y-102538903D01*
X171364634Y-102541359D01*
X171364636Y-102541360D01*
X171511757Y-102596074D01*
X171511759Y-102596074D01*
X171518367Y-102598532D01*
X171587489Y-102607755D01*
X171680949Y-102620226D01*
X171680953Y-102620226D01*
X171687930Y-102621157D01*
X171694941Y-102620519D01*
X171694945Y-102620519D01*
X171851273Y-102606292D01*
X171851275Y-102606292D01*
X171858292Y-102605653D01*
X171864990Y-102603477D01*
X171864993Y-102603476D01*
X172014289Y-102554966D01*
X172014291Y-102554965D01*
X172020985Y-102552790D01*
X172167924Y-102465197D01*
X172291805Y-102347227D01*
X172305079Y-102327249D01*
X172382570Y-102210614D01*
X172386471Y-102204743D01*
X172447218Y-102044826D01*
X172450989Y-102017994D01*
X172470475Y-101879347D01*
X172470475Y-101879344D01*
X172471026Y-101875425D01*
X172471325Y-101854000D01*
X172452256Y-101684000D01*
X172439370Y-101646994D01*
X172398314Y-101529097D01*
X172398313Y-101529095D01*
X172395999Y-101522450D01*
X172305348Y-101377378D01*
X172292159Y-101364096D01*
X172189772Y-101260992D01*
X172184809Y-101255994D01*
X172117601Y-101213343D01*
X172046316Y-101168104D01*
X172046313Y-101168102D01*
X172040373Y-101164333D01*
X172033740Y-101161971D01*
X171885854Y-101109311D01*
X171885849Y-101109310D01*
X171879219Y-101106949D01*
X171872231Y-101106116D01*
X171872228Y-101106115D01*
X171756655Y-101092334D01*
X171709357Y-101086694D01*
X171702354Y-101087430D01*
X171702353Y-101087430D01*
X171657958Y-101092096D01*
X171539228Y-101104575D01*
X171529071Y-101108033D01*
X171383956Y-101157434D01*
X171383953Y-101157435D01*
X171377289Y-101159704D01*
X171231588Y-101249340D01*
X171226557Y-101254267D01*
X171226554Y-101254269D01*
X171219689Y-101260992D01*
X171109366Y-101369028D01*
X171105547Y-101374953D01*
X171105546Y-101374955D01*
X171100135Y-101383352D01*
X171016698Y-101512820D01*
X171014287Y-101519443D01*
X171014286Y-101519446D01*
X170960600Y-101666947D01*
X170960599Y-101666952D01*
X170958190Y-101673570D01*
X170936750Y-101843286D01*
X112268500Y-101843286D01*
X112268500Y-99774198D01*
X125862520Y-99774198D01*
X125862744Y-99778864D01*
X125862744Y-99778869D01*
X125864301Y-99811286D01*
X125875506Y-100044546D01*
X125893931Y-100137173D01*
X125925374Y-100295249D01*
X125928309Y-100310006D01*
X125929888Y-100314404D01*
X125929890Y-100314411D01*
X125978871Y-100450833D01*
X126019769Y-100564744D01*
X126147878Y-100803166D01*
X126309820Y-101020033D01*
X126313129Y-101023313D01*
X126313134Y-101023319D01*
X126498722Y-101207294D01*
X126502039Y-101210582D01*
X126505801Y-101213340D01*
X126505804Y-101213343D01*
X126549864Y-101245649D01*
X126720311Y-101370626D01*
X126724442Y-101372800D01*
X126724443Y-101372800D01*
X126955707Y-101494474D01*
X126955713Y-101494476D01*
X126959842Y-101496649D01*
X126964249Y-101498188D01*
X126964256Y-101498191D01*
X127210953Y-101584341D01*
X127215369Y-101585883D01*
X127219962Y-101586755D01*
X127476690Y-101635497D01*
X127476693Y-101635497D01*
X127481279Y-101636368D01*
X127609855Y-101641420D01*
X127747062Y-101646811D01*
X127747067Y-101646811D01*
X127751730Y-101646994D01*
X127856708Y-101635497D01*
X128016128Y-101618038D01*
X128016133Y-101618037D01*
X128020781Y-101617528D01*
X128025305Y-101616337D01*
X128277999Y-101549808D01*
X128278001Y-101549807D01*
X128282522Y-101548617D01*
X128350420Y-101519446D01*
X128526908Y-101443621D01*
X128526910Y-101443620D01*
X128531202Y-101441776D01*
X128656731Y-101364096D01*
X128757385Y-101301810D01*
X128757389Y-101301807D01*
X128761358Y-101299351D01*
X128806670Y-101260992D01*
X128964368Y-101127491D01*
X128964370Y-101127489D01*
X128967935Y-101124471D01*
X129146393Y-100920978D01*
X129292813Y-100693342D01*
X129403978Y-100446565D01*
X129477446Y-100186067D01*
X129493552Y-100059464D01*
X129511205Y-99920701D01*
X129511205Y-99920697D01*
X129511603Y-99917571D01*
X129514106Y-99822000D01*
X129513310Y-99811286D01*
X146044750Y-99811286D01*
X146061443Y-99981536D01*
X146115440Y-100143856D01*
X146119087Y-100149878D01*
X146119088Y-100149880D01*
X146200406Y-100284154D01*
X146200409Y-100284157D01*
X146204056Y-100290180D01*
X146322889Y-100413234D01*
X146466030Y-100506903D01*
X146472634Y-100509359D01*
X146472636Y-100509360D01*
X146619757Y-100564074D01*
X146619759Y-100564074D01*
X146626367Y-100566532D01*
X146705454Y-100577085D01*
X146788949Y-100588226D01*
X146788953Y-100588226D01*
X146795930Y-100589157D01*
X146802941Y-100588519D01*
X146802945Y-100588519D01*
X146959273Y-100574292D01*
X146959275Y-100574292D01*
X146966292Y-100573653D01*
X146972990Y-100571477D01*
X146972993Y-100571476D01*
X147122289Y-100522966D01*
X147122291Y-100522965D01*
X147128985Y-100520790D01*
X147164369Y-100499697D01*
X147269872Y-100436805D01*
X147269874Y-100436804D01*
X147275924Y-100433197D01*
X147399805Y-100315227D01*
X147413079Y-100295249D01*
X147482630Y-100190565D01*
X147494471Y-100172743D01*
X147543169Y-100044546D01*
X147552718Y-100019408D01*
X147552719Y-100019406D01*
X147555218Y-100012826D01*
X147556198Y-100005854D01*
X147578475Y-99847347D01*
X147578475Y-99847344D01*
X147579026Y-99843425D01*
X147579325Y-99822000D01*
X147578123Y-99811286D01*
X148076750Y-99811286D01*
X148093443Y-99981536D01*
X148147440Y-100143856D01*
X148151087Y-100149878D01*
X148151088Y-100149880D01*
X148232406Y-100284154D01*
X148232409Y-100284157D01*
X148236056Y-100290180D01*
X148354889Y-100413234D01*
X148498030Y-100506903D01*
X148504634Y-100509359D01*
X148504636Y-100509360D01*
X148651757Y-100564074D01*
X148651759Y-100564074D01*
X148658367Y-100566532D01*
X148737454Y-100577085D01*
X148820949Y-100588226D01*
X148820953Y-100588226D01*
X148827930Y-100589157D01*
X148834941Y-100588519D01*
X148834945Y-100588519D01*
X148991273Y-100574292D01*
X148991275Y-100574292D01*
X148998292Y-100573653D01*
X149004990Y-100571477D01*
X149004993Y-100571476D01*
X149154289Y-100522966D01*
X149154291Y-100522965D01*
X149160985Y-100520790D01*
X149196369Y-100499697D01*
X149301872Y-100436805D01*
X149301874Y-100436804D01*
X149307924Y-100433197D01*
X149431805Y-100315227D01*
X149445079Y-100295249D01*
X149514630Y-100190565D01*
X149526471Y-100172743D01*
X149575169Y-100044546D01*
X149584718Y-100019408D01*
X149584719Y-100019406D01*
X149587218Y-100012826D01*
X149588198Y-100005854D01*
X149610475Y-99847347D01*
X149610475Y-99847344D01*
X149611026Y-99843425D01*
X149611325Y-99822000D01*
X149592256Y-99652000D01*
X149586635Y-99635856D01*
X149538314Y-99497097D01*
X149538313Y-99497095D01*
X149535999Y-99490450D01*
X149490226Y-99417197D01*
X149449081Y-99351352D01*
X149445348Y-99345378D01*
X149432159Y-99332096D01*
X149403549Y-99303286D01*
X152140750Y-99303286D01*
X152157443Y-99473536D01*
X152211440Y-99635856D01*
X152215087Y-99641878D01*
X152215088Y-99641880D01*
X152296406Y-99776154D01*
X152296409Y-99776157D01*
X152300056Y-99782180D01*
X152418889Y-99905234D01*
X152424785Y-99909092D01*
X152524780Y-99974527D01*
X152562030Y-99998903D01*
X152568634Y-100001359D01*
X152568636Y-100001360D01*
X152715757Y-100056074D01*
X152715759Y-100056074D01*
X152722367Y-100058532D01*
X152801454Y-100069085D01*
X152884949Y-100080226D01*
X152884953Y-100080226D01*
X152891930Y-100081157D01*
X152898941Y-100080519D01*
X152898945Y-100080519D01*
X153055273Y-100066292D01*
X153055275Y-100066292D01*
X153062292Y-100065653D01*
X153068990Y-100063477D01*
X153068993Y-100063476D01*
X153218289Y-100014966D01*
X153218291Y-100014965D01*
X153224985Y-100012790D01*
X153371924Y-99925197D01*
X153495805Y-99807227D01*
X153509079Y-99787249D01*
X153586570Y-99670614D01*
X153590471Y-99664743D01*
X153651218Y-99504826D01*
X153652304Y-99497097D01*
X153674475Y-99339347D01*
X153674475Y-99339344D01*
X153675026Y-99335425D01*
X153675325Y-99314000D01*
X153656256Y-99144000D01*
X153653507Y-99136104D01*
X153602314Y-98989097D01*
X153602313Y-98989095D01*
X153599999Y-98982450D01*
X153509348Y-98837378D01*
X153496159Y-98824096D01*
X153467549Y-98795286D01*
X162808750Y-98795286D01*
X162825443Y-98965536D01*
X162879440Y-99127856D01*
X162883087Y-99133878D01*
X162883088Y-99133880D01*
X162964406Y-99268154D01*
X162964409Y-99268157D01*
X162968056Y-99274180D01*
X163086889Y-99397234D01*
X163092785Y-99401092D01*
X163214622Y-99480820D01*
X163230030Y-99490903D01*
X163236634Y-99493359D01*
X163236636Y-99493360D01*
X163383757Y-99548074D01*
X163383759Y-99548074D01*
X163390367Y-99550532D01*
X163469454Y-99561085D01*
X163552949Y-99572226D01*
X163552953Y-99572226D01*
X163559930Y-99573157D01*
X163566941Y-99572519D01*
X163566945Y-99572519D01*
X163723273Y-99558292D01*
X163723275Y-99558292D01*
X163730292Y-99557653D01*
X163736990Y-99555477D01*
X163736993Y-99555476D01*
X163886289Y-99506966D01*
X163886291Y-99506965D01*
X163892985Y-99504790D01*
X164039924Y-99417197D01*
X164163805Y-99299227D01*
X164168172Y-99292655D01*
X164216296Y-99220221D01*
X164258471Y-99156743D01*
X164319218Y-98996826D01*
X164320323Y-98988964D01*
X164342475Y-98831347D01*
X164342475Y-98831344D01*
X164343026Y-98827425D01*
X164343325Y-98806000D01*
X164324256Y-98636000D01*
X164321507Y-98628104D01*
X164270314Y-98481097D01*
X164270313Y-98481095D01*
X164267999Y-98474450D01*
X164222226Y-98401197D01*
X164181081Y-98335352D01*
X164177348Y-98329378D01*
X164164159Y-98316096D01*
X164099750Y-98251236D01*
X164056809Y-98207994D01*
X163959599Y-98146303D01*
X163918316Y-98120104D01*
X163918313Y-98120102D01*
X163912373Y-98116333D01*
X163905740Y-98113971D01*
X163757854Y-98061311D01*
X163757849Y-98061310D01*
X163751219Y-98058949D01*
X163744231Y-98058116D01*
X163744228Y-98058115D01*
X163615824Y-98042804D01*
X163581357Y-98038694D01*
X163574354Y-98039430D01*
X163574353Y-98039430D01*
X163542252Y-98042804D01*
X163411228Y-98056575D01*
X163401071Y-98060033D01*
X163255956Y-98109434D01*
X163255953Y-98109435D01*
X163249289Y-98111704D01*
X163103588Y-98201340D01*
X163098557Y-98206267D01*
X163098554Y-98206269D01*
X163051698Y-98252154D01*
X162981366Y-98321028D01*
X162977547Y-98326953D01*
X162977546Y-98326955D01*
X162972135Y-98335352D01*
X162888698Y-98464820D01*
X162886287Y-98471443D01*
X162886286Y-98471446D01*
X162832600Y-98618947D01*
X162832599Y-98618952D01*
X162830190Y-98625570D01*
X162808750Y-98795286D01*
X153467549Y-98795286D01*
X153393772Y-98720992D01*
X153388809Y-98715994D01*
X153273785Y-98642998D01*
X153250316Y-98628104D01*
X153250313Y-98628102D01*
X153244373Y-98624333D01*
X153237740Y-98621971D01*
X153089854Y-98569311D01*
X153089849Y-98569310D01*
X153083219Y-98566949D01*
X153076231Y-98566116D01*
X153076228Y-98566115D01*
X152957854Y-98552000D01*
X152913357Y-98546694D01*
X152906354Y-98547430D01*
X152906353Y-98547430D01*
X152878448Y-98550363D01*
X152743228Y-98564575D01*
X152733071Y-98568033D01*
X152587956Y-98617434D01*
X152587953Y-98617435D01*
X152581289Y-98619704D01*
X152435588Y-98709340D01*
X152430557Y-98714267D01*
X152430554Y-98714269D01*
X152385918Y-98757980D01*
X152313366Y-98829028D01*
X152309547Y-98834953D01*
X152309546Y-98834955D01*
X152304135Y-98843352D01*
X152220698Y-98972820D01*
X152218287Y-98979443D01*
X152218286Y-98979446D01*
X152164600Y-99126947D01*
X152164599Y-99126952D01*
X152162190Y-99133570D01*
X152140750Y-99303286D01*
X149403549Y-99303286D01*
X149351418Y-99250790D01*
X149324809Y-99223994D01*
X149234693Y-99166805D01*
X149186316Y-99136104D01*
X149186313Y-99136102D01*
X149180373Y-99132333D01*
X149167800Y-99127856D01*
X149025854Y-99077311D01*
X149025849Y-99077310D01*
X149019219Y-99074949D01*
X149012231Y-99074116D01*
X149012228Y-99074115D01*
X148896655Y-99060334D01*
X148849357Y-99054694D01*
X148842354Y-99055430D01*
X148842353Y-99055430D01*
X148797958Y-99060096D01*
X148679228Y-99072575D01*
X148669071Y-99076033D01*
X148523956Y-99125434D01*
X148523953Y-99125435D01*
X148517289Y-99127704D01*
X148371588Y-99217340D01*
X148366557Y-99222267D01*
X148366554Y-99222269D01*
X148319698Y-99268154D01*
X148249366Y-99337028D01*
X148245547Y-99342953D01*
X148245546Y-99342955D01*
X148240135Y-99351352D01*
X148156698Y-99480820D01*
X148154287Y-99487443D01*
X148154286Y-99487446D01*
X148100600Y-99634947D01*
X148100599Y-99634952D01*
X148098190Y-99641570D01*
X148076750Y-99811286D01*
X147578123Y-99811286D01*
X147560256Y-99652000D01*
X147554635Y-99635856D01*
X147506314Y-99497097D01*
X147506313Y-99497095D01*
X147503999Y-99490450D01*
X147458226Y-99417197D01*
X147417081Y-99351352D01*
X147413348Y-99345378D01*
X147400159Y-99332096D01*
X147319418Y-99250790D01*
X147292809Y-99223994D01*
X147202693Y-99166805D01*
X147154316Y-99136104D01*
X147154313Y-99136102D01*
X147148373Y-99132333D01*
X147135800Y-99127856D01*
X146993854Y-99077311D01*
X146993849Y-99077310D01*
X146987219Y-99074949D01*
X146980231Y-99074116D01*
X146980228Y-99074115D01*
X146864655Y-99060334D01*
X146817357Y-99054694D01*
X146810354Y-99055430D01*
X146810353Y-99055430D01*
X146765958Y-99060096D01*
X146647228Y-99072575D01*
X146637071Y-99076033D01*
X146491956Y-99125434D01*
X146491953Y-99125435D01*
X146485289Y-99127704D01*
X146339588Y-99217340D01*
X146334557Y-99222267D01*
X146334554Y-99222269D01*
X146287698Y-99268154D01*
X146217366Y-99337028D01*
X146213547Y-99342953D01*
X146213546Y-99342955D01*
X146208135Y-99351352D01*
X146124698Y-99480820D01*
X146122287Y-99487443D01*
X146122286Y-99487446D01*
X146068600Y-99634947D01*
X146068599Y-99634952D01*
X146066190Y-99641570D01*
X146044750Y-99811286D01*
X129513310Y-99811286D01*
X129501993Y-99658998D01*
X129494394Y-99556736D01*
X129494393Y-99556732D01*
X129494048Y-99552084D01*
X129434314Y-99288098D01*
X129336216Y-99035841D01*
X129201910Y-98800854D01*
X129034347Y-98588301D01*
X128984369Y-98541286D01*
X135630750Y-98541286D01*
X135647443Y-98711536D01*
X135701440Y-98873856D01*
X135705087Y-98879878D01*
X135705088Y-98879880D01*
X135786406Y-99014154D01*
X135786409Y-99014157D01*
X135790056Y-99020180D01*
X135908889Y-99143234D01*
X135920754Y-99150998D01*
X136039941Y-99228992D01*
X136052030Y-99236903D01*
X136058634Y-99239359D01*
X136058636Y-99239360D01*
X136205757Y-99294074D01*
X136205759Y-99294074D01*
X136212367Y-99296532D01*
X136291454Y-99307085D01*
X136374949Y-99318226D01*
X136374953Y-99318226D01*
X136381930Y-99319157D01*
X136388941Y-99318519D01*
X136388945Y-99318519D01*
X136545273Y-99304292D01*
X136545275Y-99304292D01*
X136552292Y-99303653D01*
X136558990Y-99301477D01*
X136558993Y-99301476D01*
X136708289Y-99252966D01*
X136708291Y-99252965D01*
X136714985Y-99250790D01*
X136861924Y-99163197D01*
X136985805Y-99045227D01*
X136999079Y-99025249D01*
X137076570Y-98908614D01*
X137080471Y-98902743D01*
X137120191Y-98798179D01*
X137138718Y-98749408D01*
X137138719Y-98749406D01*
X137141218Y-98742826D01*
X137144989Y-98715994D01*
X137164475Y-98577347D01*
X137164475Y-98577344D01*
X137165026Y-98573425D01*
X137165173Y-98562878D01*
X137165270Y-98555962D01*
X137165270Y-98555957D01*
X137165325Y-98552000D01*
X137146256Y-98382000D01*
X137142317Y-98370687D01*
X137092314Y-98227097D01*
X137092313Y-98227095D01*
X137089999Y-98220450D01*
X137053106Y-98161408D01*
X137003081Y-98081352D01*
X136999348Y-98075378D01*
X136986159Y-98062096D01*
X136883772Y-97958992D01*
X136878809Y-97953994D01*
X136804198Y-97906645D01*
X136740316Y-97866104D01*
X136740313Y-97866102D01*
X136734373Y-97862333D01*
X136727740Y-97859971D01*
X136579854Y-97807311D01*
X136579849Y-97807310D01*
X136573219Y-97804949D01*
X136566231Y-97804116D01*
X136566228Y-97804115D01*
X136447854Y-97790000D01*
X136403357Y-97784694D01*
X136396354Y-97785430D01*
X136396353Y-97785430D01*
X136352873Y-97790000D01*
X136233228Y-97802575D01*
X136223071Y-97806033D01*
X136077956Y-97855434D01*
X136077953Y-97855435D01*
X136071289Y-97857704D01*
X135925588Y-97947340D01*
X135920557Y-97952267D01*
X135920554Y-97952269D01*
X135868972Y-98002782D01*
X135803366Y-98067028D01*
X135799547Y-98072953D01*
X135799546Y-98072955D01*
X135794135Y-98081352D01*
X135710698Y-98210820D01*
X135708287Y-98217443D01*
X135708286Y-98217446D01*
X135654600Y-98364947D01*
X135654599Y-98364952D01*
X135652190Y-98371570D01*
X135630750Y-98541286D01*
X128984369Y-98541286D01*
X128837206Y-98402849D01*
X128711252Y-98315471D01*
X128618657Y-98251236D01*
X128618652Y-98251233D01*
X128614819Y-98248574D01*
X128610628Y-98246507D01*
X128376259Y-98130929D01*
X128376256Y-98130928D01*
X128372071Y-98128864D01*
X128337758Y-98117880D01*
X128204982Y-98075378D01*
X128114296Y-98046349D01*
X127967860Y-98022501D01*
X127851768Y-98003594D01*
X127851767Y-98003594D01*
X127847156Y-98002843D01*
X127711837Y-98001071D01*
X127581196Y-97999361D01*
X127581193Y-97999361D01*
X127576519Y-97999300D01*
X127308331Y-98035799D01*
X127303845Y-98037107D01*
X127303843Y-98037107D01*
X127272135Y-98046349D01*
X127048484Y-98111537D01*
X127044231Y-98113497D01*
X127044230Y-98113498D01*
X127034725Y-98117880D01*
X126802686Y-98224852D01*
X126798777Y-98227415D01*
X126580250Y-98370687D01*
X126580245Y-98370691D01*
X126576337Y-98373253D01*
X126539588Y-98406053D01*
X126381078Y-98547528D01*
X126374409Y-98553480D01*
X126201339Y-98761575D01*
X126060928Y-98992965D01*
X126059119Y-98997279D01*
X126059118Y-98997281D01*
X125958636Y-99236903D01*
X125956260Y-99242568D01*
X125955109Y-99247100D01*
X125955108Y-99247103D01*
X125931419Y-99340379D01*
X125889637Y-99504900D01*
X125862520Y-99774198D01*
X112268500Y-99774198D01*
X112268500Y-96581655D01*
X118843858Y-96581655D01*
X118879104Y-96840638D01*
X118880412Y-96845124D01*
X118880412Y-96845126D01*
X118900098Y-96912664D01*
X118952243Y-97091567D01*
X119061668Y-97328928D01*
X119064231Y-97332837D01*
X119202410Y-97543596D01*
X119202414Y-97543601D01*
X119204976Y-97547509D01*
X119379018Y-97742506D01*
X119579970Y-97909637D01*
X119583973Y-97912066D01*
X119799422Y-98042804D01*
X119799426Y-98042806D01*
X119803419Y-98045229D01*
X120044455Y-98146303D01*
X120297783Y-98210641D01*
X120302434Y-98211109D01*
X120302438Y-98211110D01*
X120461209Y-98227097D01*
X120514867Y-98232500D01*
X120670354Y-98232500D01*
X120672679Y-98232327D01*
X120672685Y-98232327D01*
X120860000Y-98218407D01*
X120860004Y-98218406D01*
X120864652Y-98218061D01*
X120869200Y-98217032D01*
X120869206Y-98217031D01*
X121055601Y-98174853D01*
X121119577Y-98160377D01*
X121155769Y-98146303D01*
X121358824Y-98067340D01*
X121358827Y-98067339D01*
X121363177Y-98065647D01*
X121370764Y-98061311D01*
X121523781Y-97973854D01*
X121590098Y-97935951D01*
X121795357Y-97774138D01*
X121974443Y-97583763D01*
X122123424Y-97369009D01*
X122152053Y-97310955D01*
X122236960Y-97138781D01*
X122236961Y-97138778D01*
X122239025Y-97134593D01*
X122251474Y-97095704D01*
X122317280Y-96890123D01*
X122318707Y-96885665D01*
X122360721Y-96627693D01*
X122361324Y-96581655D01*
X157543858Y-96581655D01*
X157579104Y-96840638D01*
X157580412Y-96845124D01*
X157580412Y-96845126D01*
X157600098Y-96912664D01*
X157652243Y-97091567D01*
X157761668Y-97328928D01*
X157764231Y-97332837D01*
X157902410Y-97543596D01*
X157902414Y-97543601D01*
X157904976Y-97547509D01*
X158079018Y-97742506D01*
X158279970Y-97909637D01*
X158283973Y-97912066D01*
X158499422Y-98042804D01*
X158499426Y-98042806D01*
X158503419Y-98045229D01*
X158744455Y-98146303D01*
X158997783Y-98210641D01*
X159002434Y-98211109D01*
X159002438Y-98211110D01*
X159161209Y-98227097D01*
X159214867Y-98232500D01*
X159370354Y-98232500D01*
X159372679Y-98232327D01*
X159372685Y-98232327D01*
X159560000Y-98218407D01*
X159560004Y-98218406D01*
X159564652Y-98218061D01*
X159569200Y-98217032D01*
X159569206Y-98217031D01*
X159755601Y-98174853D01*
X159819577Y-98160377D01*
X159855769Y-98146303D01*
X160058824Y-98067340D01*
X160058827Y-98067339D01*
X160063177Y-98065647D01*
X160070764Y-98061311D01*
X160223781Y-97973854D01*
X160290098Y-97935951D01*
X160488827Y-97779286D01*
X170682750Y-97779286D01*
X170699443Y-97949536D01*
X170753440Y-98111856D01*
X170757087Y-98117878D01*
X170757088Y-98117880D01*
X170838406Y-98252154D01*
X170838409Y-98252157D01*
X170842056Y-98258180D01*
X170960889Y-98381234D01*
X171023354Y-98422110D01*
X171088622Y-98464820D01*
X171104030Y-98474903D01*
X171183897Y-98504606D01*
X171240770Y-98547096D01*
X171265644Y-98613592D01*
X171250619Y-98682981D01*
X171228131Y-98712725D01*
X171224793Y-98715994D01*
X171109366Y-98829028D01*
X171105547Y-98834953D01*
X171105546Y-98834955D01*
X171100135Y-98843352D01*
X171016698Y-98972820D01*
X171014287Y-98979443D01*
X171014286Y-98979446D01*
X170960600Y-99126947D01*
X170960599Y-99126952D01*
X170958190Y-99133570D01*
X170936750Y-99303286D01*
X170953443Y-99473536D01*
X171007440Y-99635856D01*
X171011087Y-99641878D01*
X171011088Y-99641880D01*
X171092406Y-99776154D01*
X171092409Y-99776157D01*
X171096056Y-99782180D01*
X171214889Y-99905234D01*
X171220785Y-99909092D01*
X171320780Y-99974527D01*
X171358030Y-99998903D01*
X171364634Y-100001359D01*
X171364636Y-100001360D01*
X171511757Y-100056074D01*
X171511759Y-100056074D01*
X171518367Y-100058532D01*
X171597454Y-100069085D01*
X171680949Y-100080226D01*
X171680953Y-100080226D01*
X171687930Y-100081157D01*
X171694941Y-100080519D01*
X171694945Y-100080519D01*
X171851273Y-100066292D01*
X171851275Y-100066292D01*
X171858292Y-100065653D01*
X171864990Y-100063477D01*
X171864993Y-100063476D01*
X172014289Y-100014966D01*
X172014291Y-100014965D01*
X172020985Y-100012790D01*
X172167924Y-99925197D01*
X172291805Y-99807227D01*
X172305079Y-99787249D01*
X172382570Y-99670614D01*
X172386471Y-99664743D01*
X172447218Y-99504826D01*
X172448304Y-99497097D01*
X172470475Y-99339347D01*
X172470475Y-99339344D01*
X172471026Y-99335425D01*
X172471325Y-99314000D01*
X172452256Y-99144000D01*
X172449507Y-99136104D01*
X172398314Y-98989097D01*
X172398313Y-98989095D01*
X172395999Y-98982450D01*
X172305348Y-98837378D01*
X172292159Y-98824096D01*
X172189772Y-98720992D01*
X172184809Y-98715994D01*
X172069785Y-98642998D01*
X172046316Y-98628104D01*
X172046313Y-98628102D01*
X172040373Y-98624333D01*
X171970734Y-98599536D01*
X171913273Y-98557844D01*
X171887472Y-98491701D01*
X171901527Y-98422110D01*
X171926111Y-98389592D01*
X171983068Y-98335352D01*
X172037805Y-98283227D01*
X172051079Y-98263249D01*
X172090296Y-98204221D01*
X172132471Y-98140743D01*
X172184569Y-98003594D01*
X172190718Y-97987408D01*
X172190719Y-97987406D01*
X172193218Y-97980826D01*
X172196989Y-97953994D01*
X172216475Y-97815347D01*
X172216475Y-97815344D01*
X172217026Y-97811425D01*
X172217325Y-97790000D01*
X172198256Y-97620000D01*
X172184298Y-97579916D01*
X172144314Y-97465097D01*
X172144313Y-97465095D01*
X172141999Y-97458450D01*
X172051348Y-97313378D01*
X172038159Y-97300096D01*
X171935772Y-97196992D01*
X171930809Y-97191994D01*
X171840359Y-97134593D01*
X171792316Y-97104104D01*
X171792313Y-97104102D01*
X171786373Y-97100333D01*
X171773702Y-97095821D01*
X171631854Y-97045311D01*
X171631849Y-97045310D01*
X171625219Y-97042949D01*
X171618231Y-97042116D01*
X171618228Y-97042115D01*
X171502655Y-97028334D01*
X171455357Y-97022694D01*
X171448354Y-97023430D01*
X171448353Y-97023430D01*
X171403958Y-97028096D01*
X171285228Y-97040575D01*
X171275071Y-97044033D01*
X171129956Y-97093434D01*
X171129953Y-97093435D01*
X171123289Y-97095704D01*
X170977588Y-97185340D01*
X170972557Y-97190267D01*
X170972554Y-97190269D01*
X170965689Y-97196992D01*
X170855366Y-97305028D01*
X170851547Y-97310953D01*
X170851546Y-97310955D01*
X170846135Y-97319352D01*
X170762698Y-97448820D01*
X170760287Y-97455443D01*
X170760286Y-97455446D01*
X170706600Y-97602947D01*
X170706599Y-97602952D01*
X170704190Y-97609570D01*
X170682750Y-97779286D01*
X160488827Y-97779286D01*
X160495357Y-97774138D01*
X160674443Y-97583763D01*
X160823424Y-97369009D01*
X160852053Y-97310955D01*
X160936960Y-97138781D01*
X160936961Y-97138778D01*
X160939025Y-97134593D01*
X160951474Y-97095704D01*
X161017280Y-96890123D01*
X161018707Y-96885665D01*
X161060721Y-96627693D01*
X161064142Y-96366345D01*
X161028896Y-96107362D01*
X161014473Y-96057877D01*
X160957068Y-95860932D01*
X160955757Y-95856433D01*
X160846332Y-95619072D01*
X160813519Y-95569024D01*
X160705590Y-95404404D01*
X160705586Y-95404399D01*
X160703024Y-95400491D01*
X160528982Y-95205494D01*
X160328030Y-95038363D01*
X160242220Y-94986292D01*
X160108578Y-94905196D01*
X160108574Y-94905194D01*
X160104581Y-94902771D01*
X159863545Y-94801697D01*
X159610217Y-94737359D01*
X159605566Y-94736891D01*
X159605562Y-94736890D01*
X159396271Y-94715816D01*
X159393133Y-94715500D01*
X159237646Y-94715500D01*
X159235321Y-94715673D01*
X159235315Y-94715673D01*
X159048000Y-94729593D01*
X159047996Y-94729594D01*
X159043348Y-94729939D01*
X159038800Y-94730968D01*
X159038794Y-94730969D01*
X158852399Y-94773147D01*
X158788423Y-94787623D01*
X158784071Y-94789315D01*
X158784069Y-94789316D01*
X158549176Y-94880660D01*
X158549173Y-94880661D01*
X158544823Y-94882353D01*
X158317902Y-95012049D01*
X158112643Y-95173862D01*
X157933557Y-95364237D01*
X157784576Y-95578991D01*
X157668975Y-95813407D01*
X157589293Y-96062335D01*
X157547279Y-96320307D01*
X157543858Y-96581655D01*
X122361324Y-96581655D01*
X122364142Y-96366345D01*
X122328896Y-96107362D01*
X122314473Y-96057877D01*
X122257068Y-95860932D01*
X122255757Y-95856433D01*
X122146332Y-95619072D01*
X122113519Y-95569024D01*
X122005590Y-95404404D01*
X122005586Y-95404399D01*
X122003024Y-95400491D01*
X121828982Y-95205494D01*
X121628030Y-95038363D01*
X121542220Y-94986292D01*
X121408578Y-94905196D01*
X121408574Y-94905194D01*
X121404581Y-94902771D01*
X121163545Y-94801697D01*
X120910217Y-94737359D01*
X120905566Y-94736891D01*
X120905562Y-94736890D01*
X120696271Y-94715816D01*
X120693133Y-94715500D01*
X120537646Y-94715500D01*
X120535321Y-94715673D01*
X120535315Y-94715673D01*
X120348000Y-94729593D01*
X120347996Y-94729594D01*
X120343348Y-94729939D01*
X120338800Y-94730968D01*
X120338794Y-94730969D01*
X120152399Y-94773147D01*
X120088423Y-94787623D01*
X120084071Y-94789315D01*
X120084069Y-94789316D01*
X119849176Y-94880660D01*
X119849173Y-94880661D01*
X119844823Y-94882353D01*
X119617902Y-95012049D01*
X119412643Y-95173862D01*
X119233557Y-95364237D01*
X119084576Y-95578991D01*
X118968975Y-95813407D01*
X118889293Y-96062335D01*
X118847279Y-96320307D01*
X118843858Y-96581655D01*
X112268500Y-96581655D01*
X112268500Y-94223286D01*
X138678750Y-94223286D01*
X138695443Y-94393536D01*
X138749440Y-94555856D01*
X138753087Y-94561878D01*
X138753088Y-94561880D01*
X138834406Y-94696154D01*
X138834409Y-94696157D01*
X138838056Y-94702180D01*
X138956889Y-94825234D01*
X138962785Y-94829092D01*
X139079084Y-94905196D01*
X139100030Y-94918903D01*
X139106634Y-94921359D01*
X139106636Y-94921360D01*
X139253757Y-94976074D01*
X139253759Y-94976074D01*
X139260367Y-94978532D01*
X139339454Y-94989085D01*
X139422949Y-95000226D01*
X139422953Y-95000226D01*
X139429930Y-95001157D01*
X139436941Y-95000519D01*
X139436945Y-95000519D01*
X139593273Y-94986292D01*
X139593275Y-94986292D01*
X139600292Y-94985653D01*
X139606990Y-94983477D01*
X139606993Y-94983476D01*
X139756289Y-94934966D01*
X139756291Y-94934965D01*
X139762985Y-94932790D01*
X139798369Y-94911697D01*
X139903872Y-94848805D01*
X139903874Y-94848804D01*
X139909924Y-94845197D01*
X140033805Y-94727227D01*
X140041387Y-94715816D01*
X140124570Y-94590614D01*
X140128471Y-94584743D01*
X140189218Y-94424826D01*
X140213026Y-94255425D01*
X140213325Y-94234000D01*
X140194256Y-94064000D01*
X140137999Y-93902450D01*
X140047348Y-93757378D01*
X140034159Y-93744096D01*
X139931772Y-93640992D01*
X139926809Y-93635994D01*
X139861539Y-93594573D01*
X139788316Y-93548104D01*
X139788313Y-93548102D01*
X139782373Y-93544333D01*
X139775740Y-93541971D01*
X139627854Y-93489311D01*
X139627849Y-93489310D01*
X139621219Y-93486949D01*
X139614231Y-93486116D01*
X139614228Y-93486115D01*
X139498655Y-93472334D01*
X139451357Y-93466694D01*
X139444354Y-93467430D01*
X139444353Y-93467430D01*
X139399958Y-93472096D01*
X139281228Y-93484575D01*
X139271071Y-93488033D01*
X139125956Y-93537434D01*
X139125953Y-93537435D01*
X139119289Y-93539704D01*
X138973588Y-93629340D01*
X138968557Y-93634267D01*
X138968554Y-93634269D01*
X138961689Y-93640992D01*
X138851366Y-93749028D01*
X138847547Y-93754953D01*
X138847546Y-93754955D01*
X138842135Y-93763352D01*
X138758698Y-93892820D01*
X138756287Y-93899443D01*
X138756286Y-93899446D01*
X138702600Y-94046947D01*
X138702599Y-94046952D01*
X138700190Y-94053570D01*
X138678750Y-94223286D01*
X112268500Y-94223286D01*
X112268500Y-91064703D01*
X112952743Y-91064703D01*
X112990268Y-91349734D01*
X113066129Y-91627036D01*
X113178923Y-91891476D01*
X113251913Y-92013434D01*
X113313892Y-92116992D01*
X113326561Y-92138161D01*
X113506313Y-92362528D01*
X113523397Y-92378740D01*
X113693330Y-92540000D01*
X113714851Y-92560423D01*
X113948317Y-92728186D01*
X113952112Y-92730195D01*
X113952113Y-92730196D01*
X113973869Y-92741715D01*
X114202392Y-92862712D01*
X114472373Y-92961511D01*
X114753264Y-93022755D01*
X114781841Y-93025004D01*
X114976282Y-93040307D01*
X114976291Y-93040307D01*
X114978739Y-93040500D01*
X115134271Y-93040500D01*
X115136407Y-93040354D01*
X115136418Y-93040354D01*
X115344548Y-93026165D01*
X115344554Y-93026164D01*
X115348825Y-93025873D01*
X115353020Y-93025004D01*
X115353022Y-93025004D01*
X115489583Y-92996724D01*
X115630342Y-92967574D01*
X115901343Y-92871607D01*
X116156812Y-92739750D01*
X116160313Y-92737289D01*
X116160317Y-92737287D01*
X116214387Y-92699286D01*
X170936750Y-92699286D01*
X170953443Y-92869536D01*
X171007440Y-93031856D01*
X171011087Y-93037878D01*
X171011088Y-93037880D01*
X171092406Y-93172154D01*
X171092409Y-93172157D01*
X171096056Y-93178180D01*
X171214889Y-93301234D01*
X171358030Y-93394903D01*
X171364634Y-93397359D01*
X171364636Y-93397360D01*
X171511757Y-93452074D01*
X171511759Y-93452074D01*
X171518367Y-93454532D01*
X171597454Y-93465085D01*
X171680949Y-93476226D01*
X171680953Y-93476226D01*
X171687930Y-93477157D01*
X171694941Y-93476519D01*
X171694945Y-93476519D01*
X171851273Y-93462292D01*
X171851275Y-93462292D01*
X171858292Y-93461653D01*
X171864990Y-93459477D01*
X171864993Y-93459476D01*
X172014289Y-93410966D01*
X172014291Y-93410965D01*
X172020985Y-93408790D01*
X172167924Y-93321197D01*
X172291805Y-93203227D01*
X172305079Y-93183249D01*
X172382570Y-93066614D01*
X172386471Y-93060743D01*
X172447218Y-92900826D01*
X172450676Y-92876221D01*
X172470475Y-92735347D01*
X172470475Y-92735344D01*
X172471026Y-92731425D01*
X172471325Y-92710000D01*
X172452256Y-92540000D01*
X172395999Y-92378450D01*
X172305348Y-92233378D01*
X172292159Y-92220096D01*
X172225146Y-92152614D01*
X172184809Y-92111994D01*
X172119539Y-92070573D01*
X172046316Y-92024104D01*
X172046313Y-92024102D01*
X172040373Y-92020333D01*
X172033740Y-92017971D01*
X171885854Y-91965311D01*
X171885849Y-91965310D01*
X171879219Y-91962949D01*
X171872231Y-91962116D01*
X171872228Y-91962115D01*
X171756655Y-91948334D01*
X171709357Y-91942694D01*
X171702354Y-91943430D01*
X171702353Y-91943430D01*
X171657958Y-91948096D01*
X171539228Y-91960575D01*
X171529071Y-91964033D01*
X171383956Y-92013434D01*
X171383953Y-92013435D01*
X171377289Y-92015704D01*
X171231588Y-92105340D01*
X171226557Y-92110267D01*
X171226554Y-92110269D01*
X171167573Y-92168028D01*
X171109366Y-92225028D01*
X171105547Y-92230953D01*
X171105546Y-92230955D01*
X171100135Y-92239352D01*
X171016698Y-92368820D01*
X171014287Y-92375443D01*
X171014286Y-92375446D01*
X170960600Y-92522947D01*
X170960599Y-92522952D01*
X170958190Y-92529570D01*
X170936750Y-92699286D01*
X116214387Y-92699286D01*
X116274417Y-92657096D01*
X116392023Y-92574441D01*
X116602622Y-92378740D01*
X116784713Y-92156268D01*
X116934927Y-91911142D01*
X117050483Y-91647898D01*
X117129244Y-91371406D01*
X117169751Y-91086784D01*
X117169845Y-91068951D01*
X117169867Y-91064703D01*
X185088743Y-91064703D01*
X185126268Y-91349734D01*
X185202129Y-91627036D01*
X185314923Y-91891476D01*
X185387913Y-92013434D01*
X185449892Y-92116992D01*
X185462561Y-92138161D01*
X185642313Y-92362528D01*
X185659397Y-92378740D01*
X185829330Y-92540000D01*
X185850851Y-92560423D01*
X186084317Y-92728186D01*
X186088112Y-92730195D01*
X186088113Y-92730196D01*
X186109869Y-92741715D01*
X186338392Y-92862712D01*
X186608373Y-92961511D01*
X186889264Y-93022755D01*
X186917841Y-93025004D01*
X187112282Y-93040307D01*
X187112291Y-93040307D01*
X187114739Y-93040500D01*
X187270271Y-93040500D01*
X187272407Y-93040354D01*
X187272418Y-93040354D01*
X187480548Y-93026165D01*
X187480554Y-93026164D01*
X187484825Y-93025873D01*
X187489020Y-93025004D01*
X187489022Y-93025004D01*
X187625583Y-92996724D01*
X187766342Y-92967574D01*
X188037343Y-92871607D01*
X188292812Y-92739750D01*
X188296313Y-92737289D01*
X188296317Y-92737287D01*
X188410417Y-92657096D01*
X188528023Y-92574441D01*
X188738622Y-92378740D01*
X188920713Y-92156268D01*
X189070927Y-91911142D01*
X189186483Y-91647898D01*
X189265244Y-91371406D01*
X189305751Y-91086784D01*
X189305845Y-91068951D01*
X189307235Y-90803583D01*
X189307235Y-90803576D01*
X189307257Y-90799297D01*
X189303368Y-90769753D01*
X189285252Y-90632154D01*
X189269732Y-90514266D01*
X189267117Y-90504705D01*
X189227756Y-90360826D01*
X189193871Y-90236964D01*
X189081077Y-89972524D01*
X189000835Y-89838450D01*
X188935643Y-89729521D01*
X188935640Y-89729517D01*
X188933439Y-89725839D01*
X188753687Y-89501472D01*
X188545149Y-89303577D01*
X188311683Y-89135814D01*
X188289843Y-89124250D01*
X188266654Y-89111972D01*
X188057608Y-89001288D01*
X187787627Y-88902489D01*
X187506736Y-88841245D01*
X187475685Y-88838801D01*
X187283718Y-88823693D01*
X187283709Y-88823693D01*
X187281261Y-88823500D01*
X187125729Y-88823500D01*
X187123593Y-88823646D01*
X187123582Y-88823646D01*
X186915452Y-88837835D01*
X186915446Y-88837836D01*
X186911175Y-88838127D01*
X186906980Y-88838996D01*
X186906978Y-88838996D01*
X186770417Y-88867276D01*
X186629658Y-88896426D01*
X186358657Y-88992393D01*
X186103188Y-89124250D01*
X186099687Y-89126711D01*
X186099683Y-89126713D01*
X186089594Y-89133804D01*
X185867977Y-89289559D01*
X185852892Y-89303577D01*
X185665290Y-89477908D01*
X185657378Y-89485260D01*
X185475287Y-89707732D01*
X185325073Y-89952858D01*
X185323347Y-89956791D01*
X185323346Y-89956792D01*
X185307298Y-89993351D01*
X185209517Y-90216102D01*
X185130756Y-90492594D01*
X185109894Y-90639181D01*
X185091827Y-90766131D01*
X185090249Y-90777216D01*
X185090227Y-90781505D01*
X185090226Y-90781512D01*
X185089492Y-90921653D01*
X185088743Y-91064703D01*
X117169867Y-91064703D01*
X117171235Y-90803583D01*
X117171235Y-90803576D01*
X117171257Y-90799297D01*
X117167368Y-90769753D01*
X117149252Y-90632154D01*
X117133732Y-90514266D01*
X117131117Y-90504705D01*
X117091756Y-90360826D01*
X117057871Y-90236964D01*
X116945077Y-89972524D01*
X116864835Y-89838450D01*
X116799643Y-89729521D01*
X116799640Y-89729517D01*
X116797439Y-89725839D01*
X116617687Y-89501472D01*
X116409149Y-89303577D01*
X116175683Y-89135814D01*
X116153843Y-89124250D01*
X116130654Y-89111972D01*
X115921608Y-89001288D01*
X115651627Y-88902489D01*
X115370736Y-88841245D01*
X115339685Y-88838801D01*
X115147718Y-88823693D01*
X115147709Y-88823693D01*
X115145261Y-88823500D01*
X114989729Y-88823500D01*
X114987593Y-88823646D01*
X114987582Y-88823646D01*
X114779452Y-88837835D01*
X114779446Y-88837836D01*
X114775175Y-88838127D01*
X114770980Y-88838996D01*
X114770978Y-88838996D01*
X114634417Y-88867276D01*
X114493658Y-88896426D01*
X114222657Y-88992393D01*
X113967188Y-89124250D01*
X113963687Y-89126711D01*
X113963683Y-89126713D01*
X113953594Y-89133804D01*
X113731977Y-89289559D01*
X113716892Y-89303577D01*
X113529290Y-89477908D01*
X113521378Y-89485260D01*
X113339287Y-89707732D01*
X113189073Y-89952858D01*
X113187347Y-89956791D01*
X113187346Y-89956792D01*
X113171298Y-89993351D01*
X113073517Y-90216102D01*
X112994756Y-90492594D01*
X112973894Y-90639181D01*
X112955827Y-90766131D01*
X112954249Y-90777216D01*
X112954227Y-90781505D01*
X112954226Y-90781512D01*
X112953492Y-90921653D01*
X112952743Y-91064703D01*
X112268500Y-91064703D01*
X112268500Y-88264500D01*
X112288502Y-88196379D01*
X112342158Y-88149886D01*
X112394500Y-88138500D01*
X120756807Y-88138500D01*
X120824928Y-88158502D01*
G37*
%TD.AperFunction*%
%TD*%
M02*
