%TF.GenerationSoftware,KiCad,Pcbnew,(6.0.7)*%
%TF.CreationDate,2022-09-05T17:33:02-05:00*%
%TF.ProjectId,tracker,74726163-6b65-4722-9e6b-696361645f70,1.0*%
%TF.SameCoordinates,Original*%
%TF.FileFunction,Legend,Bot*%
%TF.FilePolarity,Positive*%
%FSLAX46Y46*%
G04 Gerber Fmt 4.6, Leading zero omitted, Abs format (unit mm)*
G04 Created by KiCad (PCBNEW (6.0.7)) date 2022-09-05 17:33:02*
%MOMM*%
%LPD*%
G01*
G04 APERTURE LIST*
%ADD10C,0.300000*%
%ADD11C,0.150000*%
%ADD12C,0.120000*%
%ADD13C,0.152400*%
G04 APERTURE END LIST*
D10*
X159489714Y-140671357D02*
X159275428Y-140742785D01*
X159204000Y-140814214D01*
X159132571Y-140957071D01*
X159132571Y-141171357D01*
X159204000Y-141314214D01*
X159275428Y-141385642D01*
X159418285Y-141457071D01*
X159989714Y-141457071D01*
X159989714Y-139957071D01*
X159489714Y-139957071D01*
X159346857Y-140028500D01*
X159275428Y-140099928D01*
X159204000Y-140242785D01*
X159204000Y-140385642D01*
X159275428Y-140528500D01*
X159346857Y-140599928D01*
X159489714Y-140671357D01*
X159989714Y-140671357D01*
X157846857Y-141457071D02*
X157846857Y-140671357D01*
X157918285Y-140528500D01*
X158061142Y-140457071D01*
X158346857Y-140457071D01*
X158489714Y-140528500D01*
X157846857Y-141385642D02*
X157989714Y-141457071D01*
X158346857Y-141457071D01*
X158489714Y-141385642D01*
X158561142Y-141242785D01*
X158561142Y-141099928D01*
X158489714Y-140957071D01*
X158346857Y-140885642D01*
X157989714Y-140885642D01*
X157846857Y-140814214D01*
X156918285Y-141457071D02*
X157061142Y-141385642D01*
X157132571Y-141242785D01*
X157132571Y-139957071D01*
X156132571Y-141457071D02*
X156275428Y-141385642D01*
X156346857Y-141242785D01*
X156346857Y-139957071D01*
X155346857Y-141457071D02*
X155489714Y-141385642D01*
X155561142Y-141314214D01*
X155632571Y-141171357D01*
X155632571Y-140742785D01*
X155561142Y-140599928D01*
X155489714Y-140528500D01*
X155346857Y-140457071D01*
X155132571Y-140457071D01*
X154989714Y-140528500D01*
X154918285Y-140599928D01*
X154846857Y-140742785D01*
X154846857Y-141171357D01*
X154918285Y-141314214D01*
X154989714Y-141385642D01*
X155132571Y-141457071D01*
X155346857Y-141457071D01*
X153989714Y-141457071D02*
X154132571Y-141385642D01*
X154204000Y-141314214D01*
X154275428Y-141171357D01*
X154275428Y-140742785D01*
X154204000Y-140599928D01*
X154132571Y-140528500D01*
X153989714Y-140457071D01*
X153775428Y-140457071D01*
X153632571Y-140528500D01*
X153561142Y-140599928D01*
X153489714Y-140742785D01*
X153489714Y-141171357D01*
X153561142Y-141314214D01*
X153632571Y-141385642D01*
X153775428Y-141457071D01*
X153989714Y-141457071D01*
X152846857Y-140457071D02*
X152846857Y-141457071D01*
X152846857Y-140599928D02*
X152775428Y-140528500D01*
X152632571Y-140457071D01*
X152418285Y-140457071D01*
X152275428Y-140528500D01*
X152204000Y-140671357D01*
X152204000Y-141457071D01*
X150561142Y-139957071D02*
X149704000Y-139957071D01*
X150132571Y-141457071D02*
X150132571Y-139957071D01*
X149204000Y-141457071D02*
X149204000Y-140457071D01*
X149204000Y-140742785D02*
X149132571Y-140599928D01*
X149061142Y-140528500D01*
X148918285Y-140457071D01*
X148775428Y-140457071D01*
X147632571Y-141457071D02*
X147632571Y-140671357D01*
X147704000Y-140528500D01*
X147846857Y-140457071D01*
X148132571Y-140457071D01*
X148275428Y-140528500D01*
X147632571Y-141385642D02*
X147775428Y-141457071D01*
X148132571Y-141457071D01*
X148275428Y-141385642D01*
X148346857Y-141242785D01*
X148346857Y-141099928D01*
X148275428Y-140957071D01*
X148132571Y-140885642D01*
X147775428Y-140885642D01*
X147632571Y-140814214D01*
X146275428Y-141385642D02*
X146418285Y-141457071D01*
X146704000Y-141457071D01*
X146846857Y-141385642D01*
X146918285Y-141314214D01*
X146989714Y-141171357D01*
X146989714Y-140742785D01*
X146918285Y-140599928D01*
X146846857Y-140528500D01*
X146704000Y-140457071D01*
X146418285Y-140457071D01*
X146275428Y-140528500D01*
X145632571Y-141457071D02*
X145632571Y-139957071D01*
X145489714Y-140885642D02*
X145061142Y-141457071D01*
X145061142Y-140457071D02*
X145632571Y-141028500D01*
X143846857Y-141385642D02*
X143989714Y-141457071D01*
X144275428Y-141457071D01*
X144418285Y-141385642D01*
X144489714Y-141242785D01*
X144489714Y-140671357D01*
X144418285Y-140528500D01*
X144275428Y-140457071D01*
X143989714Y-140457071D01*
X143846857Y-140528500D01*
X143775428Y-140671357D01*
X143775428Y-140814214D01*
X144489714Y-140957071D01*
X143132571Y-141457071D02*
X143132571Y-140457071D01*
X143132571Y-140742785D02*
X143061142Y-140599928D01*
X142989714Y-140528500D01*
X142846857Y-140457071D01*
X142704000Y-140457071D01*
X141132571Y-139885642D02*
X142418285Y-141814214D01*
X139775428Y-141314214D02*
X139846857Y-141385642D01*
X140061142Y-141457071D01*
X140204000Y-141457071D01*
X140418285Y-141385642D01*
X140561142Y-141242785D01*
X140632571Y-141099928D01*
X140704000Y-140814214D01*
X140704000Y-140599928D01*
X140632571Y-140314214D01*
X140561142Y-140171357D01*
X140418285Y-140028500D01*
X140204000Y-139957071D01*
X140061142Y-139957071D01*
X139846857Y-140028500D01*
X139775428Y-140099928D01*
X138489714Y-140457071D02*
X138489714Y-141457071D01*
X139132571Y-140457071D02*
X139132571Y-141242785D01*
X139061142Y-141385642D01*
X138918285Y-141457071D01*
X138704000Y-141457071D01*
X138561142Y-141385642D01*
X138489714Y-141314214D01*
X137989714Y-140457071D02*
X137418285Y-140457071D01*
X137775428Y-139957071D02*
X137775428Y-141242785D01*
X137704000Y-141385642D01*
X137561142Y-141457071D01*
X137418285Y-141457071D01*
X136275428Y-141457071D02*
X136275428Y-139957071D01*
X136275428Y-141385642D02*
X136418285Y-141457071D01*
X136704000Y-141457071D01*
X136846857Y-141385642D01*
X136918285Y-141314214D01*
X136989714Y-141171357D01*
X136989714Y-140742785D01*
X136918285Y-140599928D01*
X136846857Y-140528500D01*
X136704000Y-140457071D01*
X136418285Y-140457071D01*
X136275428Y-140528500D01*
X135346857Y-141457071D02*
X135489714Y-141385642D01*
X135561142Y-141314214D01*
X135632571Y-141171357D01*
X135632571Y-140742785D01*
X135561142Y-140599928D01*
X135489714Y-140528500D01*
X135346857Y-140457071D01*
X135132571Y-140457071D01*
X134989714Y-140528500D01*
X134918285Y-140599928D01*
X134846857Y-140742785D01*
X134846857Y-141171357D01*
X134918285Y-141314214D01*
X134989714Y-141385642D01*
X135132571Y-141457071D01*
X135346857Y-141457071D01*
X134346857Y-140457071D02*
X134061142Y-141457071D01*
X133775428Y-140742785D01*
X133489714Y-141457071D01*
X133204000Y-140457071D01*
X132632571Y-140457071D02*
X132632571Y-141457071D01*
X132632571Y-140599928D02*
X132561142Y-140528500D01*
X132418285Y-140457071D01*
X132204000Y-140457071D01*
X132061142Y-140528500D01*
X131989714Y-140671357D01*
X131989714Y-141457071D01*
X129275428Y-141314214D02*
X129346857Y-141385642D01*
X129561142Y-141457071D01*
X129704000Y-141457071D01*
X129918285Y-141385642D01*
X130061142Y-141242785D01*
X130132571Y-141099928D01*
X130204000Y-140814214D01*
X130204000Y-140599928D01*
X130132571Y-140314214D01*
X130061142Y-140171357D01*
X129918285Y-140028500D01*
X129704000Y-139957071D01*
X129561142Y-139957071D01*
X129346857Y-140028500D01*
X129275428Y-140099928D01*
X128418285Y-141457071D02*
X128561142Y-141385642D01*
X128632571Y-141314214D01*
X128704000Y-141171357D01*
X128704000Y-140742785D01*
X128632571Y-140599928D01*
X128561142Y-140528500D01*
X128418285Y-140457071D01*
X128204000Y-140457071D01*
X128061142Y-140528500D01*
X127989714Y-140599928D01*
X127918285Y-140742785D01*
X127918285Y-141171357D01*
X127989714Y-141314214D01*
X128061142Y-141385642D01*
X128204000Y-141457071D01*
X128418285Y-141457071D01*
X127275428Y-141457071D02*
X127275428Y-140457071D01*
X127275428Y-140599928D02*
X127204000Y-140528500D01*
X127061142Y-140457071D01*
X126846857Y-140457071D01*
X126704000Y-140528500D01*
X126632571Y-140671357D01*
X126632571Y-141457071D01*
X126632571Y-140671357D02*
X126561142Y-140528500D01*
X126418285Y-140457071D01*
X126204000Y-140457071D01*
X126061142Y-140528500D01*
X125989714Y-140671357D01*
X125989714Y-141457071D01*
X125275428Y-141457071D02*
X125275428Y-140457071D01*
X125275428Y-140599928D02*
X125204000Y-140528500D01*
X125061142Y-140457071D01*
X124846857Y-140457071D01*
X124704000Y-140528500D01*
X124632571Y-140671357D01*
X124632571Y-141457071D01*
X124632571Y-140671357D02*
X124561142Y-140528500D01*
X124418285Y-140457071D01*
X124204000Y-140457071D01*
X124061142Y-140528500D01*
X123989714Y-140671357D01*
X123989714Y-141457071D01*
X122632571Y-141457071D02*
X122632571Y-140671357D01*
X122704000Y-140528500D01*
X122846857Y-140457071D01*
X123132571Y-140457071D01*
X123275428Y-140528500D01*
X122632571Y-141385642D02*
X122775428Y-141457071D01*
X123132571Y-141457071D01*
X123275428Y-141385642D01*
X123346857Y-141242785D01*
X123346857Y-141099928D01*
X123275428Y-140957071D01*
X123132571Y-140885642D01*
X122775428Y-140885642D01*
X122632571Y-140814214D01*
X121918285Y-140457071D02*
X121918285Y-141457071D01*
X121918285Y-140599928D02*
X121846857Y-140528500D01*
X121704000Y-140457071D01*
X121489714Y-140457071D01*
X121346857Y-140528500D01*
X121275428Y-140671357D01*
X121275428Y-141457071D01*
X119918285Y-141457071D02*
X119918285Y-139957071D01*
X119918285Y-141385642D02*
X120061142Y-141457071D01*
X120346857Y-141457071D01*
X120489714Y-141385642D01*
X120561142Y-141314214D01*
X120632571Y-141171357D01*
X120632571Y-140742785D01*
X120561142Y-140599928D01*
X120489714Y-140528500D01*
X120346857Y-140457071D01*
X120061142Y-140457071D01*
X119918285Y-140528500D01*
X146382571Y-142372071D02*
X145454000Y-142372071D01*
X145954000Y-142943500D01*
X145739714Y-142943500D01*
X145596857Y-143014928D01*
X145525428Y-143086357D01*
X145454000Y-143229214D01*
X145454000Y-143586357D01*
X145525428Y-143729214D01*
X145596857Y-143800642D01*
X145739714Y-143872071D01*
X146168285Y-143872071D01*
X146311142Y-143800642D01*
X146382571Y-143729214D01*
X144811142Y-143300642D02*
X143668285Y-143300642D01*
X142668285Y-142372071D02*
X142525428Y-142372071D01*
X142382571Y-142443500D01*
X142311142Y-142514928D01*
X142239714Y-142657785D01*
X142168285Y-142943500D01*
X142168285Y-143300642D01*
X142239714Y-143586357D01*
X142311142Y-143729214D01*
X142382571Y-143800642D01*
X142525428Y-143872071D01*
X142668285Y-143872071D01*
X142811142Y-143800642D01*
X142882571Y-143729214D01*
X142954000Y-143586357D01*
X143025428Y-143300642D01*
X143025428Y-142943500D01*
X142954000Y-142657785D01*
X142882571Y-142514928D01*
X142811142Y-142443500D01*
X142668285Y-142372071D01*
X141239714Y-142372071D02*
X141096857Y-142372071D01*
X140954000Y-142443500D01*
X140882571Y-142514928D01*
X140811142Y-142657785D01*
X140739714Y-142943500D01*
X140739714Y-143300642D01*
X140811142Y-143586357D01*
X140882571Y-143729214D01*
X140954000Y-143800642D01*
X141096857Y-143872071D01*
X141239714Y-143872071D01*
X141382571Y-143800642D01*
X141454000Y-143729214D01*
X141525428Y-143586357D01*
X141596857Y-143300642D01*
X141596857Y-142943500D01*
X141525428Y-142657785D01*
X141454000Y-142514928D01*
X141382571Y-142443500D01*
X141239714Y-142372071D01*
X139811142Y-142372071D02*
X139668285Y-142372071D01*
X139525428Y-142443500D01*
X139454000Y-142514928D01*
X139382571Y-142657785D01*
X139311142Y-142943500D01*
X139311142Y-143300642D01*
X139382571Y-143586357D01*
X139454000Y-143729214D01*
X139525428Y-143800642D01*
X139668285Y-143872071D01*
X139811142Y-143872071D01*
X139954000Y-143800642D01*
X140025428Y-143729214D01*
X140096857Y-143586357D01*
X140168285Y-143300642D01*
X140168285Y-142943500D01*
X140096857Y-142657785D01*
X140025428Y-142514928D01*
X139954000Y-142443500D01*
X139811142Y-142372071D01*
X138382571Y-142372071D02*
X138239714Y-142372071D01*
X138096857Y-142443500D01*
X138025428Y-142514928D01*
X137954000Y-142657785D01*
X137882571Y-142943500D01*
X137882571Y-143300642D01*
X137954000Y-143586357D01*
X138025428Y-143729214D01*
X138096857Y-143800642D01*
X138239714Y-143872071D01*
X138382571Y-143872071D01*
X138525428Y-143800642D01*
X138596857Y-143729214D01*
X138668285Y-143586357D01*
X138739714Y-143300642D01*
X138739714Y-142943500D01*
X138668285Y-142657785D01*
X138596857Y-142514928D01*
X138525428Y-142443500D01*
X138382571Y-142372071D01*
X136954000Y-142372071D02*
X136811142Y-142372071D01*
X136668285Y-142443500D01*
X136596857Y-142514928D01*
X136525428Y-142657785D01*
X136454000Y-142943500D01*
X136454000Y-143300642D01*
X136525428Y-143586357D01*
X136596857Y-143729214D01*
X136668285Y-143800642D01*
X136811142Y-143872071D01*
X136954000Y-143872071D01*
X137096857Y-143800642D01*
X137168285Y-143729214D01*
X137239714Y-143586357D01*
X137311142Y-143300642D01*
X137311142Y-142943500D01*
X137239714Y-142657785D01*
X137168285Y-142514928D01*
X137096857Y-142443500D01*
X136954000Y-142372071D01*
X135168285Y-142372071D02*
X135454000Y-142372071D01*
X135596857Y-142443500D01*
X135668285Y-142514928D01*
X135811142Y-142729214D01*
X135882571Y-143014928D01*
X135882571Y-143586357D01*
X135811142Y-143729214D01*
X135739714Y-143800642D01*
X135596857Y-143872071D01*
X135311142Y-143872071D01*
X135168285Y-143800642D01*
X135096857Y-143729214D01*
X135025428Y-143586357D01*
X135025428Y-143229214D01*
X135096857Y-143086357D01*
X135168285Y-143014928D01*
X135311142Y-142943500D01*
X135596857Y-142943500D01*
X135739714Y-143014928D01*
X135811142Y-143086357D01*
X135882571Y-143229214D01*
X134168285Y-143014928D02*
X134311142Y-142943500D01*
X134382571Y-142872071D01*
X134454000Y-142729214D01*
X134454000Y-142657785D01*
X134382571Y-142514928D01*
X134311142Y-142443500D01*
X134168285Y-142372071D01*
X133882571Y-142372071D01*
X133739714Y-142443500D01*
X133668285Y-142514928D01*
X133596857Y-142657785D01*
X133596857Y-142729214D01*
X133668285Y-142872071D01*
X133739714Y-142943500D01*
X133882571Y-143014928D01*
X134168285Y-143014928D01*
X134311142Y-143086357D01*
X134382571Y-143157785D01*
X134454000Y-143300642D01*
X134454000Y-143586357D01*
X134382571Y-143729214D01*
X134311142Y-143800642D01*
X134168285Y-143872071D01*
X133882571Y-143872071D01*
X133739714Y-143800642D01*
X133668285Y-143729214D01*
X133596857Y-143586357D01*
X133596857Y-143300642D01*
X133668285Y-143157785D01*
X133739714Y-143086357D01*
X133882571Y-143014928D01*
D11*
%TO.C,J1*%
X179030380Y-98218666D02*
X179744666Y-98218666D01*
X179887523Y-98171047D01*
X179982761Y-98075809D01*
X180030380Y-97932952D01*
X180030380Y-97837714D01*
X180030380Y-99218666D02*
X180030380Y-98647238D01*
X180030380Y-98932952D02*
X179030380Y-98932952D01*
X179173238Y-98837714D01*
X179268476Y-98742476D01*
X179316095Y-98647238D01*
%TO.C,U1*%
X176529904Y-143216380D02*
X176529904Y-144025904D01*
X176482285Y-144121142D01*
X176434666Y-144168761D01*
X176339428Y-144216380D01*
X176148952Y-144216380D01*
X176053714Y-144168761D01*
X176006095Y-144121142D01*
X175958476Y-144025904D01*
X175958476Y-143216380D01*
X174958476Y-144216380D02*
X175529904Y-144216380D01*
X175244190Y-144216380D02*
X175244190Y-143216380D01*
X175339428Y-143359238D01*
X175434666Y-143454476D01*
X175529904Y-143502095D01*
%TO.C,U4*%
X162051904Y-91908380D02*
X162051904Y-92717904D01*
X162004285Y-92813142D01*
X161956666Y-92860761D01*
X161861428Y-92908380D01*
X161670952Y-92908380D01*
X161575714Y-92860761D01*
X161528095Y-92813142D01*
X161480476Y-92717904D01*
X161480476Y-91908380D01*
X160575714Y-92241714D02*
X160575714Y-92908380D01*
X160813809Y-91860761D02*
X161051904Y-92575047D01*
X160432857Y-92575047D01*
D12*
%TO.C,J1*%
X178252000Y-104552000D02*
X178252000Y-92552000D01*
X175252000Y-105052000D02*
X174252000Y-105052000D01*
X175252000Y-92052000D02*
X174252000Y-92052000D01*
X174752000Y-92052000D02*
X174752000Y-91552000D01*
D11*
%TO.C,U1*%
X188264800Y-115570000D02*
X188264800Y-109677200D01*
X163271200Y-115570000D02*
X163271200Y-109677200D01*
X170738800Y-142595600D02*
X163271200Y-135788400D01*
X180797200Y-142595600D02*
X188264800Y-135788400D01*
X188268000Y-115570000D02*
X188268000Y-135763000D01*
X180768000Y-142614000D02*
X170768000Y-142614000D01*
X163268000Y-115570000D02*
X163268000Y-135763000D01*
X188268000Y-109674000D02*
X163268000Y-109674000D01*
D13*
%TO.C,U3*%
X128143000Y-107061000D02*
G75*
G03*
X128143000Y-107061000I-381000J0D01*
G01*
D12*
%TO.C,U4*%
X117454000Y-93324000D02*
X117454000Y-138324000D01*
X117454000Y-138324000D02*
X162454000Y-138324000D01*
X162454000Y-138324000D02*
X162454000Y-93324000D01*
X162454000Y-93324000D02*
X117454000Y-93324000D01*
%TD*%
M02*
