%TF.GenerationSoftware,KiCad,Pcbnew,(6.0.7)*%
%TF.CreationDate,2022-09-05T17:33:02-05:00*%
%TF.ProjectId,tracker,74726163-6b65-4722-9e6b-696361645f70,1.0*%
%TF.SameCoordinates,Original*%
%TF.FileFunction,Copper,L1,Top*%
%TF.FilePolarity,Positive*%
%FSLAX46Y46*%
G04 Gerber Fmt 4.6, Leading zero omitted, Abs format (unit mm)*
G04 Created by KiCad (PCBNEW (6.0.7)) date 2022-09-05 17:33:02*
%MOMM*%
%LPD*%
G01*
G04 APERTURE LIST*
G04 Aperture macros list*
%AMRoundRect*
0 Rectangle with rounded corners*
0 $1 Rounding radius*
0 $2 $3 $4 $5 $6 $7 $8 $9 X,Y pos of 4 corners*
0 Add a 4 corners polygon primitive as box body*
4,1,4,$2,$3,$4,$5,$6,$7,$8,$9,$2,$3,0*
0 Add four circle primitives for the rounded corners*
1,1,$1+$1,$2,$3*
1,1,$1+$1,$4,$5*
1,1,$1+$1,$6,$7*
1,1,$1+$1,$8,$9*
0 Add four rect primitives between the rounded corners*
20,1,$1+$1,$2,$3,$4,$5,0*
20,1,$1+$1,$4,$5,$6,$7,0*
20,1,$1+$1,$6,$7,$8,$9,0*
20,1,$1+$1,$8,$9,$2,$3,0*%
G04 Aperture macros list end*
%TA.AperFunction,SMDPad,CuDef*%
%ADD10R,2.300000X4.500000*%
%TD*%
%TA.AperFunction,SMDPad,CuDef*%
%ADD11RoundRect,0.218750X0.256250X-0.218750X0.256250X0.218750X-0.256250X0.218750X-0.256250X-0.218750X0*%
%TD*%
%TA.AperFunction,SMDPad,CuDef*%
%ADD12RoundRect,0.218750X-0.256250X0.218750X-0.256250X-0.218750X0.256250X-0.218750X0.256250X0.218750X0*%
%TD*%
%TA.AperFunction,SMDPad,CuDef*%
%ADD13RoundRect,0.243750X-0.243750X-0.456250X0.243750X-0.456250X0.243750X0.456250X-0.243750X0.456250X0*%
%TD*%
%TA.AperFunction,SMDPad,CuDef*%
%ADD14RoundRect,0.218750X-0.218750X-0.256250X0.218750X-0.256250X0.218750X0.256250X-0.218750X0.256250X0*%
%TD*%
%TA.AperFunction,SMDPad,CuDef*%
%ADD15RoundRect,0.218750X0.218750X0.256250X-0.218750X0.256250X-0.218750X-0.256250X0.218750X-0.256250X0*%
%TD*%
%TA.AperFunction,SMDPad,CuDef*%
%ADD16RoundRect,0.243750X0.456250X-0.243750X0.456250X0.243750X-0.456250X0.243750X-0.456250X-0.243750X0*%
%TD*%
%TA.AperFunction,SMDPad,CuDef*%
%ADD17RoundRect,0.243750X0.243750X0.456250X-0.243750X0.456250X-0.243750X-0.456250X0.243750X-0.456250X0*%
%TD*%
%TA.AperFunction,SMDPad,CuDef*%
%ADD18RoundRect,0.249999X1.450001X-0.312501X1.450001X0.312501X-1.450001X0.312501X-1.450001X-0.312501X0*%
%TD*%
%TA.AperFunction,SMDPad,CuDef*%
%ADD19C,1.000000*%
%TD*%
%TA.AperFunction,ComponentPad*%
%ADD20R,1.700000X1.700000*%
%TD*%
%TA.AperFunction,ComponentPad*%
%ADD21O,1.700000X1.700000*%
%TD*%
%TA.AperFunction,SMDPad,CuDef*%
%ADD22R,0.900000X0.800000*%
%TD*%
%TA.AperFunction,ComponentPad*%
%ADD23R,2.625000X2.625000*%
%TD*%
%TA.AperFunction,ComponentPad*%
%ADD24C,2.625000*%
%TD*%
%TA.AperFunction,ComponentPad*%
%ADD25R,1.350000X1.350000*%
%TD*%
%TA.AperFunction,ComponentPad*%
%ADD26O,1.350000X1.350000*%
%TD*%
%TA.AperFunction,SMDPad,CuDef*%
%ADD27R,0.550000X1.600000*%
%TD*%
%TA.AperFunction,SMDPad,CuDef*%
%ADD28R,1.600000X0.550000*%
%TD*%
%TA.AperFunction,ComponentPad*%
%ADD29C,1.219200*%
%TD*%
%TA.AperFunction,SMDPad,CuDef*%
%ADD30R,1.500000X1.800000*%
%TD*%
%TA.AperFunction,SMDPad,CuDef*%
%ADD31R,1.800000X1.500000*%
%TD*%
%TA.AperFunction,SMDPad,CuDef*%
%ADD32R,0.650000X1.060000*%
%TD*%
%TA.AperFunction,SMDPad,CuDef*%
%ADD33R,1.900000X0.400000*%
%TD*%
%TA.AperFunction,ViaPad*%
%ADD34C,0.508000*%
%TD*%
%TA.AperFunction,Conductor*%
%ADD35C,0.304800*%
%TD*%
%TA.AperFunction,Conductor*%
%ADD36C,0.508000*%
%TD*%
%TA.AperFunction,Conductor*%
%ADD37C,0.152400*%
%TD*%
%TA.AperFunction,Conductor*%
%ADD38C,1.270000*%
%TD*%
%TA.AperFunction,Conductor*%
%ADD39C,0.635000*%
%TD*%
G04 APERTURE END LIST*
D10*
%TO.P,BT1,1*%
%TO.N,Net-(BT1-Pad1)*%
X149860000Y-141071000D03*
%TO.P,BT1,2*%
%TO.N,RB_GND*%
X149860000Y-124671000D03*
%TD*%
D11*
%TO.P,C1,2*%
%TO.N,RB_GND*%
X148844000Y-101066500D03*
%TO.P,C1,1*%
%TO.N,+3V3*%
X148844000Y-102641500D03*
%TD*%
D12*
%TO.P,C2,1*%
%TO.N,+3V3*%
X148082000Y-115798500D03*
%TO.P,C2,2*%
%TO.N,RB_GND*%
X148082000Y-117373500D03*
%TD*%
%TO.P,C3,2*%
%TO.N,RB_GND*%
X146304000Y-117373500D03*
%TO.P,C3,1*%
%TO.N,+3V3*%
X146304000Y-115798500D03*
%TD*%
D13*
%TO.P,C4,1*%
%TO.N,+3V3*%
X164670500Y-138430000D03*
%TO.P,C4,2*%
%TO.N,RB_GND*%
X166545500Y-138430000D03*
%TD*%
D14*
%TO.P,C5,1*%
%TO.N,+3V3*%
X164820500Y-140462000D03*
%TO.P,C5,2*%
%TO.N,RB_GND*%
X166395500Y-140462000D03*
%TD*%
D11*
%TO.P,C6,1*%
%TO.N,Net-(C6-Pad1)*%
X146812000Y-102641500D03*
%TO.P,C6,2*%
%TO.N,RB_GND*%
X146812000Y-101066500D03*
%TD*%
D14*
%TO.P,C7,1*%
%TO.N,+3V3*%
X164820500Y-142240000D03*
%TO.P,C7,2*%
%TO.N,RB_GND*%
X166395500Y-142240000D03*
%TD*%
D15*
%TO.P,C8,2*%
%TO.N,Net-(C8-Pad2)*%
X182346500Y-132334000D03*
%TO.P,C8,1*%
%TO.N,RESET*%
X183921500Y-132334000D03*
%TD*%
%TO.P,C9,2*%
%TO.N,RB_GND*%
X123418500Y-143256000D03*
%TO.P,C9,1*%
%TO.N,+3V3*%
X124993500Y-143256000D03*
%TD*%
%TO.P,C10,2*%
%TO.N,RB_GND*%
X135864500Y-90170000D03*
%TO.P,C10,1*%
%TO.N,Net-(C10-Pad1)*%
X137439500Y-90170000D03*
%TD*%
%TO.P,C11,1*%
%TO.N,+3V3*%
X132867500Y-143256000D03*
%TO.P,C11,2*%
%TO.N,RB_GND*%
X131292500Y-143256000D03*
%TD*%
D16*
%TO.P,C12,2*%
%TO.N,RB_GND*%
X137160000Y-120220500D03*
%TO.P,C12,1*%
%TO.N,RB_5V*%
X137160000Y-122095500D03*
%TD*%
D13*
%TO.P,C13,1*%
%TO.N,+3V3*%
X133174500Y-117856000D03*
%TO.P,C13,2*%
%TO.N,RB_GND*%
X135049500Y-117856000D03*
%TD*%
D14*
%TO.P,C14,1*%
%TO.N,+3V3*%
X133324500Y-115824000D03*
%TO.P,C14,2*%
%TO.N,RB_GND*%
X134899500Y-115824000D03*
%TD*%
D16*
%TO.P,D1,2*%
%TO.N,Net-(D1-Pad2)*%
X153416000Y-100916500D03*
%TO.P,D1,1*%
%TO.N,RB_GND*%
X153416000Y-102791500D03*
%TD*%
D17*
%TO.P,D2,1*%
%TO.N,RB_GND*%
X173911500Y-124968000D03*
%TO.P,D2,2*%
%TO.N,Net-(D2-Pad2)*%
X172036500Y-124968000D03*
%TD*%
%TO.P,D3,2*%
%TO.N,Net-(D3-Pad2)*%
X172036500Y-127254000D03*
%TO.P,D3,1*%
%TO.N,RB_GND*%
X173911500Y-127254000D03*
%TD*%
D13*
%TO.P,D4,1*%
%TO.N,RB_GND*%
X133174500Y-113030000D03*
%TO.P,D4,2*%
%TO.N,Net-(D4-Pad2)*%
X135049500Y-113030000D03*
%TD*%
D18*
%TO.P,F1,1*%
%TO.N,Net-(F1-Pad1)*%
X136652000Y-96371500D03*
%TO.P,F1,2*%
%TO.N,Net-(C10-Pad1)*%
X136652000Y-92096500D03*
%TD*%
D19*
%TO.P,FID1,*%
%TO.N,*%
X187198000Y-97028000D03*
%TD*%
%TO.P,FID2,*%
%TO.N,*%
X113538000Y-136906000D03*
%TD*%
D20*
%TO.P,J2,1*%
%TO.N,MISO*%
X157226000Y-106934000D03*
D21*
%TO.P,J2,2*%
%TO.N,SCK*%
X159766000Y-106934000D03*
%TO.P,J2,3*%
%TO.N,RESET*%
X157226000Y-109474000D03*
%TO.P,J2,4*%
%TO.N,RB_GND*%
X159766000Y-109474000D03*
%TO.P,J2,5*%
%TO.N,MOSI*%
X157226000Y-112014000D03*
%TO.P,J2,6*%
%TO.N,+3V3*%
X159766000Y-112014000D03*
%TD*%
%TO.P,J4,2*%
%TO.N,Net-(J3-Pad1)*%
X124714000Y-89408000D03*
D20*
%TO.P,J4,1*%
%TO.N,RB_GND*%
X122174000Y-89408000D03*
%TD*%
D22*
%TO.P,Q1,1*%
%TO.N,+3V3*%
X166640000Y-92268000D03*
%TO.P,Q1,2*%
%TO.N,RB_TXO_3V3*%
X166640000Y-94168000D03*
%TO.P,Q1,3*%
%TO.N,RB_TXO*%
X168640000Y-93218000D03*
%TD*%
%TO.P,Q2,3*%
%TO.N,RB_RXI*%
X168640000Y-101854000D03*
%TO.P,Q2,2*%
%TO.N,RB_RXI_3V3*%
X166640000Y-102804000D03*
%TO.P,Q2,1*%
%TO.N,+3V3*%
X166640000Y-100904000D03*
%TD*%
D12*
%TO.P,R1,2*%
%TO.N,RB_TXO_3V3*%
X164846000Y-94005500D03*
%TO.P,R1,1*%
%TO.N,+3V3*%
X164846000Y-92430500D03*
%TD*%
D11*
%TO.P,R2,1*%
%TO.N,RB_5V*%
X170434000Y-94005500D03*
%TO.P,R2,2*%
%TO.N,RB_TXO*%
X170434000Y-92430500D03*
%TD*%
D12*
%TO.P,R3,2*%
%TO.N,RB_RXI_3V3*%
X164846000Y-102641500D03*
%TO.P,R3,1*%
%TO.N,+3V3*%
X164846000Y-101066500D03*
%TD*%
D11*
%TO.P,R4,1*%
%TO.N,RB_5V*%
X170434000Y-102641500D03*
%TO.P,R4,2*%
%TO.N,RB_RXI*%
X170434000Y-101066500D03*
%TD*%
D14*
%TO.P,R5,1*%
%TO.N,+3V3*%
X138404500Y-109474000D03*
%TO.P,R5,2*%
%TO.N,RESET*%
X139979500Y-109474000D03*
%TD*%
D11*
%TO.P,R6,2*%
%TO.N,Net-(D1-Pad2)*%
X150876000Y-101066500D03*
%TO.P,R6,1*%
%TO.N,SCK*%
X150876000Y-102641500D03*
%TD*%
D14*
%TO.P,R7,1*%
%TO.N,Net-(C8-Pad2)*%
X182346500Y-130556000D03*
%TO.P,R7,2*%
%TO.N,Net-(R7-Pad2)*%
X183921500Y-130556000D03*
%TD*%
%TO.P,R8,2*%
%TO.N,Net-(D2-Pad2)*%
X169697500Y-124968000D03*
%TO.P,R8,1*%
%TO.N,Net-(R8-Pad1)*%
X168122500Y-124968000D03*
%TD*%
%TO.P,R9,1*%
%TO.N,Net-(R9-Pad1)*%
X168122500Y-127254000D03*
%TO.P,R9,2*%
%TO.N,Net-(D3-Pad2)*%
X169697500Y-127254000D03*
%TD*%
%TO.P,R10,2*%
%TO.N,Net-(R10-Pad2)*%
X139979500Y-111252000D03*
%TO.P,R10,1*%
%TO.N,RB_TXO_3V3*%
X138404500Y-111252000D03*
%TD*%
%TO.P,R11,2*%
%TO.N,Net-(R11-Pad2)*%
X139979500Y-113030000D03*
%TO.P,R11,1*%
%TO.N,RB_RXI_3V3*%
X138404500Y-113030000D03*
%TD*%
D11*
%TO.P,R12,1*%
%TO.N,GPS_RX*%
X120396000Y-124739500D03*
%TO.P,R12,2*%
%TO.N,Net-(R12-Pad2)*%
X120396000Y-123164500D03*
%TD*%
%TO.P,R13,2*%
%TO.N,Net-(R13-Pad2)*%
X122174000Y-123164500D03*
%TO.P,R13,1*%
%TO.N,GPS_TX*%
X122174000Y-124739500D03*
%TD*%
D14*
%TO.P,R14,1*%
%TO.N,XBee_to_Uc*%
X168122500Y-132842000D03*
%TO.P,R14,2*%
%TO.N,Net-(R14-Pad2)*%
X169697500Y-132842000D03*
%TD*%
%TO.P,R15,1*%
%TO.N,XBee_from_Uc*%
X168122500Y-130810000D03*
%TO.P,R15,2*%
%TO.N,Net-(R15-Pad2)*%
X169697500Y-130810000D03*
%TD*%
D15*
%TO.P,R16,1*%
%TO.N,+3V3*%
X137693500Y-135890000D03*
%TO.P,R16,2*%
%TO.N,GPS_PPS*%
X136118500Y-135890000D03*
%TD*%
D14*
%TO.P,R17,1*%
%TO.N,+3V3*%
X133324500Y-110744000D03*
%TO.P,R17,2*%
%TO.N,Net-(D4-Pad2)*%
X134899500Y-110744000D03*
%TD*%
%TO.P,R18,2*%
%TO.N,RB_NetAv*%
X169697500Y-97790000D03*
%TO.P,R18,1*%
%TO.N,+3V3*%
X168122500Y-97790000D03*
%TD*%
D23*
%TO.P,SW1,1*%
%TO.N,Net-(J3-Pad1)*%
X127688000Y-104422000D03*
D24*
%TO.P,SW1,2*%
%TO.N,Net-(C10-Pad1)*%
X127688000Y-99822000D03*
%TD*%
D25*
%TO.P,U1,1*%
%TO.N,+3V3*%
X164768000Y-134874000D03*
D26*
%TO.P,U1,20*%
%TO.N,N/C*%
X186768000Y-134874000D03*
%TO.P,U1,2*%
%TO.N,XBee_to_Uc*%
X164768000Y-132874000D03*
%TO.P,U1,19*%
%TO.N,N/C*%
X186768000Y-132874000D03*
%TO.P,U1,3*%
%TO.N,XBee_from_Uc*%
X164768000Y-130874000D03*
%TO.P,U1,18*%
%TO.N,N/C*%
X186768000Y-130874000D03*
%TO.P,U1,4*%
X164768000Y-128874000D03*
%TO.P,U1,17*%
%TO.N,Net-(R7-Pad2)*%
X186768000Y-128874000D03*
%TO.P,U1,5*%
%TO.N,N/C*%
X164768000Y-126874000D03*
%TO.P,U1,16*%
X186768000Y-126874000D03*
%TO.P,U1,6*%
%TO.N,Net-(R8-Pad1)*%
X164768000Y-124874000D03*
%TO.P,U1,15*%
%TO.N,Net-(R9-Pad1)*%
X186768000Y-124874000D03*
%TO.P,U1,7*%
%TO.N,N/C*%
X164768000Y-122874000D03*
%TO.P,U1,14*%
X186768000Y-122874000D03*
%TO.P,U1,8*%
X164768000Y-120874000D03*
%TO.P,U1,13*%
X186768000Y-120874000D03*
%TO.P,U1,9*%
X164768000Y-118874000D03*
%TO.P,U1,12*%
X186768000Y-118874000D03*
%TO.P,U1,10*%
%TO.N,RB_GND*%
X164768000Y-116874000D03*
%TO.P,U1,11*%
%TO.N,N/C*%
X186768000Y-116874000D03*
%TD*%
D27*
%TO.P,U2,1*%
%TO.N,Net-(R13-Pad2)*%
X144012000Y-113470000D03*
%TO.P,U2,2*%
%TO.N,Net-(R14-Pad2)*%
X144812000Y-113470000D03*
%TO.P,U2,3*%
%TO.N,RB_GND*%
X145612000Y-113470000D03*
%TO.P,U2,4*%
%TO.N,+3V3*%
X146412000Y-113470000D03*
%TO.P,U2,5*%
%TO.N,RB_GND*%
X147212000Y-113470000D03*
%TO.P,U2,6*%
%TO.N,+3V3*%
X148012000Y-113470000D03*
%TO.P,U2,7*%
%TO.N,Net-(U2-Pad7)*%
X148812000Y-113470000D03*
%TO.P,U2,8*%
%TO.N,Net-(U2-Pad8)*%
X149612000Y-113470000D03*
D28*
%TO.P,U2,9*%
%TO.N,Net-(R15-Pad2)*%
X151062000Y-112020000D03*
%TO.P,U2,10*%
%TO.N,GPS_PPS*%
X151062000Y-111220000D03*
%TO.P,U2,11*%
%TO.N,RB_NetAv*%
X151062000Y-110420000D03*
%TO.P,U2,12*%
%TO.N,N/C*%
X151062000Y-109620000D03*
%TO.P,U2,13*%
X151062000Y-108820000D03*
%TO.P,U2,14*%
X151062000Y-108020000D03*
%TO.P,U2,15*%
%TO.N,MOSI*%
X151062000Y-107220000D03*
%TO.P,U2,16*%
%TO.N,MISO*%
X151062000Y-106420000D03*
D27*
%TO.P,U2,17*%
%TO.N,SCK*%
X149612000Y-104970000D03*
%TO.P,U2,18*%
%TO.N,+3V3*%
X148812000Y-104970000D03*
%TO.P,U2,19*%
%TO.N,N/C*%
X148012000Y-104970000D03*
%TO.P,U2,20*%
%TO.N,Net-(C6-Pad1)*%
X147212000Y-104970000D03*
%TO.P,U2,21*%
%TO.N,RB_GND*%
X146412000Y-104970000D03*
%TO.P,U2,22*%
%TO.N,N/C*%
X145612000Y-104970000D03*
%TO.P,U2,23*%
X144812000Y-104970000D03*
%TO.P,U2,24*%
X144012000Y-104970000D03*
D28*
%TO.P,U2,25*%
X142562000Y-106420000D03*
%TO.P,U2,26*%
X142562000Y-107220000D03*
%TO.P,U2,27*%
X142562000Y-108020000D03*
%TO.P,U2,28*%
X142562000Y-108820000D03*
%TO.P,U2,29*%
%TO.N,RESET*%
X142562000Y-109620000D03*
%TO.P,U2,30*%
%TO.N,Net-(R10-Pad2)*%
X142562000Y-110420000D03*
%TO.P,U2,31*%
%TO.N,Net-(R11-Pad2)*%
X142562000Y-111220000D03*
%TO.P,U2,32*%
%TO.N,Net-(R12-Pad2)*%
X142562000Y-112020000D03*
%TD*%
D29*
%TO.P,U3,3*%
%TO.N,RB_5V*%
X127762000Y-118364000D03*
%TO.P,U3,2*%
%TO.N,RB_GND*%
X127762000Y-115824000D03*
%TO.P,U3,1*%
%TO.N,Net-(F1-Pad1)*%
X127762000Y-113284000D03*
%TD*%
D30*
%TO.P,U5,1*%
%TO.N,RB_GND*%
X123200000Y-140712000D03*
%TO.P,U5,2*%
%TO.N,+3V3*%
X125100000Y-140712000D03*
%TO.P,U5,3*%
%TO.N,Net-(BT1-Pad1)*%
X127000000Y-140712000D03*
%TO.P,U5,4*%
%TO.N,RB_GND*%
X128900000Y-140712000D03*
%TO.P,U5,5*%
X130800000Y-140712000D03*
D31*
%TO.P,U5,6*%
X133600000Y-137912000D03*
%TO.P,U5,7*%
%TO.N,GPS_PPS*%
X133600000Y-136012000D03*
%TO.P,U5,8*%
%TO.N,N/C*%
X133600000Y-134112000D03*
%TO.P,U5,9*%
X133600000Y-132212000D03*
%TO.P,U5,10*%
%TO.N,RB_GND*%
X133600000Y-130312000D03*
D30*
%TO.P,U5,11*%
X130800000Y-127512000D03*
%TO.P,U5,12*%
%TO.N,N/C*%
X128900000Y-127512000D03*
%TO.P,U5,13*%
%TO.N,GPS_TX*%
X127000000Y-127512000D03*
%TO.P,U5,14*%
%TO.N,GPS_RX*%
X125100000Y-127512000D03*
%TO.P,U5,15*%
%TO.N,RB_GND*%
X123200000Y-127512000D03*
D31*
%TO.P,U5,16*%
X120400000Y-130312000D03*
%TO.P,U5,17*%
%TO.N,+3V3*%
X120400000Y-132212000D03*
%TO.P,U5,18*%
%TO.N,N/C*%
X120400000Y-134112000D03*
%TO.P,U5,19*%
X120400000Y-136012000D03*
%TO.P,U5,20*%
%TO.N,RB_GND*%
X120400000Y-137912000D03*
%TD*%
D32*
%TO.P,U6,1*%
%TO.N,RB_5V*%
X133162000Y-122258000D03*
%TO.P,U6,2*%
%TO.N,RB_GND*%
X134112000Y-122258000D03*
%TO.P,U6,3*%
%TO.N,RB_5V*%
X135062000Y-122258000D03*
%TO.P,U6,4*%
%TO.N,N/C*%
X135062000Y-120058000D03*
%TO.P,U6,5*%
%TO.N,+3V3*%
X133162000Y-120058000D03*
%TD*%
D33*
%TO.P,Y1,1*%
%TO.N,Net-(U2-Pad7)*%
X150876000Y-118294000D03*
%TO.P,Y1,2*%
%TO.N,RB_GND*%
X150876000Y-117094000D03*
%TO.P,Y1,3*%
%TO.N,Net-(U2-Pad8)*%
X150876000Y-115894000D03*
%TD*%
D34*
%TO.N,RB_GND*%
X146812000Y-99822000D03*
X148844000Y-99822000D03*
X153416000Y-104140000D03*
X132080000Y-113030000D03*
X137160000Y-118872000D03*
X136144000Y-117856000D03*
X136144000Y-115824000D03*
X130810000Y-125476000D03*
X135636000Y-130302000D03*
X118618000Y-130302000D03*
X118618000Y-137668000D03*
X122174000Y-143256000D03*
X130048000Y-143256000D03*
X135636000Y-137922000D03*
X175260000Y-124968000D03*
X167640000Y-142240000D03*
X173228000Y-104394000D03*
X145034000Y-117348000D03*
X152654000Y-117094000D03*
X146304000Y-106680000D03*
X147574000Y-124206000D03*
X145542000Y-111760000D03*
X147066000Y-111760000D03*
X134112000Y-123698000D03*
X134620000Y-90170000D03*
X129032000Y-142748000D03*
X120623118Y-125756882D03*
%TO.N,+3V3*%
X137160000Y-109474000D03*
X132334000Y-110744000D03*
X118618000Y-132080000D03*
X134112000Y-143256000D03*
X126238000Y-143256000D03*
X137668000Y-134620000D03*
X164846000Y-91186000D03*
X166878000Y-97790000D03*
X164846000Y-99822000D03*
X145034000Y-115824000D03*
X149098000Y-115824000D03*
X132080000Y-115824000D03*
X132080000Y-117856000D03*
X147828000Y-102870000D03*
%TO.N,RESET*%
X152400000Y-109474000D03*
X139954000Y-108204000D03*
X183896000Y-110744000D03*
X183896000Y-133858000D03*
%TO.N,RB_5V*%
X171704000Y-101854000D03*
X137160000Y-123444000D03*
X162052000Y-121666000D03*
X162052000Y-104394000D03*
%TO.N,RB_RXI*%
X171704000Y-99314000D03*
%TO.N,RB_NetAv*%
X171450000Y-97790000D03*
X152654000Y-110490000D03*
X152908000Y-99314000D03*
%TO.N,RB_TXO*%
X171704000Y-92710000D03*
%TO.N,MOSI*%
X153670000Y-107188000D03*
X153670000Y-112014000D03*
%TO.N,RB_TXO_3V3*%
X139446000Y-94234000D03*
X137160000Y-111252000D03*
%TO.N,RB_RXI_3V3*%
X163576000Y-102616000D03*
X163576000Y-98806000D03*
X136398000Y-98552000D03*
X136398000Y-113030000D03*
%TO.N,Net-(R12-Pad2)*%
X120396000Y-121920000D03*
X120396000Y-114300000D03*
%TO.N,Net-(R13-Pad2)*%
X122174000Y-121920000D03*
X122174000Y-114858800D03*
%TO.N,Net-(R14-Pad2)*%
X144780000Y-134112000D03*
X144272000Y-115570000D03*
%TO.N,Net-(R15-Pad2)*%
X153466800Y-113030000D03*
X153924000Y-131826000D03*
%TO.N,GPS_PPS*%
X152908000Y-133350000D03*
X152908000Y-111252000D03*
%TD*%
D35*
%TO.N,Net-(BT1-Pad1)*%
X127000000Y-141916800D02*
X127000000Y-140712000D01*
X129119010Y-144035810D02*
X127000000Y-141916800D01*
X149860000Y-143625800D02*
X149449990Y-144035810D01*
X149860000Y-141071000D02*
X149860000Y-143625800D01*
X149449990Y-144035810D02*
X129119010Y-144035810D01*
%TO.N,RB_GND*%
X146812000Y-101066500D02*
X146812000Y-99822000D01*
X148844000Y-101066500D02*
X148844000Y-99822000D01*
X153416000Y-102791500D02*
X153416000Y-104140000D01*
X133174500Y-113030000D02*
X132080000Y-113030000D01*
X137160000Y-120220500D02*
X137160000Y-118872000D01*
X135049500Y-117856000D02*
X136144000Y-117856000D01*
X134899500Y-115824000D02*
X136144000Y-115824000D01*
X130800000Y-125486000D02*
X130810000Y-125476000D01*
X130800000Y-127512000D02*
X130800000Y-125486000D01*
X135626000Y-130312000D02*
X135636000Y-130302000D01*
X133600000Y-130312000D02*
X135626000Y-130312000D01*
X118628000Y-130312000D02*
X118618000Y-130302000D01*
X120400000Y-130312000D02*
X118628000Y-130312000D01*
X118862000Y-137912000D02*
X118618000Y-137668000D01*
X120400000Y-137912000D02*
X118862000Y-137912000D01*
X123200000Y-143037500D02*
X123418500Y-143256000D01*
X123200000Y-140712000D02*
X123200000Y-143037500D01*
X123418500Y-143256000D02*
X122174000Y-143256000D01*
X130800000Y-142763500D02*
X131292500Y-143256000D01*
X130800000Y-140712000D02*
X130800000Y-142763500D01*
X131292500Y-143256000D02*
X130048000Y-143256000D01*
X135626000Y-137912000D02*
X135636000Y-137922000D01*
X133600000Y-137912000D02*
X135626000Y-137912000D01*
X173911500Y-127254000D02*
X173911500Y-124968000D01*
X173911500Y-124968000D02*
X175260000Y-124968000D01*
D36*
X166545500Y-140312000D02*
X166395500Y-140462000D01*
X166545500Y-138430000D02*
X166545500Y-140312000D01*
X166395500Y-140462000D02*
X166395500Y-142240000D01*
X166395500Y-142240000D02*
X167640000Y-142240000D01*
D35*
X148082000Y-117373500D02*
X146304000Y-117373500D01*
X145059500Y-117373500D02*
X145034000Y-117348000D01*
X146304000Y-117373500D02*
X145059500Y-117373500D01*
D37*
X150876000Y-117094000D02*
X152654000Y-117094000D01*
X146412000Y-106572000D02*
X146304000Y-106680000D01*
X146412000Y-104970000D02*
X146412000Y-106572000D01*
D35*
X148039000Y-124671000D02*
X147574000Y-124206000D01*
X149860000Y-124671000D02*
X148039000Y-124671000D01*
D37*
X145612000Y-111830000D02*
X145542000Y-111760000D01*
X145612000Y-113470000D02*
X145612000Y-111830000D01*
X147212000Y-111906000D02*
X147066000Y-111760000D01*
X147212000Y-113470000D02*
X147212000Y-111906000D01*
D36*
X134112000Y-122258000D02*
X134112000Y-123698000D01*
D35*
X135864500Y-90170000D02*
X134620000Y-90170000D01*
X128900000Y-142616000D02*
X129032000Y-142748000D01*
X128900000Y-140712000D02*
X128900000Y-142616000D01*
X122378236Y-127512000D02*
X120623118Y-125756882D01*
X123200000Y-127512000D02*
X122378236Y-127512000D01*
%TO.N,+3V3*%
X138404500Y-109474000D02*
X137160000Y-109474000D01*
X133324500Y-110744000D02*
X132334000Y-110744000D01*
X118750000Y-132212000D02*
X118618000Y-132080000D01*
X120400000Y-132212000D02*
X118750000Y-132212000D01*
X132867500Y-143256000D02*
X134112000Y-143256000D01*
X124993500Y-143256000D02*
X126238000Y-143256000D01*
X124993500Y-140818500D02*
X125100000Y-140712000D01*
X124993500Y-143256000D02*
X124993500Y-140818500D01*
X137693500Y-134645500D02*
X137668000Y-134620000D01*
X137693500Y-135890000D02*
X137693500Y-134645500D01*
D36*
X164768000Y-134874000D02*
X164768000Y-139270000D01*
X164820500Y-139322500D02*
X164820500Y-140462000D01*
X164768000Y-139270000D02*
X164820500Y-139322500D01*
X164820500Y-142240000D02*
X164820500Y-140462000D01*
D35*
X165008500Y-92268000D02*
X164846000Y-92430500D01*
X166640000Y-92268000D02*
X165008500Y-92268000D01*
X164846000Y-92430500D02*
X164846000Y-91186000D01*
X168122500Y-97790000D02*
X166878000Y-97790000D01*
X165008500Y-100904000D02*
X164846000Y-101066500D01*
X166640000Y-100904000D02*
X165008500Y-100904000D01*
X164846000Y-101066500D02*
X164846000Y-99822000D01*
X148082000Y-115798500D02*
X146304000Y-115798500D01*
X145059500Y-115798500D02*
X145034000Y-115824000D01*
X146304000Y-115798500D02*
X145059500Y-115798500D01*
X149072500Y-115798500D02*
X149098000Y-115824000D01*
X148082000Y-115798500D02*
X149072500Y-115798500D01*
D37*
X146412000Y-115690500D02*
X146304000Y-115798500D01*
X146412000Y-113470000D02*
X146412000Y-115690500D01*
X148012000Y-115728500D02*
X148082000Y-115798500D01*
X148012000Y-113470000D02*
X148012000Y-115728500D01*
X148812000Y-102673500D02*
X148844000Y-102641500D01*
X148812000Y-104970000D02*
X148812000Y-102673500D01*
D36*
X133162000Y-117868500D02*
X133174500Y-117856000D01*
X133162000Y-120058000D02*
X133162000Y-117868500D01*
X133174500Y-115974000D02*
X133324500Y-115824000D01*
X133174500Y-117856000D02*
X133174500Y-115974000D01*
X133324500Y-115824000D02*
X132080000Y-115824000D01*
X133174500Y-117856000D02*
X132080000Y-117856000D01*
D35*
X148056500Y-102641500D02*
X147828000Y-102870000D01*
X148844000Y-102641500D02*
X148056500Y-102641500D01*
D37*
%TO.N,Net-(C6-Pad1)*%
X147212000Y-103041500D02*
X146812000Y-102641500D01*
X147212000Y-104970000D02*
X147212000Y-103041500D01*
D35*
%TO.N,Net-(C8-Pad2)*%
X182346500Y-132334000D02*
X182346500Y-130556000D01*
D37*
%TO.N,RESET*%
X140125500Y-109620000D02*
X139979500Y-109474000D01*
X142562000Y-109620000D02*
X140125500Y-109620000D01*
X157226000Y-109474000D02*
X152400000Y-109474000D01*
X139954000Y-109448500D02*
X139979500Y-109474000D01*
X139954000Y-108204000D02*
X139954000Y-109448500D01*
X157226000Y-109474000D02*
X158496000Y-110744000D01*
X158496000Y-110744000D02*
X183896000Y-110744000D01*
X183896000Y-132359500D02*
X183921500Y-132334000D01*
X183896000Y-133858000D02*
X183896000Y-132359500D01*
D38*
%TO.N,Net-(C10-Pad1)*%
X135413500Y-92096500D02*
X127688000Y-99822000D01*
X136652000Y-92096500D02*
X135413500Y-92096500D01*
X137439500Y-91309000D02*
X136652000Y-92096500D01*
X137439500Y-90170000D02*
X137439500Y-91309000D01*
D35*
%TO.N,RB_5V*%
X170916500Y-102641500D02*
X171704000Y-101854000D01*
X170434000Y-102641500D02*
X170916500Y-102641500D01*
X172262801Y-101295199D02*
X171704000Y-101854000D01*
X172262801Y-95834301D02*
X172262801Y-101295199D01*
X170434000Y-94005500D02*
X172262801Y-95834301D01*
D36*
X133162000Y-122258000D02*
X133162000Y-123378000D01*
X133162000Y-123378000D02*
X132842000Y-123698000D01*
X132842000Y-123698000D02*
X128270000Y-123698000D01*
X127762000Y-123190000D02*
X127762000Y-118364000D01*
X128270000Y-123698000D02*
X127762000Y-123190000D01*
X136997500Y-122258000D02*
X137160000Y-122095500D01*
X135062000Y-122258000D02*
X136997500Y-122258000D01*
X137160000Y-122095500D02*
X137160000Y-123444000D01*
D39*
X137160000Y-123444000D02*
X136144000Y-124460000D01*
X133604000Y-124460000D02*
X132842000Y-123698000D01*
X136144000Y-124460000D02*
X133604000Y-124460000D01*
X137589500Y-121666000D02*
X162052000Y-121666000D01*
X137160000Y-122095500D02*
X137589500Y-121666000D01*
X168681500Y-104394000D02*
X170434000Y-102641500D01*
X162052000Y-104394000D02*
X168681500Y-104394000D01*
D35*
%TO.N,Net-(D1-Pad2)*%
X153266000Y-101066500D02*
X153416000Y-100916500D01*
X150876000Y-101066500D02*
X153266000Y-101066500D01*
%TO.N,Net-(D2-Pad2)*%
X169697500Y-124968000D02*
X172036500Y-124968000D01*
%TO.N,Net-(D3-Pad2)*%
X169697500Y-127254000D02*
X172036500Y-127254000D01*
%TO.N,Net-(D4-Pad2)*%
X135049500Y-110894000D02*
X134899500Y-110744000D01*
X135049500Y-113030000D02*
X135049500Y-110894000D01*
D38*
%TO.N,Net-(F1-Pad1)*%
X136652000Y-96371500D02*
X134768500Y-96371500D01*
X134768500Y-96371500D02*
X130810000Y-100330000D01*
X130810000Y-110236000D02*
X127762000Y-113284000D01*
X130810000Y-100330000D02*
X130810000Y-110236000D01*
D35*
%TO.N,RB_RXI*%
X169646500Y-101854000D02*
X170434000Y-101066500D01*
X168640000Y-101854000D02*
X169646500Y-101854000D01*
X171704000Y-99796500D02*
X170434000Y-101066500D01*
X171704000Y-99314000D02*
X171704000Y-99796500D01*
%TO.N,RB_NetAv*%
X169697500Y-97790000D02*
X171450000Y-97790000D01*
D37*
X152584000Y-110420000D02*
X152654000Y-110490000D01*
X151062000Y-110420000D02*
X152584000Y-110420000D01*
X168173500Y-99314000D02*
X169697500Y-97790000D01*
X152908000Y-99314000D02*
X168173500Y-99314000D01*
D35*
%TO.N,RB_TXO*%
X170713500Y-92710000D02*
X170434000Y-92430500D01*
X171704000Y-92710000D02*
X170713500Y-92710000D01*
X169646500Y-93218000D02*
X170434000Y-92430500D01*
X168640000Y-93218000D02*
X169646500Y-93218000D01*
D37*
%TO.N,MISO*%
X156712000Y-106420000D02*
X157226000Y-106934000D01*
X151062000Y-106420000D02*
X156712000Y-106420000D01*
%TO.N,SCK*%
X149612000Y-103905500D02*
X150876000Y-102641500D01*
X149612000Y-104970000D02*
X149612000Y-103905500D01*
X150876000Y-102641500D02*
X150876000Y-103886000D01*
X150876000Y-103886000D02*
X151892000Y-104902000D01*
X157734000Y-104902000D02*
X159766000Y-106934000D01*
X151892000Y-104902000D02*
X157734000Y-104902000D01*
%TO.N,MOSI*%
X153638000Y-107220000D02*
X153670000Y-107188000D01*
X151062000Y-107220000D02*
X153638000Y-107220000D01*
X153670000Y-112014000D02*
X157226000Y-112014000D01*
D35*
%TO.N,RB_TXO_3V3*%
X165008500Y-94168000D02*
X164846000Y-94005500D01*
X166640000Y-94168000D02*
X165008500Y-94168000D01*
X139674500Y-94005500D02*
X139446000Y-94234000D01*
X164846000Y-94005500D02*
X139674500Y-94005500D01*
X137160000Y-111252000D02*
X138404500Y-111252000D01*
%TO.N,RB_RXI_3V3*%
X166477500Y-102641500D02*
X166640000Y-102804000D01*
X164846000Y-102641500D02*
X166477500Y-102641500D01*
X163601500Y-102641500D02*
X163576000Y-102616000D01*
X164846000Y-102641500D02*
X163601500Y-102641500D01*
X163322000Y-98552000D02*
X136398000Y-98552000D01*
X163576000Y-98806000D02*
X163322000Y-98552000D01*
X136398000Y-113030000D02*
X138404500Y-113030000D01*
%TO.N,Net-(R7-Pad2)*%
X185086000Y-130556000D02*
X186768000Y-128874000D01*
X183921500Y-130556000D02*
X185086000Y-130556000D01*
%TO.N,Net-(R8-Pad1)*%
X168028500Y-124874000D02*
X168122500Y-124968000D01*
X164768000Y-124874000D02*
X168028500Y-124874000D01*
%TO.N,Net-(R9-Pad1)*%
X183383190Y-128258810D02*
X186768000Y-124874000D01*
X169127310Y-128258810D02*
X183383190Y-128258810D01*
X168122500Y-127254000D02*
X169127310Y-128258810D01*
D37*
%TO.N,Net-(R10-Pad2)*%
X141609600Y-110420000D02*
X140777600Y-111252000D01*
X140777600Y-111252000D02*
X139979500Y-111252000D01*
X142562000Y-110420000D02*
X141609600Y-110420000D01*
%TO.N,Net-(R11-Pad2)*%
X139979500Y-112850100D02*
X139979500Y-113030000D01*
X141609600Y-111220000D02*
X139979500Y-112850100D01*
X142562000Y-111220000D02*
X141609600Y-111220000D01*
D35*
%TO.N,GPS_RX*%
X125100000Y-127213358D02*
X123616642Y-125730000D01*
X125100000Y-127512000D02*
X125100000Y-127213358D01*
X121386500Y-125730000D02*
X120396000Y-124739500D01*
X123616642Y-125730000D02*
X121386500Y-125730000D01*
%TO.N,Net-(R12-Pad2)*%
X120396000Y-123164500D02*
X120396000Y-121920000D01*
X120396000Y-114300000D02*
X140716000Y-114300000D01*
D37*
X142562000Y-112020000D02*
X141726000Y-112020000D01*
X141726000Y-112020000D02*
X140970000Y-112776000D01*
X140969999Y-114046001D02*
X140716000Y-114300000D01*
X140970000Y-112776000D02*
X140969999Y-114046001D01*
%TO.N,Net-(R13-Pad2)*%
X144012000Y-113470000D02*
X144012000Y-114306000D01*
X144012000Y-114306000D02*
X143459200Y-114858800D01*
D35*
X133574728Y-114858800D02*
X141020800Y-114858800D01*
X122174000Y-114858800D02*
X133574728Y-114858800D01*
D37*
X143459200Y-114858800D02*
X141020800Y-114858800D01*
D35*
X122174000Y-123164500D02*
X122174000Y-121920000D01*
%TO.N,GPS_TX*%
X127000000Y-127512000D02*
X127000000Y-127213358D01*
X125432300Y-124739500D02*
X122174000Y-124739500D01*
X127000000Y-126307200D02*
X125432300Y-124739500D01*
X127000000Y-127512000D02*
X127000000Y-126307200D01*
%TO.N,XBee_to_Uc*%
X164800000Y-132842000D02*
X164768000Y-132874000D01*
X168122500Y-132842000D02*
X164800000Y-132842000D01*
%TO.N,Net-(R14-Pad2)*%
X163020504Y-134112000D02*
X144780000Y-134112000D01*
X163278703Y-133853801D02*
X163020504Y-134112000D01*
X168685699Y-133853801D02*
X163278703Y-133853801D01*
X169697500Y-132842000D02*
X168685699Y-133853801D01*
D37*
X144812000Y-115030000D02*
X144272000Y-115570000D01*
X144812000Y-113470000D02*
X144812000Y-115030000D01*
D35*
%TO.N,XBee_from_Uc*%
X164832000Y-130810000D02*
X164768000Y-130874000D01*
X168122500Y-130810000D02*
X164832000Y-130810000D01*
D37*
%TO.N,Net-(R15-Pad2)*%
X152456800Y-112020000D02*
X153466800Y-113030000D01*
X151062000Y-112020000D02*
X152456800Y-112020000D01*
D35*
X169189500Y-131318000D02*
X169697500Y-130810000D01*
X168294127Y-131853801D02*
X168829928Y-131318000D01*
X168829928Y-131318000D02*
X169189500Y-131318000D01*
X164297695Y-131853801D02*
X168294127Y-131853801D01*
X164269894Y-131826000D02*
X164297695Y-131853801D01*
X153924000Y-131826000D02*
X164269894Y-131826000D01*
%TO.N,GPS_PPS*%
X135996500Y-136012000D02*
X136118500Y-135890000D01*
X133600000Y-136012000D02*
X135996500Y-136012000D01*
D37*
X152876000Y-111220000D02*
X152908000Y-111252000D01*
X151062000Y-111220000D02*
X152876000Y-111220000D01*
D35*
X136118500Y-133883500D02*
X136118500Y-135890000D01*
X136652000Y-133350000D02*
X136118500Y-133883500D01*
X152908000Y-133350000D02*
X136652000Y-133350000D01*
D37*
%TO.N,Net-(U2-Pad7)*%
X148812000Y-114823750D02*
X149606000Y-115617750D01*
X148812000Y-113470000D02*
X148812000Y-114823750D01*
X149773600Y-118294000D02*
X150876000Y-118294000D01*
X149606000Y-118126400D02*
X149773600Y-118294000D01*
X149606000Y-115617750D02*
X149606000Y-118126400D01*
%TO.N,Net-(U2-Pad8)*%
X149612000Y-114630000D02*
X150876000Y-115894000D01*
X149612000Y-113470000D02*
X149612000Y-114630000D01*
%TD*%
M02*
